Bungee-Inline.ufo
<glyph name="numbersign" format="1">
  <advance width="750"/>
  <unicode hex="0023"/>
  <outline>
    <contour>
      <point x="425.0" y="314" type="line"/>
      <point x="439.0" y="411" type="line"/>
      <point x="326.0" y="411" type="line"/>
      <point x="312.0" y="314" type="line"/>
    </contour>
    <contour>
      <point x="272.0" y="36" type="curve" smooth="yes"/>
      <point x="286.0" y="135" type="line"/>
      <point x="399.0" y="135" type="line"/>
      <point x="385.0" y="36" type="line" smooth="yes"/>
      <point x="382.0" y="11"/>
      <point x="396.0" y="0"/>
      <point x="421.0" y="0" type="curve" smooth="yes"/>
      <point x="526.0" y="0" type="line" smooth="yes"/>
      <point x="551.0" y="0"/>
      <point x="559.0" y="11"/>
      <point x="562.0" y="36" type="curve" smooth="yes"/>
      <point x="576.0" y="135" type="line"/>
      <point x="643.0" y="135" type="line" smooth="yes"/>
      <point x="668.0" y="135"/>
      <point x="679.0" y="145"/>
      <point x="679.0" y="171" type="curve" smooth="yes"/>
      <point x="679.0" y="278" type="line" smooth="yes"/>
      <point x="679.0" y="304"/>
      <point x="668.0" y="314"/>
      <point x="643.0" y="314" type="curve" smooth="yes"/>
      <point x="602.0" y="314" type="line"/>
      <point x="616.0" y="411" type="line"/>
      <point x="679.0" y="411" type="line" smooth="yes"/>
      <point x="704.0" y="411"/>
      <point x="715.0" y="421"/>
      <point x="715.0" y="447" type="curve" smooth="yes"/>
      <point x="715.0" y="554" type="line" smooth="yes"/>
      <point x="715.0" y="580"/>
      <point x="704.0" y="590"/>
      <point x="679.0" y="590" type="curve" smooth="yes"/>
      <point x="642.0" y="590" type="line"/>
      <point x="655.0" y="684" type="line" smooth="yes"/>
      <point x="658.0" y="709"/>
      <point x="644.0" y="720"/>
      <point x="619.0" y="720" type="curve" smooth="yes"/>
      <point x="514.0" y="720" type="line" smooth="yes"/>
      <point x="489.0" y="720"/>
      <point x="481.0" y="709"/>
      <point x="478.0" y="684" type="curve" smooth="yes"/>
      <point x="465.0" y="590" type="line"/>
      <point x="352.0" y="590" type="line"/>
      <point x="365.0" y="684" type="line" smooth="yes"/>
      <point x="368.0" y="709"/>
      <point x="354.0" y="720"/>
      <point x="329.0" y="720" type="curve" smooth="yes"/>
      <point x="224.0" y="720" type="line" smooth="yes"/>
      <point x="199.0" y="720"/>
      <point x="191.0" y="709"/>
      <point x="188.0" y="684" type="curve" smooth="yes"/>
      <point x="175.0" y="590" type="line"/>
      <point x="107.0" y="590" type="line" smooth="yes"/>
      <point x="82.0" y="590"/>
      <point x="71.0" y="579"/>
      <point x="71.0" y="554" type="curve" smooth="yes"/>
      <point x="71.0" y="447" type="line" smooth="yes"/>
      <point x="71.0" y="421"/>
      <point x="82.0" y="411"/>
      <point x="107.0" y="411" type="curve"/>
      <point x="149.0" y="411" type="line"/>
      <point x="135.0" y="314" type="line"/>
      <point x="71.0" y="314" type="line" smooth="yes"/>
      <point x="46.0" y="314"/>
      <point x="35.0" y="303"/>
      <point x="35.0" y="278" type="curve" smooth="yes"/>
      <point x="35.0" y="171" type="line" smooth="yes"/>
      <point x="35.0" y="145"/>
      <point x="46.0" y="135"/>
      <point x="71.0" y="135" type="curve"/>
      <point x="109.0" y="135" type="line"/>
      <point x="95.0" y="36" type="line"/>
      <point x="92.0" y="11"/>
      <point x="106.0" y="0"/>
      <point x="131.0" y="0" type="curve" smooth="yes"/>
      <point x="236.0" y="0" type="line" smooth="yes"/>
      <point x="261.0" y="0"/>
      <point x="269.0" y="11"/>
    </contour>
    <contour>
      <point x="534.0" y="495" type="line"/>
      <point x="255.0" y="495" type="line"/>
      <point x="217.0" y="230" type="line"/>
      <point x="496.0" y="230" type="line"/>
    </contour>
    <contour>
      <point x="187.0" y="90" type="line"/>
      <point x="206.0" y="220" type="line"/>
      <point x="125.0" y="220" type="line"/>
      <point x="125.0" y="230" type="line"/>
      <point x="207.0" y="230" type="line"/>
      <point x="245.0" y="495" type="line"/>
      <point x="161.0" y="495" type="line"/>
      <point x="161.0" y="505" type="line"/>
      <point x="246.0" y="505" type="line"/>
      <point x="264.0" y="630" type="line"/>
      <point x="274.0" y="630" type="line"/>
      <point x="256.0" y="505" type="line"/>
      <point x="535.0" y="505" type="line"/>
      <point x="553.0" y="630" type="line"/>
      <point x="563.0" y="630" type="line"/>
      <point x="545.0" y="505" type="line"/>
      <point x="625.0" y="505" type="line"/>
      <point x="625.0" y="495" type="line"/>
      <point x="544.0" y="495" type="line"/>
      <point x="506.0" y="230" type="line"/>
      <point x="589.0" y="230" type="line"/>
      <point x="589.0" y="220" type="line"/>
      <point x="505.0" y="220" type="line"/>
      <point x="486.0" y="90" type="line"/>
      <point x="476.0" y="90" type="line"/>
      <point x="495.0" y="220" type="line"/>
      <point x="216.0" y="220" type="line"/>
      <point x="197.0" y="90" type="line"/>
    </contour>
  </outline>
</glyph>
<glyph name="parenright" format="1">
  <advance width="429"/>
  <unicode hex="0029"/>
  <outline>
    <contour>
      <point x="135.0" y="-80" type="line" smooth="yes"/>
      <point x="324.0" y="-80"/>
      <point x="381.0" y="3"/>
      <point x="381.0" y="124" type="curve" smooth="yes"/>
      <point x="381.0" y="595" type="line" smooth="yes"/>
      <point x="381.0" y="717"/>
      <point x="324.0" y="800"/>
      <point x="135.0" y="800" type="curve" smooth="yes"/>
      <point x="81.0" y="800" type="line" smooth="yes"/>
      <point x="56.0" y="800"/>
      <point x="45.0" y="789"/>
      <point x="45.0" y="764" type="curve" smooth="yes"/>
      <point x="45.0" y="643" type="line" smooth="yes"/>
      <point x="45.0" y="618"/>
      <point x="56.0" y="607"/>
      <point x="81.0" y="607" type="curve" smooth="yes"/>
      <point x="112.0" y="607" type="line" smooth="yes"/>
      <point x="144.0" y="607"/>
      <point x="153.0" y="592"/>
      <point x="153.0" y="557" type="curve" smooth="yes"/>
      <point x="153.0" y="161" type="line"/>
      <point x="153.0" y="126"/>
      <point x="144.0" y="111"/>
      <point x="112.0" y="111" type="curve" smooth="yes"/>
      <point x="81.0" y="111" type="line" smooth="yes"/>
      <point x="56.0" y="111"/>
      <point x="45.0" y="100"/>
      <point x="45.0" y="75" type="curve" smooth="yes"/>
      <point x="45.0" y="-44" type="line" smooth="yes"/>
      <point x="45.0" y="-69"/>
      <point x="56.0" y="-80"/>
      <point x="81.0" y="-80" type="curve" smooth="yes"/>
    </contour>
    <contour>
      <point x="272.0" y="124" type="line" smooth="yes"/>
      <point x="272.0" y="36"/>
      <point x="222.0" y="11"/>
      <point x="135.0" y="11" type="curve"/>
      <point x="135.0" y="21" type="line"/>
      <point x="214.0" y="21"/>
      <point x="262.0" y="42"/>
      <point x="262.0" y="124" type="curve" smooth="yes"/>
      <point x="262.0" y="595" type="line" smooth="yes"/>
      <point x="262.0" y="677"/>
      <point x="215.0" y="698"/>
      <point x="135.0" y="698" type="curve"/>
      <point x="135.0" y="708" type="line"/>
      <point x="223.0" y="708"/>
      <point x="272.0" y="683"/>
      <point x="272.0" y="595" type="curve" smooth="yes"/>
    </contour>
  </outline>
</glyph>
<glyph name="asterisk" format="1">
  <advance width="718"/>
  <unicode hex="002A"/>
  <outline>
    <contour>
      <point x="286.0" y="165" type="curve" smooth="yes"/>
      <point x="359.0" y="306" type="line"/>
      <point x="433.0" y="165" type="line" smooth="yes"/>
      <point x="449.0" y="137"/>
      <point x="456.0" y="134"/>
      <point x="485.0" y="153" type="curve" smooth="yes"/>
      <point x="579.0" y="221" type="line" smooth="yes"/>
      <point x="607.0" y="241"/>
      <point x="608.0" y="250"/>
      <point x="585.0" y="275" type="curve" smooth="yes"/>
      <point x="475.0" y="390" type="line"/>
      <point x="628.0" y="415" type="line" smooth="yes"/>
      <point x="662.0" y="421"/>
      <point x="667.0" y="428"/>
      <point x="656.0" y="461" type="curve" smooth="yes"/>
      <point x="619.0" y="572" type="line" smooth="yes"/>
      <point x="608.0" y="605"/>
      <point x="600.0" y="609"/>
      <point x="570.0" y="594" type="curve" smooth="yes"/>
      <point x="433.0" y="530" type="line"/>
      <point x="453.0" y="679" type="line" smooth="yes"/>
      <point x="459.0" y="713"/>
      <point x="453.0" y="720"/>
      <point x="419.0" y="720" type="curve" smooth="yes"/>
      <point x="302.0" y="720" type="line" smooth="yes"/>
      <point x="268.0" y="720"/>
      <point x="261.0" y="713"/>
      <point x="266.0" y="679" type="curve" smooth="yes"/>
      <point x="289.0" y="530" type="line"/>
      <point x="147.0" y="594" type="line" smooth="yes"/>
      <point x="117.0" y="609"/>
      <point x="108.0" y="605"/>
      <point x="98.0" y="572" type="curve" smooth="yes"/>
      <point x="62.0" y="461" type="line" smooth="yes"/>
      <point x="51.0" y="428"/>
      <point x="56.0" y="421"/>
      <point x="90.0" y="415" type="curve" smooth="yes"/>
      <point x="242.0" y="390" type="line"/>
      <point x="133.0" y="275" type="line" smooth="yes"/>
      <point x="110.0" y="250"/>
      <point x="111.0" y="241"/>
      <point x="139.0" y="221" type="curve" smooth="yes"/>
      <point x="233.0" y="153" type="line"/>
      <point x="262.0" y="134"/>
      <point x="270.0" y="137"/>
    </contour>
    <contour>
      <point x="470.0" y="268" type="line"/>
      <point x="361.0" y="423" type="line"/>
      <point x="252.0" y="268" type="line"/>
      <point x="244.0" y="274" type="line"/>
      <point x="350.0" y="426" type="line"/>
      <point x="178.0" y="482" type="line"/>
      <point x="182.0" y="492" type="line"/>
      <point x="356.0" y="435" type="line"/>
      <point x="356.0" y="630" type="line"/>
      <point x="366.0" y="630" type="line"/>
      <point x="366.0" y="435" type="line"/>
      <point x="540.0" y="492" type="line"/>
      <point x="544.0" y="482" type="line"/>
      <point x="372.0" y="426" type="line"/>
      <point x="478.0" y="274" type="line"/>
    </contour>
  </outline>
</glyph>
<glyph name="one" format="1">
  <advance width="601"/>
  <unicode hex="0031"/>
  <outline>
    <contour>
      <point x="526.0" y="0" type="line" smooth="yes"/>
      <point x="551.0" y="0"/>
      <point x="562.0" y="11"/>
      <point x="562.0" y="36" type="curve"/>
      <point x="562.0" y="157" type="line" smooth="yes"/>
      <point x="562.0" y="182"/>
      <point x="551.0" y="193"/>
      <point x="526.0" y="193" type="curve"/>
      <point x="430.0" y="193" type="line"/>
      <point x="430.0" y="684" type="line" smooth="yes"/>
      <point x="430.0" y="709"/>
      <point x="419.0" y="720"/>
      <point x="394.0" y="720" type="curve" smooth="yes"/>
      <point x="104.0" y="720" type="line" smooth="yes"/>
      <point x="79.0" y="720"/>
      <point x="68.0" y="709"/>
      <point x="68.0" y="684" type="curve" smooth="yes"/>
      <point x="68.0" y="563" type="line" smooth="yes"/>
      <point x="68.0" y="538"/>
      <point x="79.0" y="527"/>
      <point x="104.0" y="527" type="curve" smooth="yes"/>
      <point x="196.0" y="527" type="line"/>
      <point x="196.0" y="193" type="line"/>
      <point x="84.0" y="193" type="line" smooth="yes"/>
      <point x="59.0" y="193"/>
      <point x="48.0" y="182"/>
      <point x="48.0" y="157" type="curve"/>
      <point x="48.0" y="36" type="line"/>
      <point x="48.0" y="11"/>
      <point x="59.0" y="0"/>
      <point x="84.0" y="0" type="curve" smooth="yes"/>
    </contour>
    <contour>
      <point x="138.0" y="85" type="line"/>
      <point x="138.0" y="95" type="line"/>
      <point x="308.0" y="95" type="line"/>
      <point x="308.0" y="620" type="line"/>
      <point x="158.0" y="620" type="line"/>
      <point x="158.0" y="630" type="line"/>
      <point x="318.0" y="630" type="line"/>
      <point x="318.0" y="95" type="line"/>
      <point x="472.0" y="95" type="line"/>
      <point x="472.0" y="85" type="line"/>
    </contour>
  </outline>
</glyph>
<glyph name="three" format="1">
  <advance width="637"/>
  <unicode hex="0033"/>
  <outline>
    <contour>
      <point x="85.0" y="189" type="line" smooth="yes"/>
      <point x="60.0" y="189"/>
      <point x="49.0" y="178"/>
      <point x="49.0" y="153" type="curve" smooth="yes"/>
      <point x="49.0" y="36" type="line" smooth="yes"/>
      <point x="49.0" y="11"/>
      <point x="60.0" y="0"/>
      <point x="85.0" y="0" type="curve" smooth="yes"/>
      <point x="401.0" y="0" type="line" smooth="yes"/>
      <point x="529.0" y="0"/>
      <point x="595.0" y="63"/>
      <point x="595.0" y="166" type="curve" smooth="yes"/>
      <point x="595.0" y="266" type="line" smooth="yes"/>
      <point x="595.0" y="354"/>
      <point x="564.0" y="400"/>
      <point x="469.0" y="411" type="curve"/>
      <point x="513.0" y="430"/>
      <point x="528.0" y="468"/>
      <point x="528.0" y="519" type="curve" smooth="yes"/>
      <point x="528.0" y="577" type="line" smooth="yes"/>
      <point x="528.0" y="665"/>
      <point x="475.0" y="720"/>
      <point x="364.0" y="720" type="curve" smooth="yes"/>
      <point x="85.0" y="720" type="line" smooth="yes"/>
      <point x="60.0" y="720"/>
      <point x="49.0" y="709"/>
      <point x="49.0" y="684" type="curve" smooth="yes"/>
      <point x="49.0" y="565" type="line" smooth="yes"/>
      <point x="49.0" y="540"/>
      <point x="60.0" y="529"/>
      <point x="85.0" y="529" type="curve" smooth="yes"/>
      <point x="271.0" y="529" type="line" smooth="yes"/>
      <point x="303.0" y="529"/>
      <point x="309.0" y="515"/>
      <point x="309.0" y="499" type="curve" smooth="yes"/>
      <point x="309.0" y="484" type="line" smooth="yes"/>
      <point x="309.0" y="468"/>
      <point x="303.0" y="454"/>
      <point x="271.0" y="454" type="curve" smooth="yes"/>
      <point x="166.0" y="454" type="line" smooth="yes"/>
      <point x="141.0" y="454"/>
      <point x="130.0" y="443"/>
      <point x="130.0" y="418" type="curve" smooth="yes"/>
      <point x="130.0" y="311" type="line" smooth="yes"/>
      <point x="130.0" y="286"/>
      <point x="141.0" y="275"/>
      <point x="166.0" y="275" type="curve" smooth="yes"/>
      <point x="336.0" y="275" type="line" smooth="yes"/>
      <point x="368.0" y="275"/>
      <point x="374.0" y="262"/>
      <point x="374.0" y="246" type="curve" smooth="yes"/>
      <point x="374.0" y="219" type="line" smooth="yes"/>
      <point x="374.0" y="203"/>
      <point x="368.0" y="189"/>
      <point x="336.0" y="189" type="curve" smooth="yes"/>
    </contour>
    <contour>
      <point x="220.0" y="359" type="line"/>
      <point x="220.0" y="369" type="line"/>
      <point x="303.0" y="369" type="line" smooth="yes"/>
      <point x="404.0" y="369"/>
      <point x="414.0" y="412"/>
      <point x="414.0" y="460" type="curve" smooth="yes"/>
      <point x="414.0" y="528" type="line" smooth="yes"/>
      <point x="414.0" y="580"/>
      <point x="391.0" y="620"/>
      <point x="293.0" y="620" type="curve"/>
      <point x="139.0" y="620" type="line"/>
      <point x="139.0" y="630" type="line"/>
      <point x="293.0" y="630" type="line" smooth="yes"/>
      <point x="404.0" y="630"/>
      <point x="424.0" y="582"/>
      <point x="424.0" y="524" type="curve" smooth="yes"/>
      <point x="424.0" y="460" type="line" smooth="yes"/>
      <point x="424.0" y="422"/>
      <point x="418.0" y="380"/>
      <point x="358.0" y="367" type="curve"/>
      <point x="374.0" y="367" type="line" smooth="yes"/>
      <point x="457.0" y="367"/>
      <point x="490.0" y="329"/>
      <point x="490.0" y="259" type="curve" smooth="yes"/>
      <point x="490.0" y="190" type="line" smooth="yes"/>
      <point x="490.0" y="131"/>
      <point x="471.0" y="90"/>
      <point x="359.0" y="90" type="curve" smooth="yes"/>
      <point x="139.0" y="90" type="line"/>
      <point x="139.0" y="100" type="line"/>
      <point x="359.0" y="100" type="line" smooth="yes"/>
      <point x="459.0" y="100"/>
      <point x="480.0" y="135"/>
      <point x="480.0" y="190" type="curve" smooth="yes"/>
      <point x="480.0" y="259" type="line" smooth="yes"/>
      <point x="480.0" y="326"/>
      <point x="449.0" y="359"/>
      <point x="372.0" y="359" type="curve" smooth="yes"/>
    </contour>
  </outline>
</glyph>
<glyph name="four" format="1">
  <advance width="709"/>
  <unicode hex="0034"/>
  <outline>
    <contour>
      <point x="414.0" y="167" type="line"/>
      <point x="414.0" y="36" type="line" smooth="yes"/>
      <point x="414.0" y="11"/>
      <point x="425.0" y="0"/>
      <point x="450.0" y="0" type="curve" smooth="yes"/>
      <point x="604.0" y="0" type="line" smooth="yes"/>
      <point x="629.0" y="0"/>
      <point x="640.0" y="11"/>
      <point x="640.0" y="36" type="curve" smooth="yes"/>
      <point x="640.0" y="684" type="line" smooth="yes"/>
      <point x="640.0" y="709"/>
      <point x="629.0" y="720"/>
      <point x="604.0" y="720" type="curve" smooth="yes"/>
      <point x="450.0" y="720" type="line" smooth="yes"/>
      <point x="425.0" y="720"/>
      <point x="414.0" y="709"/>
      <point x="414.0" y="684" type="curve" smooth="yes"/>
      <point x="414.0" y="376" type="line"/>
      <point x="321.0" y="376" type="line" smooth="yes"/>
      <point x="302.0" y="376"/>
      <point x="290.0" y="389"/>
      <point x="290.0" y="410" type="curve" smooth="yes"/>
      <point x="290.0" y="684" type="line" smooth="yes"/>
      <point x="290.0" y="709"/>
      <point x="279.0" y="720"/>
      <point x="254.0" y="720" type="curve" smooth="yes"/>
      <point x="99.0" y="720" type="line" smooth="yes"/>
      <point x="74.0" y="720"/>
      <point x="63.0" y="709"/>
      <point x="63.0" y="684" type="curve" smooth="yes"/>
      <point x="63.0" y="333" type="line" smooth="yes"/>
      <point x="63.0" y="219"/>
      <point x="115.0" y="167"/>
      <point x="245.0" y="167" type="curve" smooth="yes"/>
    </contour>
    <contour>
      <point x="522.0" y="90" type="line"/>
      <point x="522.0" y="267" type="line"/>
      <point x="283.0" y="267" type="line" smooth="yes"/>
      <point x="206.0" y="267"/>
      <point x="172.0" y="302"/>
      <point x="172.0" y="372" type="curve" smooth="yes"/>
      <point x="172.0" y="630" type="line"/>
      <point x="182.0" y="630" type="line"/>
      <point x="182.0" y="372" type="line" smooth="yes"/>
      <point x="182.0" y="308"/>
      <point x="214.0" y="277"/>
      <point x="283.0" y="277" type="curve" smooth="yes"/>
      <point x="522.0" y="277" type="line"/>
      <point x="522.0" y="630" type="line"/>
      <point x="532.0" y="630" type="line"/>
      <point x="532.0" y="90" type="line"/>
    </contour>
  </outline>
</glyph>
<glyph name="seven" format="1">
  <advance width="627"/>
  <unicode hex="0037"/>
  <outline>
    <contour>
      <point x="539.0" y="720" type="curve"/>
      <point x="74.0" y="720" type="line" smooth="yes"/>
      <point x="49.0" y="720"/>
      <point x="38.0" y="709"/>
      <point x="38.0" y="684" type="curve" smooth="yes"/>
      <point x="38.0" y="563" type="line" smooth="yes"/>
      <point x="38.0" y="538"/>
      <point x="49.0" y="527"/>
      <point x="74.0" y="527" type="curve" smooth="yes"/>
      <point x="348.0" y="527" type="line"/>
      <point x="348.0" y="437" type="line"/>
      <point x="267.0" y="415" type="line" smooth="yes"/>
      <point x="160.0" y="383"/>
      <point x="111.0" y="344"/>
      <point x="111.0" y="217" type="curve" smooth="yes"/>
      <point x="111.0" y="36" type="line" smooth="yes"/>
      <point x="111.0" y="11"/>
      <point x="122.0" y="0"/>
      <point x="147.0" y="0" type="curve" smooth="yes"/>
      <point x="309.0" y="0" type="line" smooth="yes"/>
      <point x="334.0" y="0"/>
      <point x="345.0" y="11"/>
      <point x="345.0" y="36" type="curve" smooth="yes"/>
      <point x="345.0" y="211" type="line"/>
      <point x="419.0" y="233" type="line" smooth="yes"/>
      <point x="526.0" y="265"/>
      <point x="575.0" y="304"/>
      <point x="575.0" y="431" type="curve" smooth="yes"/>
      <point x="575.0" y="684" type="line" smooth="yes"/>
      <point x="575.0" y="709"/>
      <point x="564.0" y="720"/>
    </contour>
    <contour>
      <point x="223.0" y="90" type="line"/>
      <point x="223.0" y="240" type="line" smooth="yes"/>
      <point x="223.0" y="271"/>
      <point x="237.0" y="287"/>
      <point x="258.0" y="296" type="curve" smooth="yes"/>
      <point x="428.0" y="364" type="line" smooth="yes"/>
      <point x="448.0" y="372"/>
      <point x="457.0" y="385"/>
      <point x="457.0" y="410" type="curve" smooth="yes"/>
      <point x="457.0" y="620" type="line"/>
      <point x="128.0" y="620" type="line"/>
      <point x="128.0" y="630" type="line"/>
      <point x="467.0" y="630" type="line"/>
      <point x="467.0" y="410" type="line" smooth="yes"/>
      <point x="467.0" y="379"/>
      <point x="456.0" y="364"/>
      <point x="432.0" y="354" type="curve" smooth="yes"/>
      <point x="262.0" y="286" type="line" smooth="yes"/>
      <point x="245.0" y="279"/>
      <point x="233.0" y="265"/>
      <point x="233.0" y="240" type="curve" smooth="yes"/>
      <point x="233.0" y="90" type="line"/>
    </contour>
  </outline>
</glyph>
<glyph name="F" format="1">
  <advance width="618"/>
  <unicode hex="0046"/>
  <outline>
    <contour>
      <point x="260.0" y="0" type="line" smooth="yes"/>
      <point x="285.0" y="0"/>
      <point x="296.0" y="11"/>
      <point x="296.0" y="36" type="curve" smooth="yes"/>
      <point x="296.0" y="233" type="line"/>
      <point x="470.0" y="233" type="line" smooth="yes"/>
      <point x="495.0" y="233"/>
      <point x="506.0" y="244"/>
      <point x="506.0" y="269" type="curve" smooth="yes"/>
      <point x="506.0" y="389" type="line" smooth="yes"/>
      <point x="506.0" y="414"/>
      <point x="495.0" y="425"/>
      <point x="470.0" y="425" type="curve" smooth="yes"/>
      <point x="296.0" y="425" type="line"/>
      <point x="296.0" y="529" type="line"/>
      <point x="551.0" y="529" type="line" smooth="yes"/>
      <point x="576.0" y="529"/>
      <point x="587.0" y="540"/>
      <point x="587.0" y="565" type="curve" smooth="yes"/>
      <point x="587.0" y="684" type="line" smooth="yes"/>
      <point x="587.0" y="709"/>
      <point x="576.0" y="720"/>
      <point x="551.0" y="720" type="curve" smooth="yes"/>
      <point x="105.0" y="720" type="line" smooth="yes"/>
      <point x="80.0" y="720"/>
      <point x="69.0" y="709"/>
      <point x="69.0" y="684" type="curve" smooth="yes"/>
      <point x="69.0" y="36" type="line" smooth="yes"/>
      <point x="69.0" y="11"/>
      <point x="80.0" y="0"/>
      <point x="105.0" y="0" type="curve" smooth="yes"/>
    </contour>
    <contour>
      <point x="178.0" y="90" type="line"/>
      <point x="178.0" y="630" type="line"/>
      <point x="497.0" y="630" type="line"/>
      <point x="497.0" y="620" type="line"/>
      <point x="188.0" y="620" type="line"/>
      <point x="188.0" y="334" type="line"/>
      <point x="416.0" y="334" type="line"/>
      <point x="416.0" y="324" type="line"/>
      <point x="188.0" y="324" type="line"/>
      <point x="188.0" y="90" type="line"/>
    </contour>
  </outline>
</glyph>
<glyph name="I" format="1">
  <advance width="605"/>
  <unicode hex="0049"/>
  <outline>
    <contour>
      <point x="89.0" y="0" type="curve" smooth="yes"/>
      <point x="515.0" y="0" type="line" smooth="yes"/>
      <point x="540.0" y="0"/>
      <point x="551.0" y="11"/>
      <point x="551.0" y="36" type="curve" smooth="yes"/>
      <point x="551.0" y="155" type="line" smooth="yes"/>
      <point x="551.0" y="180"/>
      <point x="540.0" y="191"/>
      <point x="515.0" y="191" type="curve" smooth="yes"/>
      <point x="418.0" y="191" type="line"/>
      <point x="418.0" y="527" type="line"/>
      <point x="515.0" y="527" type="line" smooth="yes"/>
      <point x="540.0" y="527"/>
      <point x="551.0" y="538"/>
      <point x="551.0" y="563" type="curve" smooth="yes"/>
      <point x="551.0" y="684" type="line" smooth="yes"/>
      <point x="551.0" y="709"/>
      <point x="540.0" y="720"/>
      <point x="515.0" y="720" type="curve" smooth="yes"/>
      <point x="89.0" y="720" type="line" smooth="yes"/>
      <point x="64.0" y="720"/>
      <point x="53.0" y="709"/>
      <point x="53.0" y="684" type="curve" smooth="yes"/>
      <point x="53.0" y="563" type="line" smooth="yes"/>
      <point x="53.0" y="538"/>
      <point x="64.0" y="527"/>
      <point x="89.0" y="527" type="curve" smooth="yes"/>
      <point x="188.0" y="527" type="line"/>
      <point x="188.0" y="191" type="line"/>
      <point x="89.0" y="191" type="line" smooth="yes"/>
      <point x="64.0" y="191"/>
      <point x="53.0" y="180"/>
      <point x="53.0" y="155" type="curve" smooth="yes"/>
      <point x="53.0" y="36" type="line" smooth="yes"/>
      <point x="53.0" y="11"/>
      <point x="64.0" y="0"/>
    </contour>
    <contour>
      <point x="461.0" y="90" type="line"/>
      <point x="143.0" y="90" type="line"/>
      <point x="143.0" y="100" type="line"/>
      <point x="298.0" y="100" type="line"/>
      <point x="298.0" y="620" type="line"/>
      <point x="143.0" y="620" type="line"/>
      <point x="143.0" y="630" type="line"/>
      <point x="461.0" y="630" type="line"/>
      <point x="461.0" y="620" type="line"/>
      <point x="308.0" y="620" type="line"/>
      <point x="308.0" y="100" type="line"/>
      <point x="461.0" y="100" type="line"/>
    </contour>
  </outline>
</glyph>
<glyph name="N" format="1">
  <advance width="753"/>
  <unicode hex="004E"/>
  <outline>
    <contour>
      <point x="255.0" y="0" type="line" smooth="yes"/>
      <point x="280.0" y="0"/>
      <point x="291.0" y="11"/>
      <point x="291.0" y="36" type="curve" smooth="yes"/>
      <point x="291.0" y="366" type="line"/>
      <point x="462.0" y="159" type="line"/>
      <point x="462.0" y="36" type="line" smooth="yes"/>
      <point x="462.0" y="11"/>
      <point x="473.0" y="0"/>
      <point x="498.0" y="0" type="curve" smooth="yes"/>
      <point x="648.0" y="0" type="line" smooth="yes"/>
      <point x="673.0" y="0"/>
      <point x="684.0" y="11"/>
      <point x="684.0" y="36" type="curve" smooth="yes"/>
      <point x="684.0" y="684" type="line" smooth="yes"/>
      <point x="684.0" y="709"/>
      <point x="673.0" y="720"/>
      <point x="648.0" y="720" type="curve" smooth="yes"/>
      <point x="498.0" y="720" type="line" smooth="yes"/>
      <point x="473.0" y="720"/>
      <point x="462.0" y="709"/>
      <point x="462.0" y="684" type="curve" smooth="yes"/>
      <point x="462.0" y="471" type="line"/>
      <point x="268.0" y="693" type="line" smooth="yes"/>
      <point x="251.0" y="713"/>
      <point x="235.0" y="720"/>
      <point x="209.0" y="720" type="curve" smooth="yes"/>
      <point x="105.0" y="720" type="line" smooth="yes"/>
      <point x="80.0" y="720"/>
      <point x="69.0" y="709"/>
      <point x="69.0" y="684" type="curve" smooth="yes"/>
      <point x="69.0" y="36" type="line" smooth="yes"/>
      <point x="69.0" y="11"/>
      <point x="80.0" y="0"/>
      <point x="105.0" y="0" type="curve" smooth="yes"/>
    </contour>
    <contour>
      <point x="201.0" y="622" type="curve"/>
      <point x="569.0" y="208" type="line"/>
      <point x="569.0" y="630" type="line"/>
      <point x="579.0" y="630" type="line"/>
      <point x="579.0" y="90" type="line"/>
      <point x="569.0" y="90" type="line"/>
      <point x="569.0" y="193" type="line"/>
      <point x="191.0" y="617" type="line" smooth="yes"/>
      <point x="189.0" y="619"/>
      <point x="188.0" y="620"/>
      <point x="186.0" y="620" type="curve" smooth="yes"/>
      <point x="184.0" y="620"/>
      <point x="184.0" y="618"/>
      <point x="184.0" y="617" type="curve" smooth="yes"/>
      <point x="184.0" y="90" type="line"/>
      <point x="174.0" y="90" type="line"/>
      <point x="174.0" y="619" type="line" smooth="yes"/>
      <point x="174.0" y="627"/>
      <point x="180.0" y="631"/>
      <point x="186.0" y="631" type="curve" smooth="yes"/>
      <point x="192.0" y="631"/>
      <point x="194.0" y="629"/>
    </contour>
  </outline>
</glyph>
<glyph name="Y" format="1">
  <advance width="705"/>
  <unicode hex="0059"/>
  <outline>
    <contour>
      <point x="434.0" y="0" type="line" smooth="yes"/>
      <point x="459.0" y="0"/>
      <point x="470.0" y="11"/>
      <point x="470.0" y="36" type="curve" smooth="yes"/>
      <point x="470.0" y="163" type="line"/>
      <point x="622.0" y="369" type="line" smooth="yes"/>
      <point x="652.0" y="410"/>
      <point x="660.0" y="430"/>
      <point x="660.0" y="492" type="curve" smooth="yes"/>
      <point x="660.0" y="684" type="line" smooth="yes"/>
      <point x="660.0" y="709"/>
      <point x="649.0" y="720"/>
      <point x="624.0" y="720" type="curve" smooth="yes"/>
      <point x="475.0" y="720" type="line" smooth="yes"/>
      <point x="450.0" y="720"/>
      <point x="439.0" y="709"/>
      <point x="439.0" y="684" type="curve" smooth="yes"/>
      <point x="439.0" y="520" type="line" smooth="yes"/>
      <point x="439.0" y="506"/>
      <point x="439.0" y="492"/>
      <point x="430.0" y="478" type="curve" smooth="yes"/>
      <point x="384.0" y="406" type="line" smooth="yes"/>
      <point x="377.0" y="394"/>
      <point x="371.0" y="389"/>
      <point x="360.0" y="389" type="curve"/>
      <point x="350.0" y="389" type="line" smooth="yes"/>
      <point x="339.0" y="389"/>
      <point x="333.0" y="394"/>
      <point x="326.0" y="406" type="curve" smooth="yes"/>
      <point x="280.0" y="478" type="line" smooth="yes"/>
      <point x="271.0" y="492"/>
      <point x="271.0" y="506"/>
      <point x="271.0" y="520" type="curve" smooth="yes"/>
      <point x="271.0" y="684" type="line" smooth="yes"/>
      <point x="271.0" y="709"/>
      <point x="260.0" y="720"/>
      <point x="235.0" y="720" type="curve" smooth="yes"/>
      <point x="81.0" y="720" type="line" smooth="yes"/>
      <point x="56.0" y="720"/>
      <point x="45.0" y="709"/>
      <point x="45.0" y="684" type="curve" smooth="yes"/>
      <point x="45.0" y="492" type="line" smooth="yes"/>
      <point x="45.0" y="430"/>
      <point x="52.0" y="410"/>
      <point x="83.0" y="369" type="curve" smooth="yes"/>
      <point x="236.0" y="164" type="line"/>
      <point x="236.0" y="36" type="line" smooth="yes"/>
      <point x="236.0" y="11"/>
      <point x="246.0" y="0"/>
      <point x="272.0" y="0" type="curve" smooth="yes"/>
    </contour>
    <contour>
      <point x="365.0" y="261" type="curve" smooth="yes"/>
      <point x="358.0" y="261" type="line"/>
      <point x="358.0" y="90" type="line"/>
      <point x="348.0" y="90" type="line"/>
      <point x="348.0" y="261" type="line"/>
      <point x="338.0" y="261" type="line" smooth="yes"/>
      <point x="309.0" y="261"/>
      <point x="287.0" y="273"/>
      <point x="265.0" y="303" type="curve" smooth="yes"/>
      <point x="168.0" y="438" type="line" smooth="yes"/>
      <point x="153.0" y="458"/>
      <point x="153.0" y="486"/>
      <point x="153.0" y="515" type="curve" smooth="yes"/>
      <point x="153.0" y="630" type="line"/>
      <point x="163.0" y="630" type="line"/>
      <point x="163.0" y="515" type="line" smooth="yes"/>
      <point x="163.0" y="487"/>
      <point x="164.0" y="462"/>
      <point x="177.0" y="442" type="curve"/>
      <point x="274.0" y="307" type="line"/>
      <point x="292.0" y="280"/>
      <point x="315.0" y="271"/>
      <point x="338.0" y="271" type="curve" smooth="yes"/>
      <point x="365.0" y="271" type="line" smooth="yes"/>
      <point x="390.0" y="271"/>
      <point x="410.0" y="281"/>
      <point x="430.0" y="307" type="curve" smooth="yes"/>
      <point x="530.0" y="442" type="line" smooth="yes"/>
      <point x="544.0" y="460"/>
      <point x="544.0" y="487"/>
      <point x="544.0" y="515" type="curve" smooth="yes"/>
      <point x="544.0" y="630" type="line"/>
      <point x="554.0" y="630" type="line"/>
      <point x="554.0" y="515" type="line" smooth="yes"/>
      <point x="554.0" y="486"/>
      <point x="555.0" y="459"/>
      <point x="539.0" y="438" type="curve" smooth="yes"/>
      <point x="439.0" y="303" type="line" smooth="yes"/>
      <point x="417.0" y="274"/>
      <point x="396.0" y="261"/>
    </contour>
    <contour>
      <point x="352.0" y="747.0" type="move" name="top"/>
    </contour>
    <contour>
      <point x="352.0" y="0.0" type="move" name="bottom"/>
    </contour>
  </outline>
</glyph>
<glyph name="grave" format="1">
  <advance width="500"/>
  <unicode hex="0060"/>
  <outline>
    <contour>
      <point x="425.0" y="753" type="line" smooth="yes"/>
      <point x="448.0" y="750"/>
      <point x="459.0" y="763"/>
      <point x="459.0" y="786" type="curve" smooth="yes"/>
      <point x="459.0" y="882" type="line" smooth="yes"/>
      <point x="459.0" y="907"/>
      <point x="448.0" y="915"/>
      <point x="423.0" y="918" type="curve" smooth="yes"/>
      <point x="74.0" y="961" type="line" smooth="yes"/>
      <point x="51.0" y="964"/>
      <point x="40.0" y="951"/>
      <point x="40.0" y="928" type="curve" smooth="yes"/>
      <point x="40.0" y="832" type="line" smooth="yes"/>
      <point x="40.0" y="807"/>
      <point x="51.0" y="799"/>
      <point x="76.0" y="796" type="curve" smooth="yes"/>
    </contour>
    <contour>
      <point x="130.0" y="867" type="line"/>
      <point x="130.0" y="877" type="line"/>
      <point x="369.0" y="847" type="line"/>
      <point x="369.0" y="837" type="line"/>
    </contour>
    <contour>
      <point x="250.0" y="747.0" type="move" name="_top"/>
    </contour>
    <contour>
      <point x="250.0" y="0.0" type="move" name="_bottom"/>
    </contour>
  </outline>
</glyph>
<glyph name="asciitilde" format="1">
  <advance width="734"/>
  <unicode hex="007E"/>
  <outline>
    <contour>
      <point x="367.0" y="277" type="line"/>
      <point x="390.0" y="274" type="line" smooth="yes"/>
      <point x="503.0" y="257"/>
      <point x="524.0" y="250"/>
      <point x="627.0" y="286" type="curve" smooth="yes"/>
      <point x="645.0" y="293"/>
      <point x="664.0" y="304"/>
      <point x="664.0" y="339" type="curve" smooth="yes"/>
      <point x="664.0" y="438" type="line" smooth="yes"/>
      <point x="664.0" y="468"/>
      <point x="647.0" y="479"/>
      <point x="612.0" y="469" type="curve" smooth="yes"/>
      <point x="529.0" y="444"/>
      <point x="523.0" y="440"/>
      <point x="398.0" y="458" type="curve" smooth="yes"/>
      <point x="367.0" y="462" type="line"/>
      <point x="343.0" y="465" type="line" smooth="yes"/>
      <point x="229.0" y="482"/>
      <point x="210.0" y="489"/>
      <point x="107.0" y="453" type="curve" smooth="yes"/>
      <point x="87.0" y="446"/>
      <point x="70.0" y="435"/>
      <point x="70.0" y="400" type="curve" smooth="yes"/>
      <point x="70.0" y="294" type="line" smooth="yes"/>
      <point x="70.0" y="271"/>
      <point x="87.0" y="260"/>
      <point x="121.0" y="269" type="curve"/>
      <point x="196.0" y="292"/>
      <point x="219.0" y="298"/>
      <point x="327.0" y="282" type="curve"/>
    </contour>
    <contour>
      <point x="160.0" y="368" type="curve"/>
      <point x="160.0" y="379" type="line"/>
      <point x="208.0" y="392"/>
      <point x="241.0" y="393"/>
      <point x="328.0" y="380" type="curve" smooth="yes"/>
      <point x="368.0" y="375" type="line"/>
      <point x="391.0" y="372" type="line" smooth="yes"/>
      <point x="481.0" y="358"/>
      <point x="513.0" y="351"/>
      <point x="574.0" y="368" type="curve"/>
      <point x="574.0" y="357" type="line"/>
      <point x="513.0" y="341"/>
      <point x="479.0" y="349"/>
      <point x="389.0" y="362" type="curve" smooth="yes"/>
      <point x="366.0" y="365" type="line"/>
      <point x="326.0" y="370" type="line" smooth="yes"/>
      <point x="240.0" y="383"/>
      <point x="209.0" y="381"/>
    </contour>
  </outline>
</glyph>
<glyph name="sterling" format="1">
  <advance width="695"/>
  <unicode hex="00A3"/>
  <outline>
    <contour>
      <point x="650.0" y="36" type="curve" smooth="yes"/>
      <point x="650.0" y="291" type="line" smooth="yes"/>
      <point x="650.0" y="316"/>
      <point x="639.0" y="327"/>
      <point x="614.0" y="327" type="curve" smooth="yes"/>
      <point x="469.0" y="327" type="line" smooth="yes"/>
      <point x="444.0" y="327"/>
      <point x="433.0" y="316"/>
      <point x="433.0" y="291" type="curve" smooth="yes"/>
      <point x="433.0" y="189" type="line"/>
      <point x="296.0" y="189" type="line"/>
      <point x="296.0" y="265" type="line"/>
      <point x="344.0" y="265" type="line" smooth="yes"/>
      <point x="369.0" y="265"/>
      <point x="380.0" y="275"/>
      <point x="380.0" y="301" type="curve" smooth="yes"/>
      <point x="380.0" y="408" type="line" smooth="yes"/>
      <point x="380.0" y="434"/>
      <point x="369.0" y="444"/>
      <point x="344.0" y="444" type="curve" smooth="yes"/>
      <point x="296.0" y="444" type="line"/>
      <point x="296.0" y="477" type="line" smooth="yes"/>
      <point x="296.0" y="503"/>
      <point x="305.0" y="527"/>
      <point x="357.0" y="527" type="curve" smooth="yes"/>
      <point x="505.0" y="527" type="line" smooth="yes"/>
      <point x="530.0" y="527"/>
      <point x="541.0" y="538"/>
      <point x="541.0" y="563" type="curve" smooth="yes"/>
      <point x="541.0" y="684" type="line" smooth="yes"/>
      <point x="541.0" y="709"/>
      <point x="530.0" y="720"/>
      <point x="505.0" y="720" type="curve" smooth="yes"/>
      <point x="315.0" y="720" type="line" smooth="yes"/>
      <point x="126.0" y="720"/>
      <point x="69.0" y="637"/>
      <point x="69.0" y="516" type="curve"/>
      <point x="69.0" y="444" type="line"/>
      <point x="56.0" y="444" type="line" smooth="yes"/>
      <point x="31.0" y="444"/>
      <point x="20.0" y="433"/>
      <point x="20.0" y="408" type="curve" smooth="yes"/>
      <point x="20.0" y="301" type="line" smooth="yes"/>
      <point x="20.0" y="275"/>
      <point x="31.0" y="265"/>
      <point x="56.0" y="265" type="curve"/>
      <point x="69.0" y="265" type="line"/>
      <point x="69.0" y="36" type="line"/>
      <point x="69.0" y="11"/>
      <point x="80.0" y="0"/>
      <point x="105.0" y="0" type="curve" smooth="yes"/>
      <point x="614.0" y="0" type="line" smooth="yes"/>
      <point x="639.0" y="0"/>
      <point x="650.0" y="11"/>
    </contour>
    <contour>
      <point x="546.0" y="237" type="line"/>
      <point x="546.0" y="90" type="line"/>
      <point x="178.0" y="90" type="line"/>
      <point x="178.0" y="349" type="line"/>
      <point x="110.0" y="349" type="line"/>
      <point x="110.0" y="359" type="line"/>
      <point x="178.0" y="359" type="line"/>
      <point x="178.0" y="516" type="line" smooth="yes"/>
      <point x="178.0" y="603"/>
      <point x="229.0" y="630"/>
      <point x="315.0" y="630" type="curve" smooth="yes"/>
      <point x="451.0" y="630" type="line"/>
      <point x="451.0" y="620" type="line"/>
      <point x="315.0" y="620" type="line" smooth="yes"/>
      <point x="237.0" y="620"/>
      <point x="188.0" y="597"/>
      <point x="188.0" y="516" type="curve" smooth="yes"/>
      <point x="188.0" y="359" type="line"/>
      <point x="290.0" y="359" type="line"/>
      <point x="290.0" y="349" type="line"/>
      <point x="188.0" y="349" type="line"/>
      <point x="188.0" y="100" type="line"/>
      <point x="536.0" y="100" type="line"/>
      <point x="536.0" y="237" type="line"/>
    </contour>
  </outline>
</glyph>
<glyph name="yen" format="1">
  <advance width="703"/>
  <unicode hex="00A5"/>
  <outline>
    <contour>
      <point x="464.0" y="36" type="curve" smooth="yes"/>
      <point x="464.0" y="130" type="line"/>
      <point x="573.0" y="130" type="line" smooth="yes"/>
      <point x="598.0" y="130"/>
      <point x="609.0" y="140"/>
      <point x="609.0" y="166" type="curve" smooth="yes"/>
      <point x="609.0" y="263" type="line" smooth="yes"/>
      <point x="609.0" y="289"/>
      <point x="598.0" y="299"/>
      <point x="573.0" y="299" type="curve" smooth="yes"/>
      <point x="520.0" y="299" type="line"/>
      <point x="630.0" y="441" type="line" smooth="yes"/>
      <point x="658.0" y="479"/>
      <point x="659.0" y="520"/>
      <point x="659.0" y="571" type="curve"/>
      <point x="659.0" y="684" type="line" smooth="yes"/>
      <point x="659.0" y="709"/>
      <point x="648.0" y="720"/>
      <point x="623.0" y="720" type="curve" smooth="yes"/>
      <point x="476.0" y="720" type="line" smooth="yes"/>
      <point x="450.0" y="720"/>
      <point x="440.0" y="709"/>
      <point x="440.0" y="684" type="curve" smooth="yes"/>
      <point x="440.0" y="539" type="line" smooth="yes"/>
      <point x="440.0" y="525"/>
      <point x="441.0" y="512"/>
      <point x="432.0" y="498" type="curve" smooth="yes"/>
      <point x="389.0" y="434" type="line" smooth="yes"/>
      <point x="381.0" y="422"/>
      <point x="374.0" y="417"/>
      <point x="363.0" y="417" type="curve" smooth="yes"/>
      <point x="351.0" y="417" type="line" smooth="yes"/>
      <point x="340.0" y="417"/>
      <point x="333.0" y="423"/>
      <point x="325.0" y="434" type="curve" smooth="yes"/>
      <point x="279.0" y="499" type="line" smooth="yes"/>
      <point x="272.0" y="514"/>
      <point x="271.0" y="526"/>
      <point x="271.0" y="540" type="curve" smooth="yes"/>
      <point x="271.0" y="684" type="line" smooth="yes"/>
      <point x="271.0" y="709"/>
      <point x="260.0" y="720"/>
      <point x="235.0" y="720" type="curve" smooth="yes"/>
      <point x="80.0" y="720" type="line" smooth="yes"/>
      <point x="55.0" y="720"/>
      <point x="44.0" y="709"/>
      <point x="44.0" y="684" type="curve" smooth="yes"/>
      <point x="44.0" y="572" type="line" smooth="yes"/>
      <point x="44.0" y="521"/>
      <point x="44.0" y="480"/>
      <point x="73.0" y="442" type="curve" smooth="yes"/>
      <point x="184.0" y="299" type="line"/>
      <point x="131.0" y="299" type="line" smooth="yes"/>
      <point x="106.0" y="299"/>
      <point x="95.0" y="288"/>
      <point x="95.0" y="263" type="curve" smooth="yes"/>
      <point x="95.0" y="166" type="line" smooth="yes"/>
      <point x="95.0" y="140"/>
      <point x="106.0" y="130"/>
      <point x="131.0" y="130" type="curve"/>
      <point x="240.0" y="130" type="line"/>
      <point x="240.0" y="36" type="line" smooth="yes"/>
      <point x="240.0" y="11"/>
      <point x="250.0" y="0"/>
      <point x="276.0" y="0" type="curve" smooth="yes"/>
      <point x="428.0" y="0" type="line" smooth="yes"/>
      <point x="453.0" y="0"/>
      <point x="464.0" y="11"/>
    </contour>
    <contour>
      <point x="519.0" y="209" type="line"/>
      <point x="358.0" y="209" type="line"/>
      <point x="358.0" y="90" type="line"/>
      <point x="348.0" y="90" type="line"/>
      <point x="348.0" y="209" type="line"/>
      <point x="185.0" y="209" type="line"/>
      <point x="185.0" y="219" type="line"/>
      <point x="348.0" y="219" type="line"/>
      <point x="348.0" y="309" type="line"/>
      <point x="330.0" y="309" type="line" smooth="yes"/>
      <point x="301.0" y="309"/>
      <point x="283.0" y="318"/>
      <point x="261.0" y="348" type="curve" smooth="yes"/>
      <point x="175.0" y="463" type="line" smooth="yes"/>
      <point x="157.0" y="493"/>
      <point x="153.0" y="515"/>
      <point x="153.0" y="560" type="curve" smooth="yes"/>
      <point x="153.0" y="630" type="line"/>
      <point x="163.0" y="630" type="line"/>
      <point x="163.0" y="560" type="line" smooth="yes"/>
      <point x="163.0" y="517"/>
      <point x="167.0" y="497"/>
      <point x="183.0" y="469" type="curve"/>
      <point x="269.0" y="354" type="line" smooth="yes"/>
      <point x="289.0" y="328"/>
      <point x="305.0" y="319"/>
      <point x="330.0" y="319" type="curve" smooth="yes"/>
      <point x="377.0" y="319" type="line" smooth="yes"/>
      <point x="402.0" y="319"/>
      <point x="418.0" y="328"/>
      <point x="438.0" y="354" type="curve" smooth="yes"/>
      <point x="524.0" y="469" type="line"/>
      <point x="540.0" y="497"/>
      <point x="544.0" y="517"/>
      <point x="544.0" y="560" type="curve" smooth="yes"/>
      <point x="544.0" y="630" type="line"/>
      <point x="554.0" y="630" type="line"/>
      <point x="554.0" y="560" type="line" smooth="yes"/>
      <point x="554.0" y="515"/>
      <point x="550.0" y="493"/>
      <point x="532.0" y="463" type="curve"/>
      <point x="446.0" y="348" type="line" smooth="yes"/>
      <point x="424.0" y="318"/>
      <point x="406.0" y="309"/>
      <point x="377.0" y="309" type="curve" smooth="yes"/>
      <point x="358.0" y="309" type="line"/>
      <point x="358.0" y="219" type="line"/>
      <point x="519.0" y="219" type="line"/>
    </contour>
  </outline>
</glyph>
<glyph name="section" format="1">
  <advance width="650"/>
  <unicode hex="00A7"/>
  <outline>
    <contour>
      <point x="364.0" y="0" type="line" smooth="yes"/>
      <point x="553.0" y="0"/>
      <point x="610.0" y="83"/>
      <point x="610.0" y="205" type="curve" smooth="yes"/>
      <point x="610.0" y="311" type="line" smooth="yes"/>
      <point x="610.0" y="432"/>
      <point x="553.0" y="515"/>
      <point x="364.0" y="515" type="curve" smooth="yes"/>
      <point x="270.0" y="515" type="line"/>
      <point x="270.0" y="517" type="line" smooth="yes"/>
      <point x="270.0" y="543"/>
      <point x="279.0" y="567"/>
      <point x="331.0" y="567" type="curve" smooth="yes"/>
      <point x="538.0" y="567" type="line" smooth="yes"/>
      <point x="563.0" y="567"/>
      <point x="574.0" y="578"/>
      <point x="574.0" y="603" type="curve" smooth="yes"/>
      <point x="574.0" y="684" type="line" smooth="yes"/>
      <point x="574.0" y="709"/>
      <point x="563.0" y="720"/>
      <point x="538.0" y="720" type="curve" smooth="yes"/>
      <point x="298.0" y="720" type="line" smooth="yes"/>
      <point x="109.0" y="720"/>
      <point x="52.0" y="637"/>
      <point x="52.0" y="515" type="curve" smooth="yes"/>
      <point x="52.0" y="409" type="line" smooth="yes"/>
      <point x="52.0" y="288"/>
      <point x="109.0" y="205"/>
      <point x="298.0" y="205" type="curve" smooth="yes"/>
      <point x="392.0" y="205" type="line"/>
      <point x="392.0" y="203" type="line" smooth="yes"/>
      <point x="392.0" y="177"/>
      <point x="383.0" y="153"/>
      <point x="331.0" y="153" type="curve" smooth="yes"/>
      <point x="98.0" y="153" type="line" smooth="yes"/>
      <point x="73.0" y="153"/>
      <point x="62.0" y="142"/>
      <point x="62.0" y="117" type="curve" smooth="yes"/>
      <point x="62.0" y="36" type="line" smooth="yes"/>
      <point x="62.0" y="11"/>
      <point x="73.0" y="0"/>
      <point x="98.0" y="0" type="curve" smooth="yes"/>
    </contour>
    <contour>
      <point x="331.0" y="326" type="line" smooth="yes"/>
      <point x="279.0" y="326"/>
      <point x="270.0" y="346"/>
      <point x="270.0" y="374" type="curve" smooth="yes"/>
      <point x="270.0" y="394" type="line"/>
      <point x="331.0" y="394" type="line" smooth="yes"/>
      <point x="383.0" y="394"/>
      <point x="392.0" y="374"/>
      <point x="392.0" y="346" type="curve" smooth="yes"/>
      <point x="392.0" y="326" type="line"/>
    </contour>
    <contour>
      <point x="151.0" y="72" type="line"/>
      <point x="151.0" y="82" type="line"/>
      <point x="362.0" y="82" type="line" smooth="yes"/>
      <point x="468.0" y="82"/>
      <point x="510.0" y="110"/>
      <point x="510.0" y="201" type="curve" smooth="yes"/>
      <point x="510.0" y="260" type="line"/>
      <point x="307.0" y="260" type="line" smooth="yes"/>
      <point x="200.0" y="260"/>
      <point x="156.0" y="318"/>
      <point x="156.0" y="393" type="curve" smooth="yes"/>
      <point x="156.0" y="519" type="line" smooth="yes"/>
      <point x="156.0" y="616"/>
      <point x="200.0" y="648"/>
      <point x="314.0" y="648" type="curve" smooth="yes"/>
      <point x="485.0" y="648" type="line"/>
      <point x="485.0" y="638" type="line"/>
      <point x="314.0" y="638" type="line" smooth="yes"/>
      <point x="208.0" y="638"/>
      <point x="166.0" y="610"/>
      <point x="166.0" y="519" type="curve" smooth="yes"/>
      <point x="166.0" y="460" type="line"/>
      <point x="369.0" y="460" type="line" smooth="yes"/>
      <point x="476.0" y="460"/>
      <point x="520.0" y="403"/>
      <point x="520.0" y="327" type="curve" smooth="yes"/>
      <point x="520.0" y="201" type="line" smooth="yes"/>
      <point x="520.0" y="104"/>
      <point x="476.0" y="72"/>
      <point x="362.0" y="72" type="curve" smooth="yes"/>
    </contour>
    <contour>
      <point x="307.0" y="270" type="curve" smooth="yes"/>
      <point x="510.0" y="270" type="line"/>
      <point x="510.0" y="327" type="line" smooth="yes"/>
      <point x="510.0" y="398"/>
      <point x="468.0" y="450"/>
      <point x="369.0" y="450" type="curve" smooth="yes"/>
      <point x="166.0" y="450" type="line"/>
      <point x="166.0" y="393" type="line" smooth="yes"/>
      <point x="166.0" y="323"/>
      <point x="208.0" y="270"/>
    </contour>
  </outline>
</glyph>
<glyph name="copyright" format="1">
  <advance width="867"/>
  <unicode hex="00A9"/>
  <outline>
    <contour>
      <point x="807.0" y="154" type="curve" smooth="yes"/>
      <point x="807.0" y="564" type="line" smooth="yes"/>
      <point x="807.0" y="711"/>
      <point x="735.0" y="811"/>
      <point x="434.0" y="811" type="curve" smooth="yes"/>
      <point x="134.0" y="811"/>
      <point x="60.0" y="711"/>
      <point x="60.0" y="564" type="curve" smooth="yes"/>
      <point x="60.0" y="154" type="line" smooth="yes"/>
      <point x="60.0" y="8"/>
      <point x="134.0" y="-91"/>
      <point x="434.0" y="-91" type="curve" smooth="yes"/>
      <point x="735.0" y="-91"/>
      <point x="807.0" y="8"/>
    </contour>
    <contour>
      <point x="707.0" y="150" type="line"/>
      <point x="707.0" y="64"/>
      <point x="654.0" y="5"/>
      <point x="434.0" y="5" type="curve" smooth="yes"/>
      <point x="214.0" y="5"/>
      <point x="160.0" y="64"/>
      <point x="160.0" y="150" type="curve"/>
      <point x="160.0" y="568" type="line"/>
      <point x="160.0" y="655"/>
      <point x="214.0" y="715"/>
      <point x="434.0" y="715" type="curve" smooth="yes"/>
      <point x="654.0" y="715"/>
      <point x="707.0" y="655"/>
      <point x="707.0" y="568" type="curve"/>
    </contour>
    <contour>
      <point x="589.0" y="110" type="line" smooth="yes"/>
      <point x="607.0" y="110"/>
      <point x="615.0" y="118"/>
      <point x="615.0" y="136" type="curve" smooth="yes"/>
      <point x="615.0" y="221" type="line" smooth="yes"/>
      <point x="615.0" y="239"/>
      <point x="607.0" y="247"/>
      <point x="589.0" y="247" type="curve" smooth="yes"/>
      <point x="445.0" y="247" type="line" smooth="yes"/>
      <point x="407.0" y="247"/>
      <point x="401.0" y="261"/>
      <point x="401.0" y="281" type="curve" smooth="yes"/>
      <point x="401.0" y="452" type="line" smooth="yes"/>
      <point x="401.0" y="470"/>
      <point x="407.0" y="488"/>
      <point x="445.0" y="488" type="curve" smooth="yes"/>
      <point x="589.0" y="488" type="line" smooth="yes"/>
      <point x="607.0" y="488"/>
      <point x="615.0" y="496"/>
      <point x="615.0" y="513" type="curve" smooth="yes"/>
      <point x="615.0" y="600" type="line" smooth="yes"/>
      <point x="615.0" y="618"/>
      <point x="607.0" y="626"/>
      <point x="589.0" y="626" type="curve" smooth="yes"/>
      <point x="414.0" y="626" type="line" smooth="yes"/>
      <point x="278.0" y="626"/>
      <point x="238.0" y="567"/>
      <point x="238.0" y="479" type="curve" smooth="yes"/>
      <point x="238.0" y="256" type="line" smooth="yes"/>
      <point x="238.0" y="169"/>
      <point x="278.0" y="110"/>
      <point x="414.0" y="110" type="curve" smooth="yes"/>
    </contour>
    <contour>
      <point x="762.0" y="568" type="curve" smooth="yes"/>
      <point x="762.0" y="150" type="line" smooth="yes"/>
      <point x="762.0" y="47"/>
      <point x="715.0" y="-48"/>
      <point x="434.0" y="-48" type="curve" smooth="yes"/>
      <point x="153.0" y="-48"/>
      <point x="105.0" y="37"/>
      <point x="105.0" y="150" type="curve" smooth="yes"/>
      <point x="105.0" y="568" type="line" smooth="yes"/>
      <point x="105.0" y="672"/>
      <point x="135.0" y="768"/>
      <point x="434.0" y="768" type="curve" smooth="yes"/>
      <point x="733.0" y="768"/>
      <point x="762.0" y="672"/>
    </contour>
    <contour>
      <point x="434.0" y="-38" type="curve" smooth="yes"/>
      <point x="699.0" y="-38"/>
      <point x="752.0" y="51"/>
      <point x="752.0" y="150" type="curve" smooth="yes"/>
      <point x="752.0" y="568" type="line" smooth="yes"/>
      <point x="752.0" y="668"/>
      <point x="719.0" y="758"/>
      <point x="434.0" y="758" type="curve" smooth="yes"/>
      <point x="149.0" y="758"/>
      <point x="115.0" y="668"/>
      <point x="115.0" y="568" type="curve" smooth="yes"/>
      <point x="115.0" y="150" type="line" smooth="yes"/>
      <point x="115.0" y="41"/>
      <point x="169.0" y="-38"/>
    </contour>
    <contour>
      <point x="551.0" y="173" type="line"/>
      <point x="430.0" y="173" type="line" smooth="yes"/>
      <point x="338.0" y="173"/>
      <point x="313.0" y="199"/>
      <point x="313.0" y="267" type="curve" smooth="yes"/>
      <point x="313.0" y="468" type="line" smooth="yes"/>
      <point x="313.0" y="537"/>
      <point x="340.0" y="562"/>
      <point x="430.0" y="562" type="curve" smooth="yes"/>
      <point x="551.0" y="562" type="line"/>
      <point x="551.0" y="553" type="line"/>
      <point x="430.0" y="553" type="line" smooth="yes"/>
      <point x="347.0" y="553"/>
      <point x="323.0" y="530"/>
      <point x="323.0" y="468" type="curve" smooth="yes"/>
      <point x="323.0" y="267" type="line" smooth="yes"/>
      <point x="323.0" y="206"/>
      <point x="346.0" y="183"/>
      <point x="430.0" y="183" type="curve" smooth="yes"/>
      <point x="551.0" y="183" type="line"/>
    </contour>
  </outline>
</glyph>
<glyph name="Ccedilla" format="1">
  <advance width="628"/>
  <unicode hex="00C7"/>
  <outline>
    <contour>
      <point x="435" y="-96" type="curve" smooth="yes"/>
      <point x="469" y="0" type="line"/>
      <point x="548" y="0" type="line" smooth="yes"/>
      <point x="573" y="0"/>
      <point x="584" y="11"/>
      <point x="584" y="36" type="curve" smooth="yes"/>
      <point x="584" y="155" type="line" smooth="yes"/>
      <point x="584" y="180"/>
      <point x="573" y="191"/>
      <point x="548" y="191" type="curve" smooth="yes"/>
      <point x="347" y="191" type="line" smooth="yes"/>
      <point x="305" y="191"/>
      <point x="286" y="206"/>
      <point x="286" y="239" type="curve" smooth="yes"/>
      <point x="286" y="477" type="line" smooth="yes"/>
      <point x="286" y="511"/>
      <point x="305" y="527"/>
      <point x="347" y="527" type="curve" smooth="yes"/>
      <point x="548" y="527" type="line" smooth="yes"/>
      <point x="573" y="527"/>
      <point x="584" y="538"/>
      <point x="584" y="563" type="curve" smooth="yes"/>
      <point x="584" y="684" type="line" smooth="yes"/>
      <point x="584" y="709"/>
      <point x="573" y="720"/>
      <point x="548" y="720" type="curve" smooth="yes"/>
      <point x="304" y="720" type="line" smooth="yes"/>
      <point x="136" y="720"/>
      <point x="58" y="655"/>
      <point x="58" y="515" type="curve" smooth="yes"/>
      <point x="58" y="204" type="line" smooth="yes"/>
      <point x="58" y="76"/>
      <point x="124" y="11"/>
      <point x="265" y="1" type="curve"/>
      <point x="233" y="-86" type="line" smooth="yes"/>
      <point x="224" y="-110"/>
      <point x="229" y="-126"/>
      <point x="263" y="-126" type="curve" smooth="yes"/>
      <point x="389" y="-126" type="line"/>
      <point x="415" y="-126"/>
      <point x="428" y="-117"/>
    </contour>
    <contour>
      <point x="349" y="-36" type="line"/>
      <point x="394" y="90" type="line"/>
      <point x="326" y="90" type="line" smooth="yes"/>
      <point x="196" y="90"/>
      <point x="166" y="126"/>
      <point x="166" y="219" type="curve" smooth="yes"/>
      <point x="166" y="499" type="line" smooth="yes"/>
      <point x="166" y="594"/>
      <point x="198" y="630"/>
      <point x="326" y="630" type="curve" smooth="yes"/>
      <point x="493" y="630" type="line"/>
      <point x="493" y="620" type="line"/>
      <point x="326" y="620" type="line" smooth="yes"/>
      <point x="208" y="620"/>
      <point x="176" y="588"/>
      <point x="176" y="499" type="curve" smooth="yes"/>
      <point x="176" y="219" type="line" smooth="yes"/>
      <point x="176" y="132"/>
      <point x="206" y="100"/>
      <point x="326" y="100" type="curve" smooth="yes"/>
      <point x="493" y="100" type="line"/>
      <point x="493" y="90" type="line"/>
      <point x="405" y="90" type="line"/>
      <point x="359" y="-36" type="line"/>
    </contour>
  </outline>
</glyph>
<glyph name="Oslash" format="1">
  <advance width="737"/>
  <unicode hex="00D8"/>
  <outline>
    <contour>
      <point x="265.0" y="494" type="line" smooth="yes"/>
      <point x="265.0" y="526"/>
      <point x="279.0" y="550"/>
      <point x="369.0" y="550" type="curve" smooth="yes"/>
      <point x="373.0" y="550"/>
      <point x="377.0" y="550"/>
      <point x="381.0" y="550" type="curve"/>
      <point x="265.0" y="277" type="line"/>
    </contour>
    <contour>
      <point x="369.0" y="168" type="curve" smooth="yes"/>
      <point x="364.0" y="168"/>
      <point x="359.0" y="168"/>
      <point x="355.0" y="168" type="curve"/>
      <point x="473.0" y="446" type="line"/>
      <point x="473.0" y="225" type="line" smooth="yes"/>
      <point x="473.0" y="192"/>
      <point x="460.0" y="168"/>
    </contour>
    <contour>
      <point x="295.0" y="-34" type="curve"/>
      <point x="304.0" y="-13" type="line"/>
      <point x="324.0" y="-14"/>
      <point x="346.0" y="-15"/>
      <point x="369.0" y="-15" type="curve" smooth="yes"/>
      <point x="619.0" y="-15"/>
      <point x="679.0" y="67"/>
      <point x="679.0" y="189" type="curve"/>
      <point x="679.0" y="530" type="line" smooth="yes"/>
      <point x="679.0" y="598"/>
      <point x="661.0" y="653"/>
      <point x="602.0" y="689" type="curve"/>
      <point x="629.0" y="754" type="line"/>
      <point x="641.0" y="776"/>
      <point x="628.0" y="790"/>
      <point x="603.0" y="790" type="curve" smooth="yes"/>
      <point x="488.0" y="790" type="line" smooth="yes"/>
      <point x="463.0" y="790"/>
      <point x="454.0" y="776"/>
      <point x="442.0" y="754" type="curve"/>
      <point x="433.0" y="733" type="line"/>
      <point x="413.0" y="734"/>
      <point x="392.0" y="735"/>
      <point x="369.0" y="735" type="curve" smooth="yes"/>
      <point x="119.0" y="735"/>
      <point x="58.0" y="652"/>
      <point x="58.0" y="530" type="curve" smooth="yes"/>
      <point x="58.0" y="189" type="line" smooth="yes"/>
      <point x="58.0" y="122"/>
      <point x="77.0" y="67"/>
      <point x="135.0" y="31" type="curve"/>
      <point x="108.0" y="-34" type="line"/>
      <point x="96.0" y="-56"/>
      <point x="109.0" y="-70"/>
      <point x="134.0" y="-70" type="curve" smooth="yes"/>
      <point x="249.0" y="-70" type="line" smooth="yes"/>
      <point x="274.0" y="-70"/>
      <point x="283.0" y="-56"/>
    </contour>
    <contour>
      <point x="166.0" y="212" type="line" smooth="yes"/>
      <point x="166.0" y="160"/>
      <point x="186.0" y="119"/>
      <point x="253.0" y="100" type="curve"/>
      <point x="474.0" y="621" type="line"/>
      <point x="446.0" y="628"/>
      <point x="411.0" y="632"/>
      <point x="367.0" y="632" type="curve" smooth="yes"/>
      <point x="208.0" y="632"/>
      <point x="166.0" y="582"/>
      <point x="166.0" y="507" type="curve" smooth="yes"/>
    </contour>
    <contour>
      <point x="367.0" y="87" type="curve" smooth="yes"/>
      <point x="526.0" y="87"/>
      <point x="570.0" y="137"/>
      <point x="570.0" y="212" type="curve" smooth="yes"/>
      <point x="570.0" y="507" type="line" smooth="yes"/>
      <point x="570.0" y="559"/>
      <point x="549.0" y="599"/>
      <point x="483.0" y="618" type="curve"/>
      <point x="263.0" y="97" type="line"/>
      <point x="290.0" y="91"/>
      <point x="324.0" y="87"/>
    </contour>
    <contour>
      <point x="230.0" y="20" type="line"/>
      <point x="219.0" y="20" type="line"/>
      <point x="249.0" y="91" type="line"/>
      <point x="178.0" y="111"/>
      <point x="156.0" y="155"/>
      <point x="156.0" y="212" type="curve" smooth="yes"/>
      <point x="156.0" y="507" type="line" smooth="yes"/>
      <point x="156.0" y="588"/>
      <point x="200.0" y="642"/>
      <point x="367.0" y="642" type="curve" smooth="yes"/>
      <point x="412.0" y="642"/>
      <point x="449.0" y="638"/>
      <point x="478.0" y="631" type="curve"/>
      <point x="507.0" y="700" type="line"/>
      <point x="518.0" y="700" type="line"/>
      <point x="487.0" y="628" type="line"/>
      <point x="558.0" y="607"/>
      <point x="580.0" y="563"/>
      <point x="580.0" y="507" type="curve" smooth="yes"/>
      <point x="580.0" y="212" type="line" smooth="yes"/>
      <point x="580.0" y="131"/>
      <point x="534.0" y="77"/>
      <point x="367.0" y="77" type="curve" smooth="yes"/>
      <point x="323.0" y="77"/>
      <point x="287.0" y="81"/>
      <point x="259.0" y="88" type="curve"/>
    </contour>
  </outline>
</glyph>
<glyph name="Aogonek" format="1">
  <advance width="730"/>
  <unicode hex="0104"/>
  <outline>
    <contour>
      <point x="676" y="-152" type="curve" smooth="yes"/>
      <point x="676" y="-80" type="line" smooth="yes"/>
      <point x="676" y="-54"/>
      <point x="668" y="-46"/>
      <point x="640" y="-46" type="curve" smooth="yes"/>
      <point x="599" y="-46" type="line"/>
      <point x="606" y="0" type="line"/>
      <point x="640" y="0" type="line" smooth="yes"/>
      <point x="665" y="0"/>
      <point x="676" y="11"/>
      <point x="676" y="36" type="curve" smooth="yes"/>
      <point x="676" y="300" type="line" smooth="yes"/>
      <point x="676" y="340"/>
      <point x="664" y="390"/>
      <point x="637" y="460" type="curve" smooth="yes"/>
      <point x="550" y="687" type="line" smooth="yes"/>
      <point x="542" y="710"/>
      <point x="526" y="720"/>
      <point x="500" y="720" type="curve" smooth="yes"/>
      <point x="231" y="720" type="line" smooth="yes"/>
      <point x="204" y="720"/>
      <point x="188" y="710"/>
      <point x="180" y="687" type="curve" smooth="yes"/>
      <point x="93" y="460" type="line" smooth="yes"/>
      <point x="66" y="390"/>
      <point x="54" y="340"/>
      <point x="54" y="300" type="curve" smooth="yes"/>
      <point x="54" y="36" type="line" smooth="yes"/>
      <point x="54" y="11"/>
      <point x="65" y="0"/>
      <point x="90" y="0" type="curve" smooth="yes"/>
      <point x="237" y="0" type="line" smooth="yes"/>
      <point x="262" y="0"/>
      <point x="273" y="11"/>
      <point x="273" y="36" type="curve" smooth="yes"/>
      <point x="273" y="176" type="line"/>
      <point x="450" y="176" type="line"/>
      <point x="450" y="56" type="line"/>
      <point x="431" y="-51" type="line" smooth="yes"/>
      <point x="417" y="-144"/>
      <point x="446" y="-186"/>
      <point x="532" y="-186" type="curve" smooth="yes"/>
      <point x="643" y="-186" type="line" smooth="yes"/>
      <point x="669" y="-186"/>
      <point x="676" y="-178"/>
    </contour>
    <contour>
      <point x="562" y="-116" type="line" smooth="yes"/>
      <point x="513" y="-116"/>
      <point x="503" y="-91"/>
      <point x="511" y="-41" type="curve" smooth="yes"/>
      <point x="523" y="42" type="line" smooth="yes"/>
      <point x="528" y="74"/>
      <point x="532" y="82"/>
      <point x="560" y="98" type="curve"/>
      <point x="560" y="262" type="line"/>
      <point x="170" y="262" type="line"/>
      <point x="170" y="90" type="line"/>
      <point x="160" y="90" type="line"/>
      <point x="160" y="303" type="line" smooth="yes"/>
      <point x="160" y="340"/>
      <point x="166" y="371"/>
      <point x="177" y="400" type="curve"/>
      <point x="241" y="564" type="line" smooth="yes"/>
      <point x="256" y="601"/>
      <point x="268" y="630"/>
      <point x="314" y="630" type="curve" smooth="yes"/>
      <point x="412" y="630" type="line" smooth="yes"/>
      <point x="456" y="630"/>
      <point x="468" y="602"/>
      <point x="484" y="563" type="curve" smooth="yes"/>
      <point x="553" y="400" type="line" smooth="yes"/>
      <point x="564" y="371"/>
      <point x="570" y="340"/>
      <point x="570" y="303" type="curve" smooth="yes"/>
      <point x="570" y="90" type="line"/>
      <point x="566" y="90" type="line"/>
      <point x="541" y="76"/>
      <point x="537" y="71"/>
      <point x="533" y="42" type="curve" smooth="yes"/>
      <point x="521" y="-43" type="line" smooth="yes"/>
      <point x="516" y="-83"/>
      <point x="521" y="-106"/>
      <point x="562" y="-106" type="curve" smooth="yes"/>
      <point x="586" y="-106" type="line"/>
      <point x="586" y="-116" type="line"/>
    </contour>
    <contour>
      <point x="170" y="303" type="curve"/>
      <point x="170" y="272" type="line"/>
      <point x="560" y="272" type="line"/>
      <point x="560" y="303" type="line"/>
      <point x="560" y="339"/>
      <point x="554" y="369"/>
      <point x="544" y="396" type="curve"/>
      <point x="475" y="559" type="line"/>
      <point x="460" y="594"/>
      <point x="449" y="620"/>
      <point x="412" y="620" type="curve" smooth="yes"/>
      <point x="314" y="620" type="line" smooth="yes"/>
      <point x="274" y="620"/>
      <point x="263" y="594"/>
      <point x="250" y="560" type="curve"/>
      <point x="186" y="396" type="line"/>
      <point x="176" y="369"/>
      <point x="170" y="339"/>
    </contour>
    <contour>
      <point x="330" y="510" type="line"/>
      <point x="335" y="522"/>
      <point x="341" y="527"/>
      <point x="349" y="527" type="curve" smooth="yes"/>
      <point x="374" y="527" type="line" smooth="yes"/>
      <point x="382" y="527"/>
      <point x="388" y="522"/>
      <point x="393" y="510" type="curve"/>
      <point x="440" y="358" type="line"/>
      <point x="283" y="358" type="line"/>
    </contour>
  </outline>
</glyph>
<glyph name="Scedilla" format="1">
  <advance width="650"/>
  <unicode hex="015E"/>
  <outline>
    <contour>
      <point x="299" y="-36" type="line"/>
      <point x="344" y="90" type="line"/>
      <point x="141" y="90" type="line"/>
      <point x="141" y="100" type="line"/>
      <point x="390" y="100" type="line" smooth="yes"/>
      <point x="452" y="100"/>
      <point x="491" y="138"/>
      <point x="491" y="191" type="curve" smooth="yes"/>
      <point x="491" y="249" type="line" smooth="yes"/>
      <point x="491" y="312"/>
      <point x="467" y="329"/>
      <point x="430" y="337" type="curve" smooth="yes"/>
      <point x="219" y="380" type="line" smooth="yes"/>
      <point x="184" y="387"/>
      <point x="160" y="402"/>
      <point x="160" y="457" type="curve" smooth="yes"/>
      <point x="160" y="539" type="line" smooth="yes"/>
      <point x="160" y="592"/>
      <point x="200" y="630"/>
      <point x="262" y="630" type="curve" smooth="yes"/>
      <point x="484" y="630" type="line"/>
      <point x="484" y="620" type="line"/>
      <point x="262" y="620" type="line" smooth="yes"/>
      <point x="206" y="620"/>
      <point x="170" y="586"/>
      <point x="170" y="539" type="curve" smooth="yes"/>
      <point x="170" y="457" type="line" smooth="yes"/>
      <point x="170" y="410"/>
      <point x="190" y="396"/>
      <point x="221" y="390" type="curve" smooth="yes"/>
      <point x="432" y="347" type="line" smooth="yes"/>
      <point x="472" y="339"/>
      <point x="501" y="319"/>
      <point x="501" y="249" type="curve" smooth="yes"/>
      <point x="501" y="191" type="line" smooth="yes"/>
      <point x="501" y="132"/>
      <point x="458" y="90"/>
      <point x="390" y="90" type="curve" smooth="yes"/>
      <point x="355" y="90" type="line"/>
      <point x="309" y="-36" type="line"/>
    </contour>
    <contour>
      <point x="339" y="-126" type="line"/>
      <point x="365" y="-126"/>
      <point x="378" y="-117"/>
      <point x="385" y="-96" type="curve" smooth="yes"/>
      <point x="419" y="0" type="line"/>
      <point x="539" y="5"/>
      <point x="610" y="67"/>
      <point x="610" y="176" type="curve" smooth="yes"/>
      <point x="610" y="281" type="line" smooth="yes"/>
      <point x="610" y="393"/>
      <point x="548" y="433"/>
      <point x="454" y="447" type="curve" smooth="yes"/>
      <point x="305" y="467" type="line" smooth="yes"/>
      <point x="288" y="469"/>
      <point x="278" y="481"/>
      <point x="278" y="499" type="curve" smooth="yes"/>
      <point x="278" y="517"/>
      <point x="288" y="529"/>
      <point x="305" y="529" type="curve" smooth="yes"/>
      <point x="538" y="529" type="line" smooth="yes"/>
      <point x="563" y="529"/>
      <point x="574" y="540"/>
      <point x="574" y="565" type="curve" smooth="yes"/>
      <point x="574" y="684" type="line" smooth="yes"/>
      <point x="574" y="709"/>
      <point x="563" y="720"/>
      <point x="538" y="720" type="curve" smooth="yes"/>
      <point x="258" y="720" type="line" smooth="yes"/>
      <point x="128" y="720"/>
      <point x="51" y="658"/>
      <point x="51" y="544" type="curve" smooth="yes"/>
      <point x="51" y="439" type="line" smooth="yes"/>
      <point x="51" y="327"/>
      <point x="112" y="287"/>
      <point x="206" y="273" type="curve" smooth="yes"/>
      <point x="356" y="252" type="line" smooth="yes"/>
      <point x="373" y="250"/>
      <point x="382" y="241"/>
      <point x="382" y="218" type="curve" smooth="yes"/>
      <point x="382" y="202"/>
      <point x="373" y="189"/>
      <point x="356" y="189" type="curve" smooth="yes"/>
      <point x="87" y="189" type="line" smooth="yes"/>
      <point x="62" y="189"/>
      <point x="51" y="178"/>
      <point x="51" y="153" type="curve" smooth="yes"/>
      <point x="51" y="36" type="line" smooth="yes"/>
      <point x="51" y="11"/>
      <point x="62" y="0"/>
      <point x="87" y="0" type="curve" smooth="yes"/>
      <point x="215" y="0" type="line"/>
      <point x="183" y="-86" type="line" smooth="yes"/>
      <point x="174" y="-110"/>
      <point x="179" y="-126"/>
      <point x="213" y="-126" type="curve" smooth="yes"/>
    </contour>
  </outline>
</glyph>
<glyph name="florin" format="1">
  <advance width="574"/>
  <unicode hex="0192"/>
  <outline>
    <contour>
      <point x="401.0" y="205" type="curve" smooth="yes"/>
      <point x="401.0" y="270" type="line"/>
      <point x="493.0" y="270" type="line" smooth="yes"/>
      <point x="518.0" y="270"/>
      <point x="529.0" y="280"/>
      <point x="529.0" y="306" type="curve" smooth="yes"/>
      <point x="529.0" y="413" type="line" smooth="yes"/>
      <point x="529.0" y="439"/>
      <point x="518.0" y="449"/>
      <point x="493.0" y="449" type="curve" smooth="yes"/>
      <point x="401.0" y="449" type="line"/>
      <point x="401.0" y="477" type="line" smooth="yes"/>
      <point x="401.0" y="503"/>
      <point x="407.0" y="527"/>
      <point x="442.0" y="527" type="curve" smooth="yes"/>
      <point x="493.0" y="527" type="line" smooth="yes"/>
      <point x="518.0" y="527"/>
      <point x="529.0" y="538"/>
      <point x="529.0" y="563" type="curve" smooth="yes"/>
      <point x="529.0" y="684" type="line" smooth="yes"/>
      <point x="529.0" y="709"/>
      <point x="518.0" y="720"/>
      <point x="493.0" y="720" type="curve" smooth="yes"/>
      <point x="419.0" y="720" type="line" smooth="yes"/>
      <point x="230.0" y="720"/>
      <point x="173.0" y="637"/>
      <point x="173.0" y="515" type="curve"/>
      <point x="173.0" y="449" type="line"/>
      <point x="81.0" y="449" type="line" smooth="yes"/>
      <point x="56.0" y="449"/>
      <point x="45.0" y="438"/>
      <point x="45.0" y="413" type="curve" smooth="yes"/>
      <point x="45.0" y="306" type="line" smooth="yes"/>
      <point x="45.0" y="280"/>
      <point x="56.0" y="270"/>
      <point x="81.0" y="270" type="curve"/>
      <point x="173.0" y="270" type="line"/>
      <point x="173.0" y="243" type="line" smooth="yes"/>
      <point x="173.0" y="217"/>
      <point x="167.0" y="193"/>
      <point x="132.0" y="193" type="curve" smooth="yes"/>
      <point x="81.0" y="193" type="line" smooth="yes"/>
      <point x="56.0" y="193"/>
      <point x="45.0" y="182"/>
      <point x="45.0" y="157" type="curve" smooth="yes"/>
      <point x="45.0" y="36" type="line" smooth="yes"/>
      <point x="45.0" y="11"/>
      <point x="56.0" y="0"/>
      <point x="81.0" y="0" type="curve" smooth="yes"/>
      <point x="155.0" y="0" type="line" smooth="yes"/>
      <point x="344.0" y="0"/>
      <point x="401.0" y="83"/>
    </contour>
    <contour>
      <point x="135.0" y="90" type="line"/>
      <point x="135.0" y="100" type="line"/>
      <point x="145.0" y="100" type="line" smooth="yes"/>
      <point x="256.0" y="100"/>
      <point x="282.0" y="120"/>
      <point x="282.0" y="224" type="curve" smooth="yes"/>
      <point x="282.0" y="354" type="line"/>
      <point x="135.0" y="354" type="line"/>
      <point x="135.0" y="364" type="line"/>
      <point x="282.0" y="364" type="line"/>
      <point x="282.0" y="509" type="line" smooth="yes"/>
      <point x="282.0" y="601"/>
      <point x="332.0" y="630"/>
      <point x="419.0" y="630" type="curve" smooth="yes"/>
      <point x="439.0" y="630" type="line"/>
      <point x="439.0" y="620" type="line"/>
      <point x="419.0" y="620" type="line" smooth="yes"/>
      <point x="340.0" y="620"/>
      <point x="292.0" y="595"/>
      <point x="292.0" y="509" type="curve" smooth="yes"/>
      <point x="292.0" y="364" type="line"/>
      <point x="439.0" y="364" type="line"/>
      <point x="439.0" y="354" type="line"/>
      <point x="292.0" y="354" type="line"/>
      <point x="292.0" y="224" type="line" smooth="yes"/>
      <point x="292.0" y="112"/>
      <point x="263.0" y="90"/>
      <point x="145.0" y="90" type="curve" smooth="yes"/>
    </contour>
  </outline>
</glyph>
<glyph name="gscript" format="1">
  <advance width="715"/>
  <unicode hex="0261"/>
  <outline>
    <contour>
      <point x="50.0" y="530" type="curve"/>
      <point x="50.0" y="414" type="line" smooth="yes"/>
      <point x="50.0" y="275"/>
      <point x="126.0" y="210"/>
      <point x="294.0" y="210" type="curve" smooth="yes"/>
      <point x="439.0" y="210" type="line"/>
      <point x="439.0" y="176" type="line" smooth="yes"/>
      <point x="439.0" y="148"/>
      <point x="430.0" y="128"/>
      <point x="378.0" y="128" type="curve" smooth="yes"/>
      <point x="167.0" y="128" type="line" smooth="yes"/>
      <point x="142.0" y="128"/>
      <point x="131.0" y="117"/>
      <point x="131.0" y="92" type="curve" smooth="yes"/>
      <point x="131.0" y="-25" type="line" smooth="yes"/>
      <point x="131.0" y="-50"/>
      <point x="142.0" y="-61"/>
      <point x="167.0" y="-61" type="curve" smooth="yes"/>
      <point x="421.0" y="-61" type="line" smooth="yes"/>
      <point x="610.0" y="-61"/>
      <point x="667.0" y="22"/>
      <point x="667.0" y="143" type="curve" smooth="yes"/>
      <point x="667.0" y="530" type="line"/>
      <point x="667.0" y="652"/>
      <point x="607.0" y="735"/>
      <point x="358.0" y="735" type="curve" smooth="yes"/>
      <point x="111.0" y="735"/>
      <point x="50.0" y="652"/>
    </contour>
    <contour>
      <point x="440.0" y="496" type="curve"/>
      <point x="440.0" y="399" type="line"/>
      <point x="323.0" y="399" type="line" smooth="yes"/>
      <point x="291.0" y="399"/>
      <point x="276.0" y="414"/>
      <point x="276.0" y="448" type="curve" smooth="yes"/>
      <point x="276.0" y="494" type="line"/>
      <point x="276.0" y="520"/>
      <point x="288.0" y="540"/>
      <point x="358.0" y="540" type="curve" smooth="yes"/>
      <point x="431.0" y="540"/>
      <point x="440.0" y="522"/>
    </contour>
    <contour>
      <point x="358" y="300" type="line"/>
      <point x="245" y="300"/>
      <point x="158" y="305"/>
      <point x="158" y="408" type="curve" smooth="yes"/>
      <point x="158" y="519" type="line" smooth="yes"/>
      <point x="158" y="620"/>
      <point x="246" y="635"/>
      <point x="361" y="635" type="curve" smooth="yes"/>
      <point x="472" y="635"/>
      <point x="558" y="622"/>
      <point x="558" y="519" type="curve" smooth="yes"/>
      <point x="558" y="144" type="line" smooth="yes"/>
      <point x="558" y="55"/>
      <point x="509" y="29"/>
      <point x="424" y="29" type="curve" smooth="yes"/>
      <point x="216" y="29" type="line"/>
      <point x="216" y="39" type="line"/>
      <point x="424" y="39" type="line" smooth="yes"/>
      <point x="501" y="39"/>
      <point x="548" y="61"/>
      <point x="548" y="144" type="curve" smooth="yes"/>
      <point x="548" y="519" type="line" smooth="yes"/>
      <point x="548" y="616"/>
      <point x="462" y="625"/>
      <point x="361" y="625" type="curve" smooth="yes"/>
      <point x="255" y="625"/>
      <point x="168" y="614"/>
      <point x="168" y="519" type="curve" smooth="yes"/>
      <point x="168" y="408" type="line" smooth="yes"/>
      <point x="168" y="311"/>
      <point x="256" y="310"/>
      <point x="358" y="310" type="curve"/>
      <point x="548" y="310" type="line"/>
      <point x="548" y="300" type="line"/>
    </contour>
  </outline>
</glyph>
<glyph name="breve" format="1">
  <advance width="500"/>
  <unicode hex="02D8"/>
  <outline>
    <contour>
      <point x="467.0" y="897" type="curve"/>
      <point x="467.0" y="941" type="line" smooth="yes"/>
      <point x="467.0" y="966"/>
      <point x="456.0" y="977"/>
      <point x="431.0" y="977" type="curve"/>
      <point x="340.0" y="977" type="line" smooth="yes"/>
      <point x="317.0" y="977"/>
      <point x="310.0" y="970"/>
      <point x="310.0" y="946" type="curve" smooth="yes"/>
      <point x="310.0" y="925" type="line" smooth="yes"/>
      <point x="310.0" y="906"/>
      <point x="301.0" y="892"/>
      <point x="251.0" y="892" type="curve" smooth="yes"/>
      <point x="202.0" y="892"/>
      <point x="194.0" y="906"/>
      <point x="194.0" y="925" type="curve" smooth="yes"/>
      <point x="194.0" y="946" type="line" smooth="yes"/>
      <point x="194.0" y="970"/>
      <point x="186.0" y="977"/>
      <point x="165.0" y="977" type="curve" smooth="yes"/>
      <point x="69.0" y="977" type="line" smooth="yes"/>
      <point x="44.0" y="977"/>
      <point x="33.0" y="966"/>
      <point x="33.0" y="941" type="curve" smooth="yes"/>
      <point x="33.0" y="897" type="line" smooth="yes"/>
      <point x="33.0" y="812"/>
      <point x="76.0" y="754"/>
      <point x="250.0" y="754" type="curve" smooth="yes"/>
      <point x="424.0" y="754"/>
      <point x="467.0" y="812"/>
    </contour>
    <contour>
      <point x="384.0" y="907" type="line"/>
      <point x="394.0" y="907" type="line"/>
      <point x="394.0" y="898" type="line" smooth="yes"/>
      <point x="394.0" y="860"/>
      <point x="373.0" y="818"/>
      <point x="249.0" y="818" type="curve" smooth="yes"/>
      <point x="125.0" y="818"/>
      <point x="109.0" y="860"/>
      <point x="109.0" y="898" type="curve" smooth="yes"/>
      <point x="109.0" y="907" type="line"/>
      <point x="119.0" y="907" type="line"/>
      <point x="119.0" y="898" type="line" smooth="yes"/>
      <point x="119.0" y="862"/>
      <point x="141.0" y="828"/>
      <point x="249.0" y="828" type="curve" smooth="yes"/>
      <point x="357.0" y="828"/>
      <point x="384.0" y="862"/>
      <point x="384.0" y="898" type="curve" smooth="yes"/>
    </contour>
    <contour>
      <point x="250.0" y="747.0" type="move" name="_top"/>
    </contour>
    <contour>
      <point x="250.0" y="0.0" type="move" name="_bottom"/>
    </contour>
  </outline>
</glyph>
<glyph name="Germandbls" format="1">
  <advance width="759.0"/>
  <unicode hex="1E9E"/>
  <outline>
    <contour>
      <point x="296.0" y="36" type="curve" smooth="yes"/>
      <point x="296.0" y="531" type="line"/>
      <point x="375.0" y="531" type="line" smooth="yes"/>
      <point x="392.0" y="531"/>
      <point x="397.0" y="518"/>
      <point x="394.0" y="503" type="curve" smooth="yes"/>
      <point x="361.0" y="340" type="line" smooth="yes"/>
      <point x="353.0" y="303"/>
      <point x="366.0" y="284"/>
      <point x="398.0" y="284" type="curve" smooth="yes"/>
      <point x="470.0" y="284" type="line" smooth="yes"/>
      <point x="486.0" y="284"/>
      <point x="497.0" y="277"/>
      <point x="497.0" y="261" type="curve" smooth="yes"/>
      <point x="497.0" y="212" type="line" smooth="yes"/>
      <point x="497.0" y="196"/>
      <point x="486.0" y="189"/>
      <point x="470.0" y="189" type="curve" smooth="yes"/>
      <point x="392.0" y="189" type="line" smooth="yes"/>
      <point x="367.0" y="189"/>
      <point x="356.0" y="178"/>
      <point x="356.0" y="153" type="curve" smooth="yes"/>
      <point x="356.0" y="36" type="line" smooth="yes"/>
      <point x="356.0" y="11"/>
      <point x="367.0" y="0"/>
      <point x="392.0" y="0" type="curve" smooth="yes"/>
      <point x="530.0" y="0" type="line" smooth="yes"/>
      <point x="650.0" y="0"/>
      <point x="725.0" y="64"/>
      <point x="725.0" y="166" type="curve" smooth="yes"/>
      <point x="725.0" y="289" type="line" smooth="yes"/>
      <point x="725.0" y="382"/>
      <point x="668.0" y="433"/>
      <point x="597.0" y="446" type="curve"/>
      <point x="620.0" y="529" type="line" smooth="yes"/>
      <point x="651.0" y="640"/>
      <point x="594.0" y="720"/>
      <point x="476.0" y="720" type="curve" smooth="yes"/>
      <point x="105.0" y="720" type="line" smooth="yes"/>
      <point x="81.0" y="720"/>
      <point x="69.0" y="708"/>
      <point x="69.0" y="684" type="curve" smooth="yes"/>
      <point x="69.0" y="36" type="line" smooth="yes"/>
      <point x="69.0" y="11"/>
      <point x="80.0" y="0"/>
      <point x="105.0" y="0" type="curve" smooth="yes"/>
      <point x="260.0" y="0" type="line" smooth="yes"/>
      <point x="285.0" y="0"/>
      <point x="296.0" y="11"/>
    </contour>
    <contour>
      <point x="193.0" y="90" type="line"/>
      <point x="183.0" y="90" type="line"/>
      <point x="183.0" y="630" type="line"/>
      <point x="431.0" y="630" type="line" smooth="yes"/>
      <point x="500.0" y="630"/>
      <point x="525.0" y="593"/>
      <point x="505.0" y="518" type="curve" smooth="yes"/>
      <point x="465.0" y="374" type="line"/>
      <point x="511.0" y="374" type="line" smooth="yes"/>
      <point x="581.0" y="374"/>
      <point x="616.0" y="345"/>
      <point x="616.0" y="276" type="curve" smooth="yes"/>
      <point x="616.0" y="188" type="line" smooth="yes"/>
      <point x="616.0" y="120"/>
      <point x="585.0" y="90"/>
      <point x="502.0" y="90" type="curve" smooth="yes"/>
      <point x="446.0" y="90" type="line"/>
      <point x="446.0" y="100" type="line"/>
      <point x="502.0" y="100" type="line" smooth="yes"/>
      <point x="577.0" y="100"/>
      <point x="606.0" y="126"/>
      <point x="606.0" y="188" type="curve" smooth="yes"/>
      <point x="606.0" y="276" type="line" smooth="yes"/>
      <point x="606.0" y="339"/>
      <point x="573.0" y="364"/>
      <point x="511.0" y="364" type="curve" smooth="yes"/>
      <point x="451.0" y="364" type="line"/>
      <point x="495.0" y="520" type="line"/>
      <point x="513.0" y="585"/>
      <point x="492.0" y="620"/>
      <point x="431.0" y="620" type="curve" smooth="yes"/>
      <point x="193.0" y="620" type="line"/>
    </contour>
  </outline>
</glyph>
<glyph name="quoteright" format="1">
  <advance width="384"/>
  <unicode hex="2019"/>
  <outline>
    <contour>
      <point x="181.0" y="345" type="line" smooth="yes"/>
      <point x="271.0" y="345"/>
      <point x="329.0" y="394"/>
      <point x="329.0" y="496" type="curve" smooth="yes"/>
      <point x="329.0" y="684" type="line" smooth="yes"/>
      <point x="329.0" y="709"/>
      <point x="318.0" y="720"/>
      <point x="293.0" y="720" type="curve" smooth="yes"/>
      <point x="91.0" y="720" type="line" smooth="yes"/>
      <point x="66.0" y="720"/>
      <point x="55.0" y="709"/>
      <point x="55.0" y="684" type="curve"/>
      <point x="55.0" y="536" type="line"/>
      <point x="55.0" y="511"/>
      <point x="66.0" y="500"/>
      <point x="91.0" y="500" type="curve" smooth="yes"/>
      <point x="200.0" y="500" type="line"/>
      <point x="200.0" y="485" type="line" smooth="yes"/>
      <point x="200.0" y="467"/>
      <point x="191.0" y="457"/>
      <point x="173.0" y="457" type="curve" smooth="yes"/>
      <point x="104.0" y="457" type="line" smooth="yes"/>
      <point x="79.0" y="457"/>
      <point x="68.0" y="446"/>
      <point x="68.0" y="421" type="curve"/>
      <point x="68.0" y="381" type="line"/>
      <point x="68.0" y="355"/>
      <point x="79.0" y="345"/>
      <point x="104.0" y="345" type="curve" smooth="yes"/>
    </contour>
    <contour>
      <point x="259.0" y="615" type="line"/>
      <point x="259.0" y="496" type="line" smooth="yes"/>
      <point x="259.0" y="435"/>
      <point x="225.0" y="405"/>
      <point x="171.0" y="405" type="curve" smooth="yes"/>
      <point x="125.0" y="405" type="line"/>
      <point x="125.0" y="415" type="line"/>
      <point x="171.0" y="415" type="line" smooth="yes"/>
      <point x="219.0" y="415"/>
      <point x="249.0" y="442"/>
      <point x="249.0" y="496" type="curve" smooth="yes"/>
      <point x="249.0" y="605" type="line"/>
      <point x="125.0" y="605" type="line"/>
      <point x="125.0" y="615" type="line"/>
    </contour>
  </outline>
</glyph>
<glyph name="quotesinglbase" format="1">
  <advance width="384"/>
  <unicode hex="201A"/>
  <outline>
    <contour>
      <point x="181.0" y="-100" type="line" smooth="yes"/>
      <point x="271.0" y="-100"/>
      <point x="329.0" y="-51"/>
      <point x="329.0" y="51" type="curve" smooth="yes"/>
      <point x="329.0" y="239" type="line" smooth="yes"/>
      <point x="329.0" y="264"/>
      <point x="318.0" y="275"/>
      <point x="293.0" y="275" type="curve" smooth="yes"/>
      <point x="91.0" y="275" type="line" smooth="yes"/>
      <point x="66.0" y="275"/>
      <point x="55.0" y="264"/>
      <point x="55.0" y="239" type="curve"/>
      <point x="55.0" y="91" type="line"/>
      <point x="55.0" y="66"/>
      <point x="66.0" y="55"/>
      <point x="91.0" y="55" type="curve" smooth="yes"/>
      <point x="200.0" y="55" type="line"/>
      <point x="200.0" y="40" type="line" smooth="yes"/>
      <point x="200.0" y="22"/>
      <point x="191.0" y="12"/>
      <point x="173.0" y="12" type="curve" smooth="yes"/>
      <point x="104.0" y="12" type="line" smooth="yes"/>
      <point x="79.0" y="12"/>
      <point x="68.0" y="1"/>
      <point x="68.0" y="-24" type="curve"/>
      <point x="68.0" y="-64" type="line"/>
      <point x="68.0" y="-90"/>
      <point x="79.0" y="-100"/>
      <point x="104.0" y="-100" type="curve" smooth="yes"/>
    </contour>
    <contour>
      <point x="259.0" y="170" type="line"/>
      <point x="259.0" y="51" type="line" smooth="yes"/>
      <point x="259.0" y="-10"/>
      <point x="225.0" y="-40"/>
      <point x="171.0" y="-40" type="curve" smooth="yes"/>
      <point x="125.0" y="-40" type="line"/>
      <point x="125.0" y="-30" type="line"/>
      <point x="171.0" y="-30" type="line" smooth="yes"/>
      <point x="219.0" y="-30"/>
      <point x="249.0" y="-3"/>
      <point x="249.0" y="51" type="curve" smooth="yes"/>
      <point x="249.0" y="160" type="line"/>
      <point x="125.0" y="160" type="line"/>
      <point x="125.0" y="170" type="line"/>
    </contour>
  </outline>
</glyph>
<glyph name="second" format="1">
  <advance width="665.50617284"/>
  <unicode hex="2033"/>
  <outline>
    <contour>
      <point x="550.0" y="345" type="line" smooth="yes"/>
      <point x="583.0" y="345"/>
      <point x="589.0" y="353"/>
      <point x="592.0" y="386" type="curve" smooth="yes"/>
      <point x="620.0" y="679" type="line" smooth="yes"/>
      <point x="623.0" y="712"/>
      <point x="613.0" y="720"/>
      <point x="581.0" y="720" type="curve" smooth="yes"/>
      <point x="416.0" y="720" type="line" smooth="yes"/>
      <point x="383.0" y="720"/>
      <point x="377.0" y="712"/>
      <point x="376.0" y="679" type="curve" smooth="yes"/>
      <point x="364.0" y="386" type="line" smooth="yes"/>
      <point x="363.0" y="353"/>
      <point x="373.0" y="345"/>
      <point x="406.0" y="345" type="curve" smooth="yes"/>
    </contour>
    <contour>
      <point x="240.0" y="345" type="line" smooth="yes"/>
      <point x="273.0" y="345"/>
      <point x="279.0" y="353"/>
      <point x="282.0" y="386" type="curve" smooth="yes"/>
      <point x="310.0" y="679" type="line" smooth="yes"/>
      <point x="313.0" y="712"/>
      <point x="303.0" y="720"/>
      <point x="271.0" y="720" type="curve" smooth="yes"/>
      <point x="106.0" y="720" type="line" smooth="yes"/>
      <point x="73.0" y="720"/>
      <point x="67.0" y="712"/>
      <point x="66.0" y="679" type="curve" smooth="yes"/>
      <point x="54.0" y="386" type="line" smooth="yes"/>
      <point x="53.0" y="353"/>
      <point x="63.0" y="345"/>
      <point x="96.0" y="345" type="curve" smooth="yes"/>
    </contour>
    <contour>
      <point x="177.0" y="435" type="line"/>
      <point x="166.0" y="435" type="line"/>
      <point x="180.0" y="630" type="line"/>
      <point x="191.0" y="630" type="line"/>
    </contour>
    <contour>
      <point x="487.0" y="435" type="line"/>
      <point x="476.0" y="435" type="line"/>
      <point x="490.0" y="630" type="line"/>
      <point x="501.0" y="630" type="line"/>
    </contour>
  </outline>
</glyph>
<glyph name="guilsinglright" format="1">
  <advance width="563"/>
  <unicode hex="203A"/>
  <outline>
    <contour>
      <point x="376.0" y="157" type="line"/>
      <point x="461.0" y="174"/>
      <point x="503.0" y="213"/>
      <point x="503.0" y="312" type="curve" smooth="yes"/>
      <point x="503.0" y="386" type="line" smooth="yes"/>
      <point x="503.0" y="485"/>
      <point x="461.0" y="524"/>
      <point x="376.0" y="541" type="curve" smooth="yes"/>
      <point x="116.0" y="594" type="line" smooth="yes"/>
      <point x="91.0" y="599"/>
      <point x="80.0" y="589"/>
      <point x="80.0" y="563" type="curve" smooth="yes"/>
      <point x="80.0" y="436" type="line" smooth="yes"/>
      <point x="80.0" y="410"/>
      <point x="91.0" y="399"/>
      <point x="116.0" y="395" type="curve" smooth="yes"/>
      <point x="282.0" y="368" type="line" smooth="yes"/>
      <point x="296.0" y="366"/>
      <point x="299.0" y="361"/>
      <point x="299.0" y="349" type="curve" smooth="yes"/>
      <point x="299.0" y="337"/>
      <point x="296.0" y="332"/>
      <point x="282.0" y="330" type="curve" smooth="yes"/>
      <point x="116.0" y="303" type="line" smooth="yes"/>
      <point x="91.0" y="299"/>
      <point x="80.0" y="288"/>
      <point x="80.0" y="262" type="curve" smooth="yes"/>
      <point x="80.0" y="135" type="line" smooth="yes"/>
      <point x="80.0" y="109"/>
      <point x="91.0" y="99"/>
      <point x="116.0" y="104" type="curve" smooth="yes"/>
    </contour>
    <contour>
      <point x="170.0" y="208" type="line"/>
      <point x="170.0" y="218" type="line"/>
      <point x="355.0" y="256" type="line" smooth="yes"/>
      <point x="385.0" y="262"/>
      <point x="400.0" y="276"/>
      <point x="400.0" y="310" type="curve" smooth="yes"/>
      <point x="400.0" y="388" type="line" smooth="yes"/>
      <point x="400.0" y="422"/>
      <point x="385.0" y="436"/>
      <point x="356.0" y="442" type="curve" smooth="yes"/>
      <point x="170.0" y="480" type="line"/>
      <point x="170.0" y="490" type="line"/>
      <point x="358.0" y="452" type="line" smooth="yes"/>
      <point x="393.0" y="445"/>
      <point x="410.0" y="428"/>
      <point x="410.0" y="388" type="curve" smooth="yes"/>
      <point x="410.0" y="310" type="line" smooth="yes"/>
      <point x="410.0" y="270"/>
      <point x="393.0" y="253"/>
      <point x="357.0" y="246" type="curve" smooth="yes"/>
    </contour>
  </outline>
</glyph>
<glyph name="fraction" format="1">
  <advance width="317"/>
  <unicode hex="2044"/>
  <outline>
    <contour>
      <point x="5.0" y="36" type="line" smooth="yes"/>
      <point x="0.0" y="11"/>
      <point x="16.0" y="0"/>
      <point x="41.0" y="0" type="curve" smooth="yes"/>
      <point x="156.0" y="0" type="line" smooth="yes"/>
      <point x="181.0" y="0"/>
      <point x="187.0" y="11"/>
      <point x="192.0" y="36" type="curve" smooth="yes"/>
      <point x="312.0" y="684" type="line" smooth="yes"/>
      <point x="317.0" y="709"/>
      <point x="301.0" y="720"/>
      <point x="276.0" y="720" type="curve" smooth="yes"/>
      <point x="161.0" y="720" type="line" smooth="yes"/>
      <point x="136.0" y="720"/>
      <point x="130.0" y="709"/>
      <point x="125.0" y="684" type="curve" smooth="yes"/>
    </contour>
    <contour>
      <point x="114.0" y="90" type="line"/>
      <point x="104.0" y="90" type="line"/>
      <point x="204.0" y="630" type="line"/>
      <point x="214.0" y="630" type="line"/>
    </contour>
  </outline>
</glyph>
<glyph name="foursuperior" format="1">
  <advance width="508.0"/>
  <unicode hex="2074"/>
  <outline>
    <contour>
      <point x="296.0" y="322" type="line"/>
      <point x="296.0" y="228" type="line" smooth="yes"/>
      <point x="296.0" y="210"/>
      <point x="304.0" y="202"/>
      <point x="322.0" y="202" type="curve" smooth="yes"/>
      <point x="433.0" y="202" type="line" smooth="yes"/>
      <point x="451.0" y="202"/>
      <point x="458.0" y="210"/>
      <point x="458.0" y="228" type="curve" smooth="yes"/>
      <point x="458.0" y="694" type="line" smooth="yes"/>
      <point x="458.0" y="712"/>
      <point x="451.0" y="720"/>
      <point x="433.0" y="720" type="curve" smooth="yes"/>
      <point x="322.0" y="720" type="line" smooth="yes"/>
      <point x="304.0" y="720"/>
      <point x="296.0" y="712"/>
      <point x="296.0" y="694" type="curve" smooth="yes"/>
      <point x="296.0" y="472" type="line"/>
      <point x="229.0" y="472" type="line" smooth="yes"/>
      <point x="215.0" y="472"/>
      <point x="206.0" y="482"/>
      <point x="206.0" y="497" type="curve" smooth="yes"/>
      <point x="206.0" y="694" type="line" smooth="yes"/>
      <point x="206.0" y="712"/>
      <point x="199.0" y="720"/>
      <point x="181.0" y="720" type="curve" smooth="yes"/>
      <point x="69.0" y="720" type="line" smooth="yes"/>
      <point x="51.0" y="720"/>
      <point x="43.0" y="712"/>
      <point x="43.0" y="694" type="curve" smooth="yes"/>
      <point x="43.0" y="441" type="line" smooth="yes"/>
      <point x="43.0" y="359"/>
      <point x="80.0" y="322"/>
      <point x="174.0" y="322" type="curve" smooth="yes"/>
    </contour>
    <contour>
      <point x="372.0" y="266" type="line"/>
      <point x="372.0" y="393" type="line"/>
      <point x="201.0" y="393" type="line" smooth="yes"/>
      <point x="145.0" y="393"/>
      <point x="120.0" y="418"/>
      <point x="120.0" y="469" type="curve" smooth="yes"/>
      <point x="120.0" y="655" type="line"/>
      <point x="130.0" y="655" type="line"/>
      <point x="130.0" y="469" type="line" smooth="yes"/>
      <point x="130.0" y="424"/>
      <point x="153.0" y="402"/>
      <point x="201.0" y="402" type="curve" smooth="yes"/>
      <point x="372.0" y="402" type="line"/>
      <point x="372.0" y="655" type="line"/>
      <point x="382.0" y="655" type="line"/>
      <point x="382.0" y="266" type="line"/>
    </contour>
  </outline>
</glyph>
<glyph name="five.sups" format="1">
  <advance width="493"/>
  <unicode hex="2075"/>
  <outline>
    <contour>
      <point x="309.0" y="202" type="line" smooth="yes"/>
      <point x="396.0" y="202"/>
      <point x="450.0" y="248"/>
      <point x="450.0" y="322" type="curve" smooth="yes"/>
      <point x="450.0" y="422" type="line" smooth="yes"/>
      <point x="450.0" y="498"/>
      <point x="402.0" y="536"/>
      <point x="324.0" y="536" type="curve" smooth="yes"/>
      <point x="225.0" y="536" type="line"/>
      <point x="225.0" y="583" type="line"/>
      <point x="398.0" y="583" type="line" smooth="yes"/>
      <point x="416.0" y="583"/>
      <point x="424.0" y="591"/>
      <point x="424.0" y="609" type="curve" smooth="yes"/>
      <point x="424.0" y="694" type="line" smooth="yes"/>
      <point x="424.0" y="712"/>
      <point x="416.0" y="720"/>
      <point x="398.0" y="720" type="curve" smooth="yes"/>
      <point x="88.0" y="720" type="line" smooth="yes"/>
      <point x="70.0" y="720"/>
      <point x="62.0" y="712"/>
      <point x="62.0" y="694" type="curve" smooth="yes"/>
      <point x="62.0" y="425" type="line" smooth="yes"/>
      <point x="62.0" y="407"/>
      <point x="70.0" y="399"/>
      <point x="88.0" y="399" type="curve" smooth="yes"/>
      <point x="266.0" y="399" type="line" smooth="yes"/>
      <point x="278.0" y="399"/>
      <point x="286.0" y="394"/>
      <point x="286.0" y="383" type="curve" smooth="yes"/>
      <point x="286.0" y="355" type="line" smooth="yes"/>
      <point x="286.0" y="343"/>
      <point x="278.0" y="338"/>
      <point x="266.0" y="338" type="curve" smooth="yes"/>
      <point x="81.0" y="338" type="line" smooth="yes"/>
      <point x="63.0" y="338"/>
      <point x="55.0" y="330"/>
      <point x="55.0" y="312" type="curve" smooth="yes"/>
      <point x="55.0" y="228" type="line" smooth="yes"/>
      <point x="55.0" y="210"/>
      <point x="63.0" y="202"/>
      <point x="81.0" y="202" type="curve" smooth="yes"/>
    </contour>
    <contour>
      <point x="119.0" y="266" type="line"/>
      <point x="119.0" y="274" type="line"/>
      <point x="290.0" y="274" type="line" smooth="yes"/>
      <point x="344.0" y="274"/>
      <point x="364.0" y="292"/>
      <point x="364.0" y="337" type="curve" smooth="yes"/>
      <point x="364.0" y="400" type="line" smooth="yes"/>
      <point x="364.0" y="445"/>
      <point x="340.0" y="463"/>
      <point x="295.0" y="463" type="curve" smooth="yes"/>
      <point x="139.0" y="463" type="line"/>
      <point x="139.0" y="655" type="line"/>
      <point x="359.0" y="655" type="line"/>
      <point x="359.0" y="647" type="line"/>
      <point x="147.0" y="647" type="line"/>
      <point x="147.0" y="471" type="line"/>
      <point x="295.0" y="471" type="line" smooth="yes"/>
      <point x="346.0" y="471"/>
      <point x="372.0" y="451"/>
      <point x="372.0" y="400" type="curve" smooth="yes"/>
      <point x="372.0" y="337" type="line" smooth="yes"/>
      <point x="372.0" y="288"/>
      <point x="350.0" y="266"/>
      <point x="290.0" y="266" type="curve" smooth="yes"/>
    </contour>
  </outline>
</glyph>
<glyph name="six.sups" format="1">
  <advance width="528"/>
  <unicode hex="2076"/>
  <outline>
    <contour>
      <point x="274.0" y="191" type="curve" smooth="yes"/>
      <point x="439.0" y="191"/>
      <point x="481.0" y="249"/>
      <point x="481.0" y="337" type="curve" smooth="yes"/>
      <point x="481.0" y="406" type="line" smooth="yes"/>
      <point x="481.0" y="491"/>
      <point x="442.0" y="535"/>
      <point x="312.0" y="535" type="curve" smooth="yes"/>
      <point x="273.0" y="535"/>
      <point x="243.0" y="531"/>
      <point x="220.0" y="524" type="curve"/>
      <point x="220.0" y="540" type="line" smooth="yes"/>
      <point x="220.0" y="576"/>
      <point x="231.0" y="584"/>
      <point x="266.0" y="584" type="curve" smooth="yes"/>
      <point x="400.0" y="584" type="line" smooth="yes"/>
      <point x="418.0" y="584"/>
      <point x="426.0" y="592"/>
      <point x="426.0" y="610" type="curve" smooth="yes"/>
      <point x="426.0" y="694" type="line" smooth="yes"/>
      <point x="426.0" y="712"/>
      <point x="419.0" y="720"/>
      <point x="400.0" y="720" type="curve" smooth="yes"/>
      <point x="235.0" y="720" type="line" smooth="yes"/>
      <point x="99.0" y="720"/>
      <point x="58.0" y="661"/>
      <point x="58.0" y="573" type="curve" smooth="yes"/>
      <point x="58.0" y="337" type="line" smooth="yes"/>
      <point x="58.0" y="249"/>
      <point x="97.0" y="191"/>
    </contour>
    <contour>
      <point x="220.0" y="391" type="line" smooth="yes"/>
      <point x="220.0" y="405"/>
      <point x="227.0" y="417"/>
      <point x="269.0" y="417" type="curve" smooth="yes"/>
      <point x="312.0" y="417"/>
      <point x="318.0" y="405"/>
      <point x="318.0" y="391" type="curve" smooth="yes"/>
      <point x="318.0" y="348" type="line" smooth="yes"/>
      <point x="318.0" y="333"/>
      <point x="312.0" y="322"/>
      <point x="269.0" y="322" type="curve" smooth="yes"/>
      <point x="227.0" y="322"/>
      <point x="220.0" y="333"/>
      <point x="220.0" y="348" type="curve" smooth="yes"/>
    </contour>
    <contour>
      <point x="273.0" y="252" type="curve" smooth="yes"/>
      <point x="195.0" y="252"/>
      <point x="135.0" y="262"/>
      <point x="135.0" y="335" type="curve" smooth="yes"/>
      <point x="135.0" y="572" type="line" smooth="yes"/>
      <point x="135.0" y="638"/>
      <point x="171.0" y="656"/>
      <point x="234.0" y="656" type="curve" smooth="yes"/>
      <point x="364.0" y="656" type="line"/>
      <point x="364.0" y="648" type="line"/>
      <point x="234.0" y="648" type="line" smooth="yes"/>
      <point x="177.0" y="648"/>
      <point x="143.0" y="632"/>
      <point x="143.0" y="572" type="curve" smooth="yes"/>
      <point x="143.0" y="436" type="line"/>
      <point x="162.0" y="470"/>
      <point x="215.0" y="478"/>
      <point x="275.0" y="478" type="curve" smooth="yes"/>
      <point x="348.0" y="478"/>
      <point x="403.0" y="474"/>
      <point x="403.0" y="400" type="curve" smooth="yes"/>
      <point x="403.0" y="335" type="line" smooth="yes"/>
      <point x="403.0" y="264"/>
      <point x="348.0" y="252"/>
    </contour>
    <contour>
      <point x="273.0" y="260" type="curve" smooth="yes"/>
      <point x="340.0" y="260"/>
      <point x="395.0" y="268"/>
      <point x="395.0" y="335" type="curve" smooth="yes"/>
      <point x="395.0" y="400" type="line" smooth="yes"/>
      <point x="395.0" y="470"/>
      <point x="340.0" y="470"/>
      <point x="275.0" y="470" type="curve" smooth="yes"/>
      <point x="211.0" y="470"/>
      <point x="143.0" y="462"/>
      <point x="143.0" y="406" type="curve"/>
      <point x="143.0" y="335" type="line" smooth="yes"/>
      <point x="143.0" y="266"/>
      <point x="203.0" y="260"/>
    </contour>
  </outline>
</glyph>
<glyph name="peseta" format="1">
  <advance width="712.0"/>
  <unicode hex="20A7"/>
  <outline>
    <contour>
      <point x="397" y="297" type="line" smooth="yes"/>
      <point x="515" y="297"/>
      <point x="537" y="348"/>
      <point x="537" y="420" type="curve" smooth="yes"/>
      <point x="537" y="494" type="line" smooth="yes"/>
      <point x="537" y="566"/>
      <point x="515" y="620"/>
      <point x="397" y="620" type="curve" smooth="yes"/>
      <point x="191" y="620" type="line"/>
      <point x="191" y="297" type="line"/>
    </contour>
    <contour>
      <point x="294" y="533" type="line"/>
      <point x="384" y="533" type="line" smooth="yes"/>
      <point x="423" y="533"/>
      <point x="431" y="510"/>
      <point x="431" y="484" type="curve" smooth="yes"/>
      <point x="431" y="431" type="line" smooth="yes"/>
      <point x="431" y="405"/>
      <point x="423" y="382"/>
      <point x="384" y="382" type="curve" smooth="yes"/>
      <point x="294" y="382" type="line"/>
    </contour>
    <contour>
      <point x="181" y="463" type="line"/>
      <point x="181" y="630" type="line"/>
      <point x="397" y="630" type="line" smooth="yes"/>
      <point x="523" y="630"/>
      <point x="547" y="572"/>
      <point x="547" y="494" type="curve" smooth="yes"/>
      <point x="547" y="463" type="line"/>
      <point x="605" y="463" type="line"/>
      <point x="605" y="453" type="line"/>
      <point x="547" y="453" type="line"/>
      <point x="547" y="420" type="line" smooth="yes"/>
      <point x="547" y="342"/>
      <point x="523" y="287"/>
      <point x="397" y="287" type="curve" smooth="yes"/>
      <point x="191" y="287" type="line"/>
      <point x="191" y="90" type="line"/>
      <point x="181" y="90" type="line"/>
      <point x="181" y="453" type="line"/>
      <point x="123" y="453" type="line"/>
      <point x="123" y="463" type="line"/>
    </contour>
    <contour>
      <point x="296" y="36" type="curve" smooth="yes"/>
      <point x="296" y="202" type="line"/>
      <point x="411" y="202" type="line" smooth="yes"/>
      <point x="589" y="202"/>
      <point x="644" y="277"/>
      <point x="647" y="389" type="curve"/>
      <point x="664" y="389" type="line" smooth="yes"/>
      <point x="689" y="389"/>
      <point x="700" y="399"/>
      <point x="700" y="425" type="curve" smooth="yes"/>
      <point x="700" y="492" type="line" smooth="yes"/>
      <point x="700" y="518"/>
      <point x="689" y="528"/>
      <point x="664" y="528" type="curve" smooth="yes"/>
      <point x="647" y="528" type="line"/>
      <point x="647" y="641"/>
      <point x="593" y="720"/>
      <point x="411" y="720" type="curve" smooth="yes"/>
      <point x="105" y="720" type="line" smooth="yes"/>
      <point x="80" y="720"/>
      <point x="69" y="709"/>
      <point x="69" y="684" type="curve" smooth="yes"/>
      <point x="69" y="528" type="line"/>
      <point x="56" y="528" type="line" smooth="yes"/>
      <point x="31" y="528"/>
      <point x="20" y="517"/>
      <point x="20" y="492" type="curve" smooth="yes"/>
      <point x="20" y="425" type="line" smooth="yes"/>
      <point x="20" y="399"/>
      <point x="31" y="389"/>
      <point x="56" y="389" type="curve"/>
      <point x="69" y="389" type="line"/>
      <point x="69" y="36" type="line" smooth="yes"/>
      <point x="69" y="11"/>
      <point x="80" y="0"/>
      <point x="105" y="0" type="curve" smooth="yes"/>
      <point x="260" y="0" type="line" smooth="yes"/>
      <point x="285" y="0"/>
      <point x="296" y="11"/>
    </contour>
  </outline>
</glyph>
<glyph name="dong" format="1">
  <advance width="682"/>
  <unicode hex="20AB"/>
  <outline>
    <contour>
      <point x="580.0" y="184" type="curve"/>
      <point x="580.0" y="526" type="line"/>
      <point x="613.0" y="526" type="line" smooth="yes"/>
      <point x="638.0" y="526"/>
      <point x="649.0" y="537"/>
      <point x="649.0" y="562" type="curve" smooth="yes"/>
      <point x="649.0" y="609" type="line" smooth="yes"/>
      <point x="649.0" y="635"/>
      <point x="638.0" y="645"/>
      <point x="613.0" y="645" type="curve"/>
      <point x="580.0" y="645" type="line"/>
      <point x="580.0" y="684" type="line"/>
      <point x="580.0" y="709"/>
      <point x="569.0" y="720"/>
      <point x="544.0" y="720" type="curve" smooth="yes"/>
      <point x="419.0" y="720" type="line" smooth="yes"/>
      <point x="394.0" y="720"/>
      <point x="383.0" y="709"/>
      <point x="383.0" y="684" type="curve"/>
      <point x="383.0" y="645" type="line"/>
      <point x="295.0" y="645" type="line" smooth="yes"/>
      <point x="270.0" y="645"/>
      <point x="259.0" y="635"/>
      <point x="259.0" y="609" type="curve" smooth="yes"/>
      <point x="259.0" y="562" type="line" smooth="yes"/>
      <point x="259.0" y="536"/>
      <point x="270.0" y="526"/>
      <point x="295.0" y="526" type="curve" smooth="yes"/>
      <point x="383.0" y="526" type="line"/>
      <point x="383.0" y="465" type="line"/>
      <point x="252.0" y="465" type="line" smooth="yes"/>
      <point x="106.0" y="465"/>
      <point x="40.0" y="406"/>
      <point x="40.0" y="279" type="curve" smooth="yes"/>
      <point x="40.0" y="184" type="line" smooth="yes"/>
      <point x="40.0" y="74"/>
      <point x="94.0" y="-2"/>
      <point x="310.0" y="-2" type="curve" smooth="yes"/>
      <point x="528.0" y="-2"/>
      <point x="580.0" y="74"/>
    </contour>
    <contour>
      <point x="384.0" y="195" type="line"/>
      <point x="384.0" y="171"/>
      <point x="376.0" y="155"/>
      <point x="310.0" y="155" type="curve" smooth="yes"/>
      <point x="246.0" y="155"/>
      <point x="235.0" y="173"/>
      <point x="235.0" y="197" type="curve"/>
      <point x="235.0" y="269" type="line" smooth="yes"/>
      <point x="235.0" y="299"/>
      <point x="249.0" y="313"/>
      <point x="278.0" y="313" type="curve" smooth="yes"/>
      <point x="384.0" y="313" type="line"/>
    </contour>
    <contour>
      <point x="493.0" y="-45" type="curve"/>
      <point x="125.0" y="-45" type="line" smooth="yes"/>
      <point x="100.0" y="-45"/>
      <point x="89.0" y="-55"/>
      <point x="89.0" y="-81" type="curve" smooth="yes"/>
      <point x="89.0" y="-138" type="line" smooth="yes"/>
      <point x="89.0" y="-164"/>
      <point x="100.0" y="-174"/>
      <point x="125.0" y="-174" type="curve" smooth="yes"/>
      <point x="493.0" y="-174" type="line" smooth="yes"/>
      <point x="518.0" y="-174"/>
      <point x="529.0" y="-163"/>
      <point x="529.0" y="-138" type="curve" smooth="yes"/>
      <point x="529.0" y="-81" type="line" smooth="yes"/>
      <point x="529.0" y="-55"/>
      <point x="518.0" y="-45"/>
    </contour>
    <contour>
      <point x="307.0" y="72" type="curve" smooth="yes"/>
      <point x="186.0" y="71"/>
      <point x="133.0" y="114"/>
      <point x="133.0" y="189" type="curve" smooth="yes"/>
      <point x="133.0" y="274" type="line" smooth="yes"/>
      <point x="133.0" y="349"/>
      <point x="171.0" y="395"/>
      <point x="259.0" y="395" type="curve" smooth="yes"/>
      <point x="477.0" y="395" type="line"/>
      <point x="477.0" y="580" type="line"/>
      <point x="323.0" y="580" type="line"/>
      <point x="323.0" y="590" type="line"/>
      <point x="477.0" y="590" type="line"/>
      <point x="477.0" y="630" type="line"/>
      <point x="487.0" y="630" type="line"/>
      <point x="487.0" y="590" type="line"/>
      <point x="579.0" y="590" type="line"/>
      <point x="579.0" y="580" type="line"/>
      <point x="487.0" y="580" type="line"/>
      <point x="487.0" y="184" type="line" smooth="yes"/>
      <point x="487.0" y="111"/>
      <point x="428.0" y="73"/>
    </contour>
    <contour>
      <point x="307.0" y="82" type="curve" smooth="yes"/>
      <point x="418.0" y="83"/>
      <point x="477.0" y="115"/>
      <point x="477.0" y="184" type="curve" smooth="yes"/>
      <point x="477.0" y="385" type="line"/>
      <point x="259.0" y="385" type="line" smooth="yes"/>
      <point x="179.0" y="385"/>
      <point x="143.0" y="343"/>
      <point x="143.0" y="274" type="curve" smooth="yes"/>
      <point x="143.0" y="189" type="line" smooth="yes"/>
      <point x="143.0" y="118"/>
      <point x="196.0" y="81"/>
    </contour>
    <contour>
      <point x="439.0" y="-105" type="line"/>
      <point x="439.0" y="-115" type="line"/>
      <point x="179.0" y="-115" type="line"/>
      <point x="179.0" y="-105" type="line"/>
    </contour>
  </outline>
</glyph>
<glyph name="guarani" format="1">
  <advance width="688.0"/>
  <unicode hex="20B2"/>
  <outline>
    <contour>
      <point x="471.0" y="-14" type="curve" smooth="yes"/>
      <point x="471.0" y="40" type="line"/>
      <point x="599.0" y="40" type="line" smooth="yes"/>
      <point x="624.0" y="40"/>
      <point x="635.0" y="51"/>
      <point x="635.0" y="76" type="curve" smooth="yes"/>
      <point x="635.0" y="345" type="line" smooth="yes"/>
      <point x="635.0" y="370"/>
      <point x="624.0" y="381"/>
      <point x="599.0" y="381" type="curve" smooth="yes"/>
      <point x="454.0" y="381" type="line" smooth="yes"/>
      <point x="429.0" y="381"/>
      <point x="418.0" y="370"/>
      <point x="418.0" y="345" type="curve" smooth="yes"/>
      <point x="418.0" y="219" type="line"/>
      <point x="321.0" y="219" type="line" smooth="yes"/>
      <point x="290.0" y="219"/>
      <point x="275.0" y="234"/>
      <point x="275.0" y="268" type="curve" smooth="yes"/>
      <point x="275.0" y="447" type="line" smooth="yes"/>
      <point x="275.0" y="481"/>
      <point x="294.0" y="497"/>
      <point x="336.0" y="497" type="curve" smooth="yes"/>
      <point x="554.0" y="497" type="line" smooth="yes"/>
      <point x="579.0" y="497"/>
      <point x="590.0" y="508"/>
      <point x="590.0" y="533" type="curve" smooth="yes"/>
      <point x="590.0" y="644" type="line" smooth="yes"/>
      <point x="590.0" y="669"/>
      <point x="579.0" y="680"/>
      <point x="554.0" y="680" type="curve" smooth="yes"/>
      <point x="471.0" y="680" type="line"/>
      <point x="471.0" y="734" type="line" smooth="yes"/>
      <point x="471.0" y="759"/>
      <point x="460.0" y="770"/>
      <point x="435.0" y="770" type="curve" smooth="yes"/>
      <point x="290.0" y="770" type="line" smooth="yes"/>
      <point x="265.0" y="770"/>
      <point x="254.0" y="759"/>
      <point x="254.0" y="734" type="curve" smooth="yes"/>
      <point x="254.0" y="678" type="line"/>
      <point x="120.0" y="666"/>
      <point x="58.0" y="600"/>
      <point x="58.0" y="476" type="curve" smooth="yes"/>
      <point x="58.0" y="244" type="line" smooth="yes"/>
      <point x="58.0" y="120"/>
      <point x="120.0" y="54"/>
      <point x="254.0" y="42" type="curve"/>
      <point x="254.0" y="-14" type="line" smooth="yes"/>
      <point x="254.0" y="-39"/>
      <point x="265.0" y="-50"/>
      <point x="290.0" y="-50" type="curve" smooth="yes"/>
      <point x="435.0" y="-50" type="line" smooth="yes"/>
      <point x="460.0" y="-50"/>
      <point x="471.0" y="-39"/>
    </contour>
    <contour>
      <point x="358" y="40" type="line"/>
      <point x="358.0" y="125" type="line"/>
      <point x="342.0" y="125" type="line" smooth="yes"/>
      <point x="195.0" y="125"/>
      <point x="162.0" y="161"/>
      <point x="162.0" y="254" type="curve" smooth="yes"/>
      <point x="162.0" y="464" type="line" smooth="yes"/>
      <point x="162.0" y="559"/>
      <point x="194.0" y="595"/>
      <point x="322.0" y="595" type="curve" smooth="yes"/>
      <point x="358.0" y="595" type="line"/>
      <point x="358" y="680" type="line"/>
      <point x="368" y="680" type="line"/>
      <point x="368.0" y="595" type="line"/>
      <point x="495.0" y="595" type="line"/>
      <point x="495.0" y="585" type="line"/>
      <point x="322.0" y="585" type="line" smooth="yes"/>
      <point x="204.0" y="585"/>
      <point x="172.0" y="553"/>
      <point x="172.0" y="464" type="curve" smooth="yes"/>
      <point x="172.0" y="254" type="line" smooth="yes"/>
      <point x="172.0" y="167"/>
      <point x="207.0" y="133"/>
      <point x="342.0" y="135" type="curve" smooth="yes"/>
      <point x="521.0" y="138" type="line"/>
      <point x="521.0" y="284" type="line"/>
      <point x="531.0" y="281" type="line"/>
      <point x="531.0" y="125" type="line"/>
      <point x="368.0" y="125" type="line"/>
      <point x="368" y="40" type="line"/>
    </contour>
  </outline>
</glyph>
<glyph name="ruble" format="1">
  <advance width="682"/>
  <unicode hex="20BD"/>
  <outline>
    <contour>
      <point x="294.0" y="543" type="line"/>
      <point x="384.0" y="543" type="line" smooth="yes"/>
      <point x="423.0" y="543"/>
      <point x="431.0" y="520"/>
      <point x="431.0" y="494" type="curve" smooth="yes"/>
      <point x="431.0" y="471" type="line" smooth="yes"/>
      <point x="431.0" y="445"/>
      <point x="423.0" y="422"/>
      <point x="384.0" y="422" type="curve" smooth="yes"/>
      <point x="294.0" y="422" type="line"/>
    </contour>
    <contour>
      <point x="296.0" y="36" type="curve" smooth="yes"/>
      <point x="296.0" y="85" type="line"/>
      <point x="344.0" y="85" type="line" smooth="yes"/>
      <point x="369.0" y="85"/>
      <point x="380.0" y="95"/>
      <point x="380.0" y="121" type="curve" smooth="yes"/>
      <point x="380.0" y="178" type="line" smooth="yes"/>
      <point x="380.0" y="204"/>
      <point x="369.0" y="214"/>
      <point x="344.0" y="214" type="curve" smooth="yes"/>
      <point x="296.0" y="214" type="line"/>
      <point x="296.0" y="252" type="line"/>
      <point x="411.0" y="252" type="line" smooth="yes"/>
      <point x="593.0" y="252"/>
      <point x="647.0" y="331"/>
      <point x="647.0" y="447" type="curve" smooth="yes"/>
      <point x="647.0" y="525" type="line" smooth="yes"/>
      <point x="647.0" y="641"/>
      <point x="593.0" y="720"/>
      <point x="411.0" y="720" type="curve" smooth="yes"/>
      <point x="105.0" y="720" type="line" smooth="yes"/>
      <point x="80.0" y="720"/>
      <point x="69.0" y="709"/>
      <point x="69.0" y="684" type="curve" smooth="yes"/>
      <point x="69.0" y="214" type="line"/>
      <point x="56.0" y="214" type="line" smooth="yes"/>
      <point x="31.0" y="214"/>
      <point x="20.0" y="203"/>
      <point x="20.0" y="178" type="curve" smooth="yes"/>
      <point x="20.0" y="121" type="line" smooth="yes"/>
      <point x="20.0" y="95"/>
      <point x="31.0" y="85"/>
      <point x="56.0" y="85" type="curve"/>
      <point x="69.0" y="85" type="line"/>
      <point x="69.0" y="36" type="line" smooth="yes"/>
      <point x="69.0" y="11"/>
      <point x="80.0" y="0"/>
      <point x="105.0" y="0" type="curve" smooth="yes"/>
      <point x="260.0" y="0" type="line" smooth="yes"/>
      <point x="285.0" y="0"/>
      <point x="296.0" y="11"/>
    </contour>
    <contour>
      <point x="188" y="342" type="line"/>
      <point x="394" y="342" type="line" smooth="yes"/>
      <point x="512" y="342"/>
      <point x="534" y="393"/>
      <point x="534" y="465" type="curve" smooth="yes"/>
      <point x="534" y="494" type="line" smooth="yes"/>
      <point x="534" y="566"/>
      <point x="512" y="620"/>
      <point x="394" y="620" type="curve" smooth="yes"/>
      <point x="188" y="620" type="line"/>
    </contour>
    <contour>
      <point x="178" y="90" type="line"/>
      <point x="178" y="145" type="line"/>
      <point x="107" y="145" type="line"/>
      <point x="107" y="155" type="line"/>
      <point x="178" y="155" type="line"/>
      <point x="178" y="630" type="line"/>
      <point x="394" y="630" type="line" smooth="yes"/>
      <point x="520" y="630"/>
      <point x="544" y="572"/>
      <point x="544" y="494" type="curve" smooth="yes"/>
      <point x="544" y="465" type="line" smooth="yes"/>
      <point x="544" y="387"/>
      <point x="520" y="332"/>
      <point x="394" y="332" type="curve" smooth="yes"/>
      <point x="188" y="332" type="line"/>
      <point x="188" y="155" type="line"/>
      <point x="287" y="155" type="line"/>
      <point x="287" y="145" type="line"/>
      <point x="188" y="145" type="line"/>
      <point x="188" y="90" type="line"/>
    </contour>
  </outline>
</glyph>
<glyph name="liter" format="1">
  <advance width="649"/>
  <unicode hex="2113"/>
  <outline>
    <contour>
      <point x="514" y="36" type="curve" smooth="yes"/>
      <point x="514" y="153" type="line" smooth="yes"/>
      <point x="514" y="178"/>
      <point x="503" y="189"/>
      <point x="478" y="189" type="curve" smooth="yes"/>
      <point x="337" y="189" type="line" smooth="yes"/>
      <point x="285" y="189"/>
      <point x="276" y="209"/>
      <point x="276" y="237" type="curve"/>
      <point x="276" y="247" type="line"/>
      <point x="320" y="247" type="line" smooth="yes"/>
      <point x="538" y="247"/>
      <point x="591" y="323"/>
      <point x="591" y="437" type="curve"/>
      <point x="591" y="531" type="line" smooth="yes"/>
      <point x="591" y="653"/>
      <point x="538" y="735"/>
      <point x="320" y="735" type="curve" smooth="yes"/>
      <point x="108" y="735"/>
      <point x="58" y="653"/>
      <point x="58" y="531" type="curve"/>
      <point x="58" y="204" type="line" smooth="yes"/>
      <point x="58" y="83"/>
      <point x="115" y="0"/>
      <point x="304" y="0" type="curve" smooth="yes"/>
      <point x="478" y="0" type="line" smooth="yes"/>
      <point x="503" y="0"/>
      <point x="514" y="11"/>
    </contour>
    <contour>
      <point x="178" y="330" type="line"/>
      <point x="327" y="330" type="line" smooth="yes"/>
      <point x="421" y="330"/>
      <point x="472" y="359"/>
      <point x="472" y="437" type="curve" smooth="yes"/>
      <point x="472" y="520" type="line" smooth="yes"/>
      <point x="472" y="601"/>
      <point x="428" y="642"/>
      <point x="317" y="642" type="curve" smooth="yes"/>
      <point x="206" y="642"/>
      <point x="178" y="602"/>
      <point x="178" y="519" type="curve" smooth="yes"/>
    </contour>
    <contour>
      <point x="320" y="406" type="curve"/>
      <point x="276" y="406" type="line"/>
      <point x="276" y="515" type="line"/>
      <point x="276" y="542"/>
      <point x="282" y="562"/>
      <point x="320" y="562" type="curve" smooth="yes"/>
      <point x="358" y="562"/>
      <point x="364" y="542"/>
      <point x="364" y="515" type="curve" smooth="yes"/>
      <point x="364" y="453" type="line" smooth="yes"/>
      <point x="364" y="426"/>
      <point x="358" y="406"/>
    </contour>
    <contour>
      <point x="178" y="320" type="line"/>
      <point x="178" y="216" type="line" smooth="yes"/>
      <point x="178" y="134"/>
      <point x="219" y="99"/>
      <point x="315" y="99" type="curve" smooth="yes"/>
      <point x="424" y="99" type="line"/>
      <point x="424" y="89" type="line"/>
      <point x="315" y="89" type="line" smooth="yes"/>
      <point x="211" y="89"/>
      <point x="168" y="128"/>
      <point x="168" y="216" type="curve" smooth="yes"/>
      <point x="168" y="519" type="line" smooth="yes"/>
      <point x="168" y="608"/>
      <point x="196" y="652"/>
      <point x="317" y="652" type="curve" smooth="yes"/>
      <point x="438" y="652"/>
      <point x="482" y="607"/>
      <point x="482" y="520" type="curve" smooth="yes"/>
      <point x="482" y="437" type="line" smooth="yes"/>
      <point x="482" y="353"/>
      <point x="429" y="320"/>
      <point x="327" y="320" type="curve" smooth="yes"/>
    </contour>
  </outline>
</glyph>
<glyph name="arrowupright" format="1">
  <advance width="1000"/>
  <unicode hex="2197"/>
  <outline>
    <contour>
      <point x="389.0" y="108" type="curve" smooth="yes"/>
      <point x="507.0" y="242" type="line"/>
      <point x="629.0" y="121" type="line" smooth="yes"/>
      <point x="645.0" y="105"/>
      <point x="676.0" y="119"/>
      <point x="682.0" y="145" type="curve" smooth="yes"/>
      <point x="761.0" y="555" type="line" smooth="yes"/>
      <point x="766.0" y="577"/>
      <point x="766.0" y="595"/>
      <point x="751.0" y="610" type="curve"/>
      <point x="735.0" y="626"/>
      <point x="717.0" y="626"/>
      <point x="695.0" y="621" type="curve" smooth="yes"/>
      <point x="285.0" y="542" type="line" smooth="yes"/>
      <point x="259.0" y="536"/>
      <point x="245.0" y="505"/>
      <point x="261.0" y="489" type="curve" smooth="yes"/>
      <point x="382.0" y="367" type="line"/>
      <point x="248.0" y="249" type="line" smooth="yes"/>
      <point x="231.0" y="234"/>
      <point x="233.0" y="218"/>
      <point x="249.0" y="204" type="curve" smooth="yes"/>
      <point x="343.0" y="109" type="line" smooth="yes"/>
      <point x="358.0" y="93"/>
      <point x="373.0" y="91"/>
    </contour>
    <contour>
      <point x="605.0" y="295" type="line"/>
      <point x="645.0" y="504" type="line"/>
      <point x="437.0" y="463" type="line"/>
    </contour>
    <contour>
      <point x="611.0" y="275" type="line"/>
      <point x="517.0" y="369" type="line"/>
      <point x="364.0" y="216" type="line"/>
      <point x="357.0" y="223" type="line"/>
      <point x="510.0" y="376" type="line"/>
      <point x="417.0" y="469" type="line"/>
      <point x="658.0" y="517" type="line"/>
    </contour>
  </outline>
</glyph>
<glyph name="arrowdownleft" format="1">
  <advance width="1000"/>
  <unicode hex="2199"/>
  <outline>
    <contour>
      <point x="751.0" y="518" type="curve" smooth="yes"/>
      <point x="656.0" y="611" type="line" smooth="yes"/>
      <point x="642.0" y="627"/>
      <point x="626.0" y="629"/>
      <point x="611.0" y="612" type="curve" smooth="yes"/>
      <point x="493.0" y="478" type="line"/>
      <point x="371.0" y="599" type="line" smooth="yes"/>
      <point x="355.0" y="615"/>
      <point x="324.0" y="602"/>
      <point x="318.0" y="575" type="curve" smooth="yes"/>
      <point x="239.0" y="165" type="line" smooth="yes"/>
      <point x="234.0" y="143"/>
      <point x="234.0" y="125"/>
      <point x="250.0" y="109" type="curve"/>
      <point x="265.0" y="94"/>
      <point x="283.0" y="94"/>
      <point x="305.0" y="99" type="curve" smooth="yes"/>
      <point x="715.0" y="178" type="line" smooth="yes"/>
      <point x="741.0" y="184"/>
      <point x="755.0" y="215"/>
      <point x="739.0" y="231" type="curve" smooth="yes"/>
      <point x="618.0" y="353" type="line"/>
      <point x="752.0" y="471" type="line" smooth="yes"/>
      <point x="769.0" y="487"/>
      <point x="767.0" y="502"/>
    </contour>
    <contour>
      <point x="352.0" y="205" type="line"/>
      <point x="399.0" y="447" type="line"/>
      <point x="493.0" y="353" type="line"/>
      <point x="646.0" y="506" type="line"/>
      <point x="653.0" y="499" type="line"/>
      <point x="500.0" y="346" type="line"/>
      <point x="593.0" y="253" type="line"/>
    </contour>
    <contour>
      <point x="365.0" y="218" type="line"/>
      <point x="573.0" y="259" type="line"/>
      <point x="405.0" y="427" type="line"/>
    </contour>
  </outline>
</glyph>
<glyph name="uni21AA" format="1">
  <advance width="1000"/>
  <unicode hex="21AA"/>
  <outline>
    <contour>
      <point x="509.0" y="-34" type="curve" smooth="yes"/>
      <point x="833.0" y="184" type="line" smooth="yes"/>
      <point x="851.0" y="194"/>
      <point x="863.0" y="206"/>
      <point x="863.0" y="226" type="curve"/>
      <point x="863.0" y="246"/>
      <point x="851.0" y="258"/>
      <point x="833.0" y="269" type="curve" smooth="yes"/>
      <point x="509.0" y="487" type="line" smooth="yes"/>
      <point x="487.0" y="501"/>
      <point x="455.0" y="488"/>
      <point x="457.0" y="468" type="curve" smooth="yes"/>
      <point x="498.0" y="309" type="line"/>
      <point x="412.0" y="309" type="line" smooth="yes"/>
      <point x="367.0" y="309"/>
      <point x="345.0" y="326"/>
      <point x="345.0" y="370" type="curve" smooth="yes"/>
      <point x="345.0" y="533" type="line" smooth="yes"/>
      <point x="345.0" y="577"/>
      <point x="367.0" y="594"/>
      <point x="412.0" y="594" type="curve" smooth="yes"/>
      <point x="735.0" y="594" type="line" smooth="yes"/>
      <point x="755.0" y="594"/>
      <point x="765.0" y="601"/>
      <point x="765.0" y="624" type="curve" smooth="yes"/>
      <point x="765.0" y="729" type="line" smooth="yes"/>
      <point x="765.0" y="750"/>
      <point x="755.0" y="760"/>
      <point x="735.0" y="760" type="curve" smooth="yes"/>
      <point x="396.0" y="760" type="line" smooth="yes"/>
      <point x="228.0" y="760"/>
      <point x="178.0" y="689"/>
      <point x="178.0" y="582" type="curve" smooth="yes"/>
      <point x="178.0" y="321" type="line" smooth="yes"/>
      <point x="178.0" y="214"/>
      <point x="228.0" y="143"/>
      <point x="396.0" y="143" type="curve" smooth="yes"/>
      <point x="498.0" y="143" type="line"/>
      <point x="457.0" y="-15" type="line" smooth="yes"/>
      <point x="455.0" y="-35"/>
      <point x="487.0" y="-49"/>
    </contour>
    <contour>
      <point x="590.0" y="136" type="line"/>
      <point x="590.0" y="221" type="line"/>
      <point x="392.0" y="221" type="line" smooth="yes"/>
      <point x="310.0" y="221"/>
      <point x="257.0" y="267"/>
      <point x="257.0" y="345" type="curve" smooth="yes"/>
      <point x="257.0" y="552" type="line" smooth="yes"/>
      <point x="257.0" y="630"/>
      <point x="308.0" y="682"/>
      <point x="400.0" y="682" type="curve" smooth="yes"/>
      <point x="675.0" y="682" type="line"/>
      <point x="675.0" y="672" type="line"/>
      <point x="400.0" y="672" type="line" smooth="yes"/>
      <point x="316.0" y="672"/>
      <point x="267.0" y="624"/>
      <point x="267.0" y="552" type="curve" smooth="yes"/>
      <point x="267.0" y="345" type="line" smooth="yes"/>
      <point x="267.0" y="273"/>
      <point x="316.0" y="231"/>
      <point x="392.0" y="231" type="curve" smooth="yes"/>
      <point x="590.0" y="231" type="line"/>
      <point x="590.0" y="318" type="line"/>
      <point x="726.0" y="227" type="line"/>
    </contour>
    <contour>
      <point x="600.0" y="154" type="line"/>
      <point x="708.0" y="227" type="line"/>
      <point x="600.0" y="300" type="line"/>
    </contour>
  </outline>
</glyph>
<glyph name="uni21AB" format="1">
  <advance width="1000"/>
  <unicode hex="21AB"/>
  <outline>
    <contour>
      <point x="512.0" y="-34" type="line" smooth="yes"/>
      <point x="534.0" y="-49"/>
      <point x="566.0" y="-35"/>
      <point x="564.0" y="-15" type="curve" smooth="yes"/>
      <point x="523.0" y="143" type="line"/>
      <point x="625.0" y="143" type="line" smooth="yes"/>
      <point x="793.0" y="143"/>
      <point x="843.0" y="214"/>
      <point x="843.0" y="321" type="curve" smooth="yes"/>
      <point x="843.0" y="582" type="line" smooth="yes"/>
      <point x="843.0" y="689"/>
      <point x="793.0" y="760"/>
      <point x="625.0" y="760" type="curve" smooth="yes"/>
      <point x="286.0" y="760" type="line" smooth="yes"/>
      <point x="266.0" y="760"/>
      <point x="256.0" y="750"/>
      <point x="256.0" y="729" type="curve" smooth="yes"/>
      <point x="256.0" y="624" type="line" smooth="yes"/>
      <point x="256.0" y="601"/>
      <point x="266.0" y="594"/>
      <point x="286.0" y="594" type="curve" smooth="yes"/>
      <point x="609.0" y="594" type="line" smooth="yes"/>
      <point x="654.0" y="594"/>
      <point x="676.0" y="577"/>
      <point x="676.0" y="533" type="curve" smooth="yes"/>
      <point x="676.0" y="370" type="line" smooth="yes"/>
      <point x="676.0" y="326"/>
      <point x="654.0" y="309"/>
      <point x="609.0" y="309" type="curve" smooth="yes"/>
      <point x="523.0" y="309" type="line"/>
      <point x="564.0" y="468" type="line" smooth="yes"/>
      <point x="566.0" y="488"/>
      <point x="534.0" y="501"/>
      <point x="512.0" y="487" type="curve" smooth="yes"/>
      <point x="188.0" y="269" type="line" smooth="yes"/>
      <point x="170.0" y="258"/>
      <point x="158.0" y="246"/>
      <point x="158.0" y="226" type="curve"/>
      <point x="158.0" y="206"/>
      <point x="170.0" y="194"/>
      <point x="188.0" y="184" type="curve" smooth="yes"/>
    </contour>
    <contour>
      <point x="431.0" y="136" type="line"/>
      <point x="295.0" y="227" type="line"/>
      <point x="431.0" y="318" type="line"/>
      <point x="431.0" y="231" type="line"/>
      <point x="629.0" y="231" type="line" smooth="yes"/>
      <point x="705.0" y="231"/>
      <point x="754.0" y="273"/>
      <point x="754.0" y="345" type="curve" smooth="yes"/>
      <point x="754.0" y="552" type="line" smooth="yes"/>
      <point x="754.0" y="624"/>
      <point x="705.0" y="672"/>
      <point x="621.0" y="672" type="curve" smooth="yes"/>
      <point x="346.0" y="672" type="line"/>
      <point x="346.0" y="682" type="line"/>
      <point x="621.0" y="682" type="line" smooth="yes"/>
      <point x="713.0" y="682"/>
      <point x="764.0" y="630"/>
      <point x="764.0" y="552" type="curve" smooth="yes"/>
      <point x="764.0" y="345" type="line" smooth="yes"/>
      <point x="764.0" y="267"/>
      <point x="711.0" y="221"/>
      <point x="629.0" y="221" type="curve" smooth="yes"/>
      <point x="431.0" y="221" type="line"/>
    </contour>
    <contour>
      <point x="421.0" y="154" type="line"/>
      <point x="421.0" y="300" type="line"/>
      <point x="313.0" y="227" type="line"/>
    </contour>
  </outline>
</glyph>
<glyph name="radical" format="1">
  <advance width="741"/>
  <unicode hex="221A"/>
  <outline>
    <contour>
      <point x="65.0" y="298" type="curve"/>
      <point x="128.0" y="298" type="line"/>
      <point x="229.0" y="33" type="line"/>
      <point x="240.0" y="9"/>
      <point x="253.0" y="0"/>
      <point x="279.0" y="0" type="curve" smooth="yes"/>
      <point x="500.0" y="0" type="line" smooth="yes"/>
      <point x="526.0" y="0"/>
      <point x="540.0" y="9"/>
      <point x="551.0" y="33" type="curve"/>
      <point x="729.0" y="774" type="line" smooth="yes"/>
      <point x="736.0" y="798"/>
      <point x="724.0" y="810"/>
      <point x="699.0" y="810" type="curve" smooth="yes"/>
      <point x="559.0" y="810" type="line" smooth="yes"/>
      <point x="534.0" y="810"/>
      <point x="523.0" y="798"/>
      <point x="517.0" y="774" type="curve" smooth="yes"/>
      <point x="404.0" y="258" type="line" smooth="yes"/>
      <point x="401.0" y="244"/>
      <point x="396.0" y="241"/>
      <point x="384.0" y="241" type="curve" smooth="yes"/>
      <point x="379.0" y="241" type="line" smooth="yes"/>
      <point x="367.0" y="241"/>
      <point x="364.0" y="245"/>
      <point x="359.0" y="258" type="curve" smooth="yes"/>
      <point x="289.0" y="461" type="line" smooth="yes"/>
      <point x="280.0" y="484"/>
      <point x="272.0" y="497"/>
      <point x="247.0" y="497" type="curve" smooth="yes"/>
      <point x="65.0" y="497" type="line" smooth="yes"/>
      <point x="40.0" y="497"/>
      <point x="29.0" y="486"/>
      <point x="29.0" y="461" type="curve" smooth="yes"/>
      <point x="29.0" y="334" type="line" smooth="yes"/>
      <point x="29.0" y="308"/>
      <point x="40.0" y="298"/>
    </contour>
    <contour>
      <point x="119.0" y="392" type="line"/>
      <point x="119.0" y="402" type="line"/>
      <point x="188.0" y="402" type="line" smooth="yes"/>
      <point x="202.0" y="402"/>
      <point x="207.0" y="398"/>
      <point x="212.0" y="385" type="curve" smooth="yes"/>
      <point x="311.0" y="111" type="line" smooth="yes"/>
      <point x="314.0" y="101"/>
      <point x="318.0" y="95"/>
      <point x="329.0" y="95" type="curve" smooth="yes"/>
      <point x="444.0" y="95" type="line" smooth="yes"/>
      <point x="454.0" y="95"/>
      <point x="461.0" y="98"/>
      <point x="464.0" y="111" type="curve" smooth="yes"/>
      <point x="606.0" y="720" type="line"/>
      <point x="616.0" y="720" type="line"/>
      <point x="474.0" y="109" type="line" smooth="yes"/>
      <point x="470.0" y="90"/>
      <point x="458.0" y="85"/>
      <point x="444.0" y="85" type="curve" smooth="yes"/>
      <point x="329.0" y="85" type="line" smooth="yes"/>
      <point x="312.0" y="85"/>
      <point x="306.0" y="93"/>
      <point x="301.0" y="107" type="curve" smooth="yes"/>
      <point x="202.0" y="381" type="line" smooth="yes"/>
      <point x="199.0" y="390"/>
      <point x="196.0" y="392"/>
      <point x="188.0" y="392" type="curve" smooth="yes"/>
    </contour>
  </outline>
</glyph>
<glyph name="integral" format="1">
  <advance width="474"/>
  <unicode hex="222B"/>
  <outline>
    <contour>
      <point x="123.0" y="605" type="curve"/>
      <point x="123.0" y="153" type="line" smooth="yes"/>
      <point x="123.0" y="127"/>
      <point x="117.0" y="103"/>
      <point x="82.0" y="103" type="curve" smooth="yes"/>
      <point x="51.0" y="103" type="line" smooth="yes"/>
      <point x="26.0" y="103"/>
      <point x="15.0" y="92"/>
      <point x="15.0" y="67" type="curve" smooth="yes"/>
      <point x="15.0" y="-54" type="line" smooth="yes"/>
      <point x="15.0" y="-79"/>
      <point x="26.0" y="-90"/>
      <point x="51.0" y="-90" type="curve" smooth="yes"/>
      <point x="105.0" y="-90" type="line" smooth="yes"/>
      <point x="294.0" y="-90"/>
      <point x="351.0" y="-7"/>
      <point x="351.0" y="115" type="curve" smooth="yes"/>
      <point x="351.0" y="567" type="line" smooth="yes"/>
      <point x="351.0" y="593"/>
      <point x="357.0" y="617"/>
      <point x="392.0" y="617" type="curve" smooth="yes"/>
      <point x="423.0" y="617" type="line" smooth="yes"/>
      <point x="448.0" y="617"/>
      <point x="459.0" y="628"/>
      <point x="459.0" y="653" type="curve" smooth="yes"/>
      <point x="459.0" y="774" type="line" smooth="yes"/>
      <point x="459.0" y="799"/>
      <point x="448.0" y="810"/>
      <point x="423.0" y="810" type="curve" smooth="yes"/>
      <point x="369.0" y="810" type="line" smooth="yes"/>
      <point x="180.0" y="810"/>
      <point x="123.0" y="727"/>
    </contour>
    <contour>
      <point x="359.0" y="718" type="curve"/>
      <point x="359.0" y="708" type="line"/>
      <point x="290.0" y="708"/>
      <point x="242.0" y="683"/>
      <point x="242.0" y="597" type="curve" smooth="yes"/>
      <point x="242.0" y="136" type="line" smooth="yes"/>
      <point x="242.0" y="24"/>
      <point x="213.0" y="2"/>
      <point x="105.0" y="2" type="curve"/>
      <point x="105.0" y="12" type="line"/>
      <point x="206.0" y="12"/>
      <point x="232.0" y="32"/>
      <point x="232.0" y="136" type="curve" smooth="yes"/>
      <point x="232.0" y="597" type="line" smooth="yes"/>
      <point x="232.0" y="689"/>
      <point x="282.0" y="718"/>
    </contour>
  </outline>
</glyph>
<glyph name="lessequal" format="1">
  <advance width="714"/>
  <unicode hex="2264"/>
  <outline>
    <contour>
      <point x="534" y="246" type="line"/>
      <point x="534" y="236" type="line"/>
      <point x="234" y="322" type="line" smooth="yes"/>
      <point x="200" y="332"/>
      <point x="176" y="349"/>
      <point x="176" y="393" type="curve" smooth="yes"/>
      <point x="176" y="465" type="line" smooth="yes"/>
      <point x="176" y="509"/>
      <point x="200" y="523"/>
      <point x="234" y="533" type="curve" smooth="yes"/>
      <point x="534" y="619" type="line"/>
      <point x="534" y="609" type="line"/>
      <point x="236" y="523" type="line" smooth="yes"/>
      <point x="208" y="515"/>
      <point x="186" y="503"/>
      <point x="186" y="465" type="curve" smooth="yes"/>
      <point x="186" y="393" type="line" smooth="yes"/>
      <point x="186" y="355"/>
      <point x="208" y="340"/>
      <point x="236" y="332" type="curve" smooth="yes"/>
    </contour>
    <contour>
      <point x="588" y="0" type="line" smooth="yes"/>
      <point x="613" y="0"/>
      <point x="624" y="10"/>
      <point x="624" y="36" type="curve" smooth="yes"/>
      <point x="624" y="292" type="line" smooth="yes"/>
      <point x="624" y="318"/>
      <point x="613" y="329"/>
      <point x="588" y="333" type="curve" smooth="yes"/>
      <point x="301" y="410" type="line" smooth="yes"/>
      <point x="287" y="413"/>
      <point x="284" y="417"/>
      <point x="284" y="429" type="curve" smooth="yes"/>
      <point x="284" y="441"/>
      <point x="287" y="445"/>
      <point x="301" y="448" type="curve" smooth="yes"/>
      <point x="588" y="525" type="line" smooth="yes"/>
      <point x="613" y="529"/>
      <point x="624" y="540"/>
      <point x="624" y="566" type="curve" smooth="yes"/>
      <point x="624" y="698" type="line" smooth="yes"/>
      <point x="624" y="724"/>
      <point x="613" y="734"/>
      <point x="588" y="729" type="curve" smooth="yes"/>
      <point x="207" y="620" type="line" smooth="yes"/>
      <point x="124" y="596"/>
      <point x="80" y="564"/>
      <point x="80" y="465" type="curve" smooth="yes"/>
      <point x="80" y="393" type="line" smooth="yes"/>
      <point x="80" y="294"/>
      <point x="124" y="262"/>
      <point x="207" y="238" type="curve"/>
      <point x="389" y="186" type="line"/>
      <point x="116" y="186" type="line" smooth="yes"/>
      <point x="91" y="186"/>
      <point x="80" y="175"/>
      <point x="80" y="150" type="curve" smooth="yes"/>
      <point x="80" y="36" type="line" smooth="yes"/>
      <point x="80" y="10"/>
      <point x="91" y="0"/>
      <point x="116" y="0" type="curve"/>
    </contour>
    <contour>
      <point x="176" y="90" type="line"/>
      <point x="176" y="100" type="line"/>
      <point x="534" y="100" type="line"/>
      <point x="534" y="90" type="line"/>
    </contour>
  </outline>
</glyph>
<glyph name="greaterequal" format="1">
  <advance width="714"/>
  <unicode hex="2265"/>
  <outline>
    <contour>
      <point x="598" y="0" type="line" smooth="yes"/>
      <point x="623" y="0"/>
      <point x="634" y="10"/>
      <point x="634" y="36" type="curve" smooth="yes"/>
      <point x="634" y="150" type="line" smooth="yes"/>
      <point x="634" y="176"/>
      <point x="623" y="186"/>
      <point x="598" y="186" type="curve" smooth="yes"/>
      <point x="325" y="186" type="line"/>
      <point x="507" y="238" type="line"/>
      <point x="590" y="262"/>
      <point x="634" y="294"/>
      <point x="634" y="393" type="curve" smooth="yes"/>
      <point x="634" y="465" type="line" smooth="yes"/>
      <point x="634" y="564"/>
      <point x="590" y="596"/>
      <point x="507" y="620" type="curve" smooth="yes"/>
      <point x="126" y="729" type="line" smooth="yes"/>
      <point x="101" y="734"/>
      <point x="90" y="724"/>
      <point x="90" y="698" type="curve" smooth="yes"/>
      <point x="90" y="566" type="line" smooth="yes"/>
      <point x="90" y="540"/>
      <point x="101" y="529"/>
      <point x="126" y="525" type="curve" smooth="yes"/>
      <point x="413" y="448" type="line" smooth="yes"/>
      <point x="427" y="445"/>
      <point x="430" y="441"/>
      <point x="430" y="429" type="curve" smooth="yes"/>
      <point x="430" y="417"/>
      <point x="427" y="413"/>
      <point x="413" y="410" type="curve" smooth="yes"/>
      <point x="126" y="333" type="line" smooth="yes"/>
      <point x="101" y="329"/>
      <point x="90" y="318"/>
      <point x="90" y="292" type="curve" smooth="yes"/>
      <point x="90" y="36" type="line" smooth="yes"/>
      <point x="90" y="10"/>
      <point x="101" y="0"/>
      <point x="126" y="0" type="curve"/>
    </contour>
    <contour>
      <point x="480" y="322" type="curve" smooth="yes"/>
      <point x="180" y="236" type="line"/>
      <point x="180" y="246" type="line"/>
      <point x="478" y="332" type="line" smooth="yes"/>
      <point x="506" y="340"/>
      <point x="528" y="355"/>
      <point x="528" y="393" type="curve" smooth="yes"/>
      <point x="528" y="465" type="line" smooth="yes"/>
      <point x="528" y="503"/>
      <point x="506" y="515"/>
      <point x="478" y="523" type="curve" smooth="yes"/>
      <point x="180" y="609" type="line"/>
      <point x="180" y="619" type="line"/>
      <point x="480" y="533" type="line" smooth="yes"/>
      <point x="514" y="523"/>
      <point x="538" y="509"/>
      <point x="538" y="465" type="curve" smooth="yes"/>
      <point x="538" y="393" type="line" smooth="yes"/>
      <point x="538" y="349"/>
      <point x="514" y="332"/>
    </contour>
    <contour>
      <point x="180" y="90" type="line"/>
      <point x="180" y="100" type="line"/>
      <point x="538" y="100" type="line"/>
      <point x="538" y="90" type="line"/>
    </contour>
  </outline>
</glyph>
<glyph name="whiteleftpointingtriangle" format="1">
  <advance width="1000"/>
  <unicode hex="25C1"/>
  <outline>
    <contour>
      <point x="693.0" y="650" type="curve" smooth="yes"/>
      <point x="684.0" y="650"/>
      <point x="676.0" y="648"/>
      <point x="667.0" y="643" type="curve" smooth="yes"/>
      <point x="300.0" y="419" type="line" smooth="yes"/>
      <point x="277.0" y="404"/>
      <point x="264.0" y="388"/>
      <point x="264.0" y="364" type="curve" smooth="yes"/>
      <point x="264.0" y="338"/>
      <point x="277.0" y="323"/>
      <point x="300.0" y="309" type="curve" smooth="yes"/>
      <point x="667.0" y="84" type="line" smooth="yes"/>
      <point x="676.0" y="79"/>
      <point x="684.0" y="77"/>
      <point x="693.0" y="77" type="curve" smooth="yes"/>
      <point x="717.0" y="77"/>
      <point x="735.0" y="92"/>
      <point x="735.0" y="113" type="curve" smooth="yes"/>
      <point x="735.0" y="614" type="line" smooth="yes"/>
      <point x="735.0" y="634"/>
      <point x="717.0" y="650"/>
    </contour>
    <contour>
      <point x="715.0" y="113" type="line" smooth="yes"/>
      <point x="715.0" y="102"/>
      <point x="703.0" y="97"/>
      <point x="693.0" y="97" type="curve" smooth="yes"/>
      <point x="688.0" y="97"/>
      <point x="682.0" y="99"/>
      <point x="677.0" y="102" type="curve" smooth="yes"/>
      <point x="310.0" y="325" type="line" smooth="yes"/>
      <point x="295.0" y="335"/>
      <point x="284.0" y="346"/>
      <point x="284.0" y="364" type="curve" smooth="yes"/>
      <point x="284.0" y="382"/>
      <point x="295.0" y="392"/>
      <point x="310.0" y="401" type="curve" smooth="yes"/>
      <point x="677.0" y="625" type="line" smooth="yes"/>
      <point x="682.0" y="628"/>
      <point x="688.0" y="630"/>
      <point x="693.0" y="630" type="curve" smooth="yes"/>
      <point x="703.0" y="630"/>
      <point x="715.0" y="624"/>
      <point x="715.0" y="614" type="curve" smooth="yes"/>
    </contour>
  </outline>
</glyph>
<glyph name="lozenge" format="1">
  <advance width="731"/>
  <unicode hex="25CA"/>
  <outline>
    <contour>
      <point x="250.0" y="720" type="line" smooth="yes"/>
      <point x="224.0" y="720"/>
      <point x="210.0" y="711"/>
      <point x="199.0" y="687" type="curve" smooth="yes"/>
      <point x="83.0" y="429" type="line"/>
      <point x="71.0" y="402"/>
      <point x="69.0" y="392"/>
      <point x="69.0" y="371" type="curve" smooth="yes"/>
      <point x="69.0" y="348" type="line" smooth="yes"/>
      <point x="69.0" y="327"/>
      <point x="71.0" y="317"/>
      <point x="83.0" y="290" type="curve"/>
      <point x="199.0" y="33" type="line" smooth="yes"/>
      <point x="210.0" y="9"/>
      <point x="223.0" y="0"/>
      <point x="249.0" y="0" type="curve" smooth="yes"/>
      <point x="480.0" y="0" type="line" smooth="yes"/>
      <point x="506.0" y="0"/>
      <point x="520.0" y="9"/>
      <point x="531.0" y="33" type="curve" smooth="yes"/>
      <point x="647.0" y="290" type="line" smooth="yes"/>
      <point x="659.0" y="317"/>
      <point x="661.0" y="327"/>
      <point x="661.0" y="348" type="curve" smooth="yes"/>
      <point x="661.0" y="371" type="line" smooth="yes"/>
      <point x="661.0" y="392"/>
      <point x="659.0" y="402"/>
      <point x="647.0" y="429" type="curve" smooth="yes"/>
      <point x="531.0" y="687" type="line" smooth="yes"/>
      <point x="520.0" y="711"/>
      <point x="507.0" y="720"/>
      <point x="481.0" y="720" type="curve" smooth="yes"/>
    </contour>
    <contour>
      <point x="445.0" y="359" type="line"/>
      <point x="387.0" y="220" type="line" smooth="yes"/>
      <point x="381.0" y="207"/>
      <point x="379.0" y="203"/>
      <point x="367.0" y="203" type="curve" smooth="yes"/>
      <point x="362.0" y="203" type="line" smooth="yes"/>
      <point x="350.0" y="203"/>
      <point x="348.0" y="207"/>
      <point x="342.0" y="220" type="curve" smooth="yes"/>
      <point x="284.0" y="361" type="line"/>
      <point x="342.0" y="500" type="line" smooth="yes"/>
      <point x="348.0" y="513"/>
      <point x="350.0" y="517"/>
      <point x="362.0" y="517" type="curve" smooth="yes"/>
      <point x="367.0" y="517" type="line" smooth="yes"/>
      <point x="379.0" y="517"/>
      <point x="381.0" y="513"/>
      <point x="387.0" y="500" type="curve" smooth="yes"/>
    </contour>
    <contour>
      <point x="268.0" y="599" type="line" smooth="yes"/>
      <point x="276.0" y="616"/>
      <point x="286.0" y="623"/>
      <point x="305.0" y="623" type="curve" smooth="yes"/>
      <point x="425.0" y="623" type="line" smooth="yes"/>
      <point x="443.0" y="623"/>
      <point x="453.0" y="616"/>
      <point x="461.0" y="599" type="curve" smooth="yes"/>
      <point x="549.0" y="405" type="line" smooth="yes"/>
      <point x="557.0" y="387"/>
      <point x="558.0" y="381"/>
      <point x="558.0" y="367" type="curve" smooth="yes"/>
      <point x="558.0" y="353" type="line" smooth="yes"/>
      <point x="558.0" y="338"/>
      <point x="557.0" y="332"/>
      <point x="549.0" y="314" type="curve" smooth="yes"/>
      <point x="462.0" y="121" type="line" smooth="yes"/>
      <point x="454.0" y="104"/>
      <point x="444.0" y="97"/>
      <point x="425.0" y="97" type="curve" smooth="yes"/>
      <point x="304.0" y="97" type="line" smooth="yes"/>
      <point x="286.0" y="97"/>
      <point x="276.0" y="104"/>
      <point x="268.0" y="121" type="curve" smooth="yes"/>
      <point x="181.0" y="314" type="line" smooth="yes"/>
      <point x="173.0" y="332"/>
      <point x="172.0" y="338"/>
      <point x="172.0" y="353" type="curve" smooth="yes"/>
      <point x="172.0" y="367" type="line" smooth="yes"/>
      <point x="172.0" y="381"/>
      <point x="173.0" y="387"/>
      <point x="181.0" y="405" type="curve" smooth="yes"/>
    </contour>
    <contour>
      <point x="425.0" y="618" type="curve" smooth="yes"/>
      <point x="305.0" y="618" type="line" smooth="yes"/>
      <point x="288.0" y="618"/>
      <point x="280.0" y="612"/>
      <point x="273.0" y="597" type="curve" smooth="yes"/>
      <point x="186.0" y="403" type="line" smooth="yes"/>
      <point x="178.0" y="386"/>
      <point x="177.0" y="380"/>
      <point x="177.0" y="367" type="curve" smooth="yes"/>
      <point x="177.0" y="353" type="line" smooth="yes"/>
      <point x="177.0" y="339"/>
      <point x="178.0" y="333"/>
      <point x="186.0" y="316" type="curve" smooth="yes"/>
      <point x="273.0" y="123" type="line" smooth="yes"/>
      <point x="280.0" y="108"/>
      <point x="288.0" y="102"/>
      <point x="304.0" y="102" type="curve" smooth="yes"/>
      <point x="425.0" y="102" type="line" smooth="yes"/>
      <point x="442.0" y="102"/>
      <point x="450.0" y="108"/>
      <point x="457.0" y="123" type="curve" smooth="yes"/>
      <point x="544.0" y="316" type="line" smooth="yes"/>
      <point x="552.0" y="333"/>
      <point x="553.0" y="339"/>
      <point x="553.0" y="353" type="curve" smooth="yes"/>
      <point x="553.0" y="367" type="line" smooth="yes"/>
      <point x="553.0" y="380"/>
      <point x="552.0" y="386"/>
      <point x="544.0" y="403" type="curve" smooth="yes"/>
      <point x="456.0" y="597" type="line" smooth="yes"/>
      <point x="449.0" y="612"/>
      <point x="441.0" y="618"/>
    </contour>
  </outline>
</glyph>
<glyph name="uni261E" format="1">
  <advance width="1000"/>
  <unicode hex="261E"/>
  <outline>
    <contour>
      <point x="256.0" y="115" type="curve"/>
      <point x="223.0" y="115" type="line" smooth="yes"/>
      <point x="213.0" y="115"/>
      <point x="205.0" y="123"/>
      <point x="205.0" y="134" type="curve" smooth="yes"/>
      <point x="205.0" y="586" type="line" smooth="yes"/>
      <point x="205.0" y="598"/>
      <point x="213.0" y="605"/>
      <point x="223.0" y="605" type="curve"/>
      <point x="256.0" y="605" type="line"/>
      <point x="266.0" y="605"/>
      <point x="274.0" y="598"/>
      <point x="274.0" y="586" type="curve" smooth="yes"/>
      <point x="274.0" y="134" type="line" smooth="yes"/>
      <point x="274.0" y="123"/>
      <point x="266.0" y="115"/>
    </contour>
    <contour>
      <point x="372.0" y="176" type="line" smooth="yes"/>
      <point x="355.0" y="176"/>
      <point x="339.0" y="182"/>
      <point x="330.0" y="187" type="curve" smooth="yes"/>
      <point x="295.0" y="206" type="line"/>
      <point x="295.0" y="527" type="line"/>
      <point x="491.0" y="565" type="line" smooth="yes"/>
      <point x="505.0" y="567"/>
      <point x="527.0" y="567"/>
      <point x="546.0" y="566" type="curve" smooth="yes"/>
      <point x="840.0" y="545" type="line" smooth="yes"/>
      <point x="850.0" y="544"/>
      <point x="860.0" y="537"/>
      <point x="860.0" y="523" type="curve" smooth="yes"/>
      <point x="860.0" y="493" type="line" smooth="yes"/>
      <point x="860.0" y="480"/>
      <point x="851.0" y="473"/>
      <point x="836.0" y="473" type="curve" smooth="yes"/>
      <point x="568.0" y="473" type="line"/>
      <point x="568.0" y="452" type="line" smooth="yes"/>
      <point x="655.0" y="452" type="line"/>
      <point x="666.0" y="453"/>
      <point x="671.0" y="447"/>
      <point x="671.0" y="436" type="curve" smooth="yes"/>
      <point x="671.0" y="402" type="line" smooth="yes"/>
      <point x="671.0" y="388"/>
      <point x="663.0" y="383"/>
      <point x="649.0" y="382" type="curve" smooth="yes"/>
      <point x="551.0" y="375" type="line"/>
      <point x="551.0" y="354" type="line" smooth="yes"/>
      <point x="631.0" y="360" type="line"/>
      <point x="641.0" y="360"/>
      <point x="646.0" y="353"/>
      <point x="646.0" y="340" type="curve" smooth="yes"/>
      <point x="646.0" y="304" type="line" smooth="yes"/>
      <point x="646.0" y="291"/>
      <point x="639.0" y="285"/>
      <point x="624.0" y="284" type="curve" smooth="yes"/>
      <point x="532.0" y="277" type="line"/>
      <point x="532.0" y="256" type="line" smooth="yes"/>
      <point x="611.0" y="262" type="line"/>
      <point x="611.0" y="262" type="line"/>
      <point x="621.0" y="262"/>
      <point x="624.0" y="254"/>
      <point x="624.0" y="245" type="curve" smooth="yes"/>
      <point x="624.0" y="206" type="line" smooth="yes"/>
      <point x="624.0" y="195"/>
      <point x="615.0" y="187"/>
      <point x="604.0" y="187" type="curve" smooth="yes"/>
    </contour>
    <contour>
      <point x="295.0" y="132" type="curve" smooth="yes"/>
      <point x="295.0" y="182" type="line"/>
      <point x="320.0" y="168" type="line" smooth="yes"/>
      <point x="330.0" y="163"/>
      <point x="350.0" y="155"/>
      <point x="372.0" y="155" type="curve" smooth="yes"/>
      <point x="605.0" y="165" type="line" smooth="yes"/>
      <point x="628.0" y="166"/>
      <point x="645.0" y="183"/>
      <point x="645.0" y="206" type="curve" smooth="yes"/>
      <point x="645.0" y="246" type="line"/>
      <point x="645.0" y="252"/>
      <point x="644.0" y="260"/>
      <point x="640.0" y="265" type="curve"/>
      <point x="659.0" y="270"/>
      <point x="667.0" y="283"/>
      <point x="667.0" y="304" type="curve" smooth="yes"/>
      <point x="667.0" y="343" type="line"/>
      <point x="667.0" y="351"/>
      <point x="665.0" y="357"/>
      <point x="661.0" y="362" type="curve"/>
      <point x="682.0" y="366"/>
      <point x="692.0" y="380"/>
      <point x="692.0" y="402" type="curve" smooth="yes"/>
      <point x="692.0" y="438" type="line" smooth="yes"/>
      <point x="692.0" y="443"/>
      <point x="691.0" y="448"/>
      <point x="689.0" y="452" type="curve"/>
      <point x="836.0" y="452" type="line" smooth="yes"/>
      <point x="866.0" y="452"/>
      <point x="881.0" y="467"/>
      <point x="881.0" y="493" type="curve" smooth="yes"/>
      <point x="881.0" y="523" type="line" smooth="yes"/>
      <point x="881.0" y="550"/>
      <point x="867.0" y="565"/>
      <point x="842.0" y="566" type="curve" smooth="yes"/>
      <point x="548.0" y="587" type="line" smooth="yes"/>
      <point x="527.0" y="588"/>
      <point x="503.0" y="588"/>
      <point x="487.0" y="585" type="curve" smooth="yes"/>
      <point x="295.0" y="549" type="line"/>
      <point x="295.0" y="588" type="line" smooth="yes"/>
      <point x="295.0" y="611"/>
      <point x="281.0" y="626"/>
      <point x="256.0" y="626" type="curve" smooth="yes"/>
      <point x="181.0" y="626" type="line" smooth="yes"/>
      <point x="156.0" y="626"/>
      <point x="142.0" y="614"/>
      <point x="142.0" y="586" type="curve" smooth="yes"/>
      <point x="142.0" y="134" type="line" smooth="yes"/>
      <point x="142.0" y="108"/>
      <point x="156.0" y="94"/>
      <point x="181.0" y="94" type="curve" smooth="yes"/>
      <point x="256.0" y="94" type="line" smooth="yes"/>
      <point x="281.0" y="94"/>
      <point x="295.0" y="109"/>
    </contour>
  </outline>
</glyph>
<glyph name="uni27A1" format="1">
  <advance width="650"/>
  <unicode hex="27A1"/>
  <outline>
    <contour>
      <point x="-40.0" y="900" type="line"/>
      <point x="-40.0" y="-180" type="line" smooth="yes"/>
      <point x="7.0" y="-180" type="line"/>
      <point x="7.0" y="-319" type="line" smooth="yes"/>
      <point x="7.0" y="-358"/>
      <point x="37.0" y="-382"/>
      <point x="74.0" y="-382" type="curve" smooth="yes"/>
      <point x="104.0" y="-382"/>
      <point x="140.0" y="-366"/>
      <point x="167.0" y="-329" type="curve" smooth="yes"/>
      <point x="603.0" y="251" type="line" smooth="yes"/>
      <point x="629.0" y="285"/>
      <point x="641.0" y="323"/>
      <point x="641.0" y="361" type="curve" smooth="yes"/>
      <point x="641.0" y="399"/>
      <point x="629.0" y="437"/>
      <point x="603.0" y="471" type="curve" smooth="yes"/>
      <point x="167.0" y="1051" type="line" smooth="yes"/>
      <point x="139.0" y="1088"/>
      <point x="104.0" y="1104"/>
      <point x="74.0" y="1104" type="curve" smooth="yes"/>
      <point x="37.0" y="1104"/>
      <point x="7.0" y="1080"/>
      <point x="7.0" y="1041" type="curve" smooth="yes"/>
      <point x="7.0" y="900" type="line"/>
    </contour>
    <contour>
      <point x="-40.0" y="870" type="line"/>
      <point x="-40.0" y="880" type="line"/>
      <point x="27.0" y="880" type="line"/>
      <point x="27.0" y="1041" type="line" smooth="yes"/>
      <point x="27.0" y="1068"/>
      <point x="49.0" y="1084"/>
      <point x="74.0" y="1084" type="curve" smooth="yes"/>
      <point x="99.0" y="1084"/>
      <point x="128.0" y="1070"/>
      <point x="151.0" y="1039" type="curve" smooth="yes"/>
      <point x="587.0" y="459" type="line" smooth="yes"/>
      <point x="611.0" y="429"/>
      <point x="621.0" y="395"/>
      <point x="621.0" y="361" type="curve" smooth="yes"/>
      <point x="621.0" y="327"/>
      <point x="611.0" y="293"/>
      <point x="587.0" y="263" type="curve" smooth="yes"/>
      <point x="151.0" y="-317" type="line" smooth="yes"/>
      <point x="129.0" y="-348"/>
      <point x="99.0" y="-362"/>
      <point x="74.0" y="-362" type="curve" smooth="yes"/>
      <point x="49.0" y="-362"/>
      <point x="27.0" y="-346"/>
      <point x="27.0" y="-319" type="curve" smooth="yes"/>
      <point x="27.0" y="-160" type="line"/>
      <point x="-40.0" y="-160" type="line"/>
      <point x="-40.0" y="-150" type="line"/>
      <point x="37.0" y="-150" type="line"/>
      <point x="37.0" y="-319" type="line" smooth="yes"/>
      <point x="37.0" y="-340"/>
      <point x="55.0" y="-352"/>
      <point x="74.0" y="-352" type="curve" smooth="yes"/>
      <point x="97.0" y="-352"/>
      <point x="123.0" y="-338"/>
      <point x="143.0" y="-311" type="curve" smooth="yes"/>
      <point x="579.0" y="269" type="line" smooth="yes"/>
      <point x="601.0" y="297"/>
      <point x="611.0" y="329"/>
      <point x="611.0" y="361" type="curve" smooth="yes"/>
      <point x="611.0" y="393"/>
      <point x="601.0" y="425"/>
      <point x="579.0" y="453" type="curve" smooth="yes"/>
      <point x="143.0" y="1033" type="line" smooth="yes"/>
      <point x="122.0" y="1060"/>
      <point x="97.0" y="1074"/>
      <point x="74.0" y="1074" type="curve" smooth="yes"/>
      <point x="55.0" y="1074"/>
      <point x="37.0" y="1062"/>
      <point x="37.0" y="1041" type="curve" smooth="yes"/>
      <point x="37.0" y="870" type="line"/>
    </contour>
  </outline>
</glyph>
<glyph name="Aogonek.salt" format="1">
  <advance width="736"/>
  <unicode hex="E109"/>
  <outline>
    <contour>
      <point x="672" y="-152" type="curve" smooth="yes"/>
      <point x="672" y="-80" type="line" smooth="yes"/>
      <point x="672" y="-54"/>
      <point x="664" y="-46"/>
      <point x="636" y="-46" type="curve" smooth="yes"/>
      <point x="595" y="-46" type="line"/>
      <point x="602" y="0" type="line"/>
      <point x="636" y="0" type="line" smooth="yes"/>
      <point x="661" y="0"/>
      <point x="672" y="11"/>
      <point x="672" y="36" type="curve" smooth="yes"/>
      <point x="672" y="531" type="line" smooth="yes"/>
      <point x="672" y="652"/>
      <point x="616" y="735"/>
      <point x="367" y="735" type="curve" smooth="yes"/>
      <point x="119" y="735"/>
      <point x="64" y="652"/>
      <point x="64" y="531" type="curve" smooth="yes"/>
      <point x="64" y="36" type="line"/>
      <point x="64" y="11"/>
      <point x="75" y="0"/>
      <point x="100" y="0" type="curve" smooth="yes"/>
      <point x="247" y="0" type="line" smooth="yes"/>
      <point x="272" y="0"/>
      <point x="283" y="11"/>
      <point x="283" y="36" type="curve" smooth="yes"/>
      <point x="283" y="185" type="line"/>
      <point x="448" y="185" type="line"/>
      <point x="448" y="67" type="line"/>
      <point x="427" y="-51" type="line" smooth="yes"/>
      <point x="413" y="-144"/>
      <point x="442" y="-186"/>
      <point x="528" y="-186" type="curve" smooth="yes"/>
      <point x="639" y="-186" type="line" smooth="yes"/>
      <point x="665" y="-186"/>
      <point x="672" y="-178"/>
    </contour>
    <contour>
      <point x="558" y="-116" type="line" smooth="yes"/>
      <point x="509" y="-116"/>
      <point x="499" y="-91"/>
      <point x="507" y="-41" type="curve" smooth="yes"/>
      <point x="519" y="42" type="line" smooth="yes"/>
      <point x="524" y="74"/>
      <point x="528" y="82"/>
      <point x="555" y="97" type="curve"/>
      <point x="555" y="271" type="line"/>
      <point x="184" y="271" type="line"/>
      <point x="184" y="90" type="line"/>
      <point x="174" y="90" type="line"/>
      <point x="174" y="507" type="line" smooth="yes"/>
      <point x="174" y="588"/>
      <point x="211" y="642"/>
      <point x="368" y="642" type="curve" smooth="yes"/>
      <point x="525" y="642"/>
      <point x="565" y="588"/>
      <point x="565" y="507" type="curve" smooth="yes"/>
      <point x="565" y="90" type="line"/>
      <point x="562" y="90" type="line"/>
      <point x="537" y="76"/>
      <point x="533" y="71"/>
      <point x="529" y="42" type="curve" smooth="yes"/>
      <point x="517" y="-43" type="line" smooth="yes"/>
      <point x="512" y="-83"/>
      <point x="517" y="-106"/>
      <point x="558" y="-106" type="curve" smooth="yes"/>
      <point x="582" y="-106" type="line"/>
      <point x="582" y="-116" type="line"/>
    </contour>
    <contour>
      <point x="368" y="632" type="curve" smooth="yes"/>
      <point x="219" y="632"/>
      <point x="184" y="582"/>
      <point x="184" y="507" type="curve" smooth="yes"/>
      <point x="184" y="281" type="line"/>
      <point x="555" y="281" type="line"/>
      <point x="555" y="507" type="line" smooth="yes"/>
      <point x="555" y="582"/>
      <point x="517" y="632"/>
    </contour>
    <contour>
      <point x="283" y="368" type="line"/>
      <point x="283" y="497" type="line" smooth="yes"/>
      <point x="283" y="524"/>
      <point x="295" y="544"/>
      <point x="366" y="544" type="curve" smooth="yes"/>
      <point x="436" y="544"/>
      <point x="448" y="524"/>
      <point x="448" y="497" type="curve"/>
      <point x="448" y="368" type="line"/>
    </contour>
  </outline>
</glyph>
<glyph name="quoteleft.salt" format="1">
  <advance width="307.119931271"/>
  <unicode hex="E138"/>
  <outline>
    <contour>
      <point x="161.0" y="720" type="line" smooth="yes"/>
      <point x="96.0" y="720"/>
      <point x="55.0" y="685"/>
      <point x="55.0" y="611" type="curve" smooth="yes"/>
      <point x="55.0" y="476" type="line" smooth="yes"/>
      <point x="55.0" y="458"/>
      <point x="62.0" y="450"/>
      <point x="80.0" y="450" type="curve" smooth="yes"/>
      <point x="226.0" y="450" type="line" smooth="yes"/>
      <point x="244.0" y="450"/>
      <point x="252.0" y="458"/>
      <point x="252.0" y="476" type="curve"/>
      <point x="252.0" y="583" type="line"/>
      <point x="252.0" y="601"/>
      <point x="244.0" y="608"/>
      <point x="226.0" y="608" type="curve" smooth="yes"/>
      <point x="147.0" y="608" type="line"/>
      <point x="147.0" y="619" type="line" smooth="yes"/>
      <point x="147.0" y="632"/>
      <point x="154.0" y="639"/>
      <point x="167.0" y="639" type="curve" smooth="yes"/>
      <point x="216.0" y="639" type="line" smooth="yes"/>
      <point x="234.0" y="639"/>
      <point x="242.0" y="647"/>
      <point x="242.0" y="665" type="curve"/>
      <point x="242.0" y="694" type="line"/>
      <point x="242.0" y="713"/>
      <point x="234.0" y="720"/>
      <point x="216.0" y="720" type="curve" smooth="yes"/>
    </contour>
    <contour>
      <point x="202.0" y="534" type="line"/>
      <point x="202.0" y="524" type="line"/>
      <point x="104.0" y="524" type="line"/>
      <point x="104.0" y="610" type="line" smooth="yes"/>
      <point x="104.0" y="649"/>
      <point x="121.0" y="684"/>
      <point x="160.0" y="684" type="curve" smooth="yes"/>
      <point x="201.0" y="684" type="line"/>
      <point x="201.0" y="674" type="line"/>
      <point x="160.0" y="674" type="line" smooth="yes"/>
      <point x="127.0" y="674"/>
      <point x="114.0" y="643"/>
      <point x="114.0" y="610" type="curve" smooth="yes"/>
      <point x="114.0" y="534" type="line"/>
    </contour>
  </outline>
</glyph>
<glyph name="indexupleft.salt" format="1">
  <advance width="1000"/>
  <unicode hex="E14C"/>
  <outline>
    <contour>
      <point x="336.0" y="292" type="line" smooth="yes"/>
      <point x="355.0" y="301"/>
      <point x="370.0" y="309"/>
      <point x="380.0" y="320" type="curve"/>
      <point x="381.0" y="337"/>
      <point x="379.0" y="344"/>
      <point x="365.0" y="360" type="curve"/>
      <point x="369.0" y="363" type="line"/>
      <point x="378.0" y="354"/>
      <point x="388.0" y="348"/>
      <point x="394.0" y="348" type="curve"/>
      <point x="412.0" y="398" type="line" smooth="yes"/>
      <point x="419.0" y="417"/>
      <point x="421.0" y="428"/>
      <point x="408.0" y="443" type="curve" smooth="yes"/>
      <point x="367.0" y="487" type="line"/>
      <point x="292.0" y="415" type="line" smooth="yes"/>
      <point x="269.0" y="392"/>
      <point x="268.0" y="365"/>
      <point x="276.0" y="342" type="curve" smooth="yes"/>
      <point x="300.0" y="276" type="line"/>
    </contour>
    <contour>
      <point x="425.0" y="56" type="curve"/>
      <point x="494.0" y="-13" type="line" smooth="yes"/>
      <point x="501.0" y="-20"/>
      <point x="512.0" y="-20"/>
      <point x="521.0" y="-12" type="curve" smooth="yes"/>
      <point x="795.0" y="262" type="line" smooth="yes"/>
      <point x="802.0" y="271"/>
      <point x="802.0" y="280"/>
      <point x="795.0" y="288" type="curve"/>
      <point x="727.0" y="355" type="line"/>
      <point x="719.0" y="363"/>
      <point x="710.0" y="363"/>
      <point x="702.0" y="355" type="curve" smooth="yes"/>
      <point x="428.0" y="81" type="line" smooth="yes"/>
      <point x="419.0" y="72"/>
      <point x="418.0" y="63"/>
    </contour>
    <contour>
      <point x="232.0" y="144" type="curve" smooth="yes"/>
      <point x="318.0" y="158" type="line" smooth="yes"/>
      <point x="359.0" y="166"/>
      <point x="379.0" y="170"/>
      <point x="409.0" y="167" type="curve" smooth="yes"/>
      <point x="492.0" y="159" type="line"/>
      <point x="648.0" y="317" type="line"/>
      <point x="588.0" y="474" type="line" smooth="yes"/>
      <point x="579.0" y="499"/>
      <point x="563.0" y="514"/>
      <point x="544.0" y="529" type="curve" smooth="yes"/>
      <point x="273.0" y="735" type="line" smooth="yes"/>
      <point x="266.0" y="740"/>
      <point x="257.0" y="740"/>
      <point x="250.0" y="733" type="curve" smooth="yes"/>
      <point x="212.0" y="694" type="line" smooth="yes"/>
      <point x="205.0" y="687"/>
      <point x="205.0" y="676"/>
      <point x="213.0" y="669" type="curve" smooth="yes"/>
      <point x="416.0" y="449" type="line" smooth="yes"/>
      <point x="436.0" y="428"/>
      <point x="428.0" y="410"/>
      <point x="419.0" y="387" type="curve" smooth="yes"/>
      <point x="401.0" y="338" type="line" smooth="yes"/>
      <point x="392.0" y="314"/>
      <point x="376.0" y="299"/>
      <point x="338.0" y="282" type="curve" smooth="yes"/>
      <point x="216.0" y="228" type="line" smooth="yes"/>
      <point x="204.0" y="222"/>
      <point x="198.0" y="213"/>
      <point x="200.0" y="205" type="curve" smooth="yes"/>
      <point x="211.0" y="158" type="line" smooth="yes"/>
      <point x="213.0" y="149"/>
      <point x="222.0" y="142"/>
    </contour>
  </outline>
</glyph>
<glyph name="uni21AC.arrow" format="1">
  <advance width="1000.0"/>
  <unicode hex="E17A"/>
  <outline>
    <contour>
      <point x="-40" y="-150" type="line"/>
      <point x="259" y="-150" type="line" smooth="yes"/>
      <point x="683" y="-150"/>
      <point x="963" y="91"/>
      <point x="963" y="620" type="curve" smooth="yes"/>
      <point x="963" y="1038" type="line"/>
      <point x="1147" y="1038" type="line" smooth="yes"/>
      <point x="1151" y="1038"/>
      <point x="1153" y="1039"/>
      <point x="1153" y="1043" type="curve" smooth="yes"/>
      <point x="1153" y="1049"/>
      <point x="1145" y="1058"/>
      <point x="1136" y="1066" type="curve" smooth="yes"/>
      <point x="587" y="1582" type="line" smooth="yes"/>
      <point x="573" y="1595"/>
      <point x="561" y="1604"/>
      <point x="547" y="1604" type="curve" smooth="yes"/>
      <point x="534" y="1604"/>
      <point x="522" y="1596"/>
      <point x="507" y="1582" type="curve" smooth="yes"/>
      <point x="-33" y="1066" type="line" smooth="yes"/>
      <point x="-40" y="1059"/>
      <point x="-50" y="1050"/>
      <point x="-50" y="1044" type="curve" smooth="yes"/>
      <point x="-50" y="1040"/>
      <point x="-48" y="1038"/>
      <point x="-44" y="1038" type="curve" smooth="yes"/>
      <point x="123" y="1038" type="line"/>
      <point x="123" y="961" type="line" smooth="yes"/>
      <point x="123" y="896"/>
      <point x="95" y="870"/>
      <point x="19" y="870" type="curve" smooth="yes"/>
      <point x="-40" y="870" type="line"/>
      <point x="-40" y="880" type="line"/>
      <point x="19" y="880" type="line" smooth="yes"/>
      <point x="87" y="880"/>
      <point x="113" y="902"/>
      <point x="113" y="961" type="curve" smooth="yes"/>
      <point x="113" y="1028" type="line"/>
      <point x="-44" y="1028" type="line" smooth="yes"/>
      <point x="-53" y="1028"/>
      <point x="-60" y="1035"/>
      <point x="-60" y="1044" type="curve" smooth="yes"/>
      <point x="-60" y="1057"/>
      <point x="-49" y="1065"/>
      <point x="-41" y="1074" type="curve" smooth="yes"/>
      <point x="501" y="1590" type="line" smooth="yes"/>
      <point x="518" y="1606"/>
      <point x="532" y="1614"/>
      <point x="547" y="1614" type="curve" smooth="yes"/>
      <point x="563" y="1614"/>
      <point x="577" y="1605"/>
      <point x="593" y="1590" type="curve" smooth="yes"/>
      <point x="1142" y="1074" type="line" smooth="yes"/>
      <point x="1151" y="1066"/>
      <point x="1163" y="1053"/>
      <point x="1163" y="1043" type="curve" smooth="yes"/>
      <point x="1163" y="1034"/>
      <point x="1156" y="1028"/>
      <point x="1147" y="1028" type="curve" smooth="yes"/>
      <point x="973" y="1028" type="line"/>
      <point x="973" y="620" type="line" smooth="yes"/>
      <point x="973" y="83"/>
      <point x="689" y="-160"/>
      <point x="259" y="-160" type="curve" smooth="yes"/>
      <point x="-40" y="-160" type="line"/>
      <point x="-40" y="-180" type="line"/>
      <point x="259" y="-180" type="line" smooth="yes"/>
      <point x="700" y="-180"/>
      <point x="993" y="68"/>
      <point x="993" y="620" type="curve" smooth="yes"/>
      <point x="993" y="1008" type="line"/>
      <point x="1146" y="1008" type="line" smooth="yes"/>
      <point x="1187" y="1008"/>
      <point x="1196" y="1050"/>
      <point x="1156" y="1088" type="curve" smooth="yes"/>
      <point x="607" y="1604" type="line" smooth="yes"/>
      <point x="566" y="1642"/>
      <point x="532" y="1647"/>
      <point x="487" y="1604" type="curve" smooth="yes"/>
      <point x="-54" y="1088" type="line" smooth="yes"/>
      <point x="-95" y="1048"/>
      <point x="-84" y="1008"/>
      <point x="-44" y="1008" type="curve" smooth="yes"/>
      <point x="93" y="1008" type="line"/>
      <point x="93" y="961" type="line" smooth="yes"/>
      <point x="93" y="915"/>
      <point x="70" y="900"/>
      <point x="19" y="900" type="curve" smooth="yes"/>
      <point x="-40" y="900" type="line"/>
    </contour>
  </outline>
</glyph>
<glyph name="Tcommaaccent.v" format="1">
  <advance width="1000"/>
  <unicode hex="E1C9"/>
  <outline>
    <contour>
      <point x="584" y="120" type="line" smooth="yes"/>
      <point x="609" y="120"/>
      <point x="620" y="131"/>
      <point x="620" y="156" type="curve" smooth="yes"/>
      <point x="620" y="527" type="line"/>
      <point x="764" y="527" type="line" smooth="yes"/>
      <point x="789" y="527"/>
      <point x="800" y="538"/>
      <point x="800" y="563" type="curve" smooth="yes"/>
      <point x="800" y="684" type="line" smooth="yes"/>
      <point x="800" y="709"/>
      <point x="789" y="720"/>
      <point x="764" y="720" type="curve" smooth="yes"/>
      <point x="236" y="720" type="line" smooth="yes"/>
      <point x="211" y="720"/>
      <point x="200" y="709"/>
      <point x="200" y="684" type="curve" smooth="yes"/>
      <point x="200" y="563" type="line" smooth="yes"/>
      <point x="200" y="538"/>
      <point x="211" y="527"/>
      <point x="236" y="527" type="curve" smooth="yes"/>
      <point x="380" y="527" type="line"/>
      <point x="380" y="156" type="line" smooth="yes"/>
      <point x="380" y="131"/>
      <point x="391" y="120"/>
      <point x="416" y="120" type="curve" smooth="yes"/>
    </contour>
    <contour>
      <point x="495" y="210" type="line"/>
      <point x="495" y="620" type="line"/>
      <point x="290" y="620" type="line"/>
      <point x="290" y="630" type="line"/>
      <point x="710" y="630" type="line"/>
      <point x="710" y="620" type="line"/>
      <point x="505" y="620" type="line"/>
      <point x="505" y="210" type="line"/>
    </contour>
    <contour>
      <point x="491" y="-190" type="line" smooth="yes"/>
      <point x="567" y="-190"/>
      <point x="616" y="-148"/>
      <point x="616" y="-62" type="curve" smooth="yes"/>
      <point x="616" y="50" type="line" smooth="yes"/>
      <point x="616" y="81"/>
      <point x="607" y="90"/>
      <point x="579" y="90" type="curve" smooth="yes"/>
      <point x="421" y="90" type="line" smooth="yes"/>
      <point x="393" y="90"/>
      <point x="384" y="81"/>
      <point x="384" y="50" type="curve" smooth="yes"/>
      <point x="384" y="-29" type="line" smooth="yes"/>
      <point x="384" y="-59"/>
      <point x="393" y="-68"/>
      <point x="421" y="-68" type="curve" smooth="yes"/>
      <point x="507" y="-68" type="line"/>
      <point x="507" y="-81" type="line" smooth="yes"/>
      <point x="507" y="-96"/>
      <point x="499" y="-105"/>
      <point x="484" y="-105" type="curve" smooth="yes"/>
      <point x="425" y="-105" type="line" smooth="yes"/>
      <point x="404" y="-105"/>
      <point x="395" y="-114"/>
      <point x="395" y="-135" type="curve" smooth="yes"/>
      <point x="395" y="-159" type="line" smooth="yes"/>
      <point x="395" y="-181"/>
      <point x="404" y="-190"/>
      <point x="425" y="-190" type="curve" smooth="yes"/>
    </contour>
    <contour>
      <point x="434" y="16" type="line"/>
      <point x="566" y="16" type="line"/>
      <point x="566" y="-71" type="line" smooth="yes"/>
      <point x="566" y="-125"/>
      <point x="536" y="-152"/>
      <point x="488" y="-152" type="curve" smooth="yes"/>
      <point x="434" y="-152" type="line"/>
      <point x="434" y="-142" type="line"/>
      <point x="488" y="-142" type="line" smooth="yes"/>
      <point x="530" y="-142"/>
      <point x="556" y="-118"/>
      <point x="556" y="-71" type="curve" smooth="yes"/>
      <point x="556" y="6" type="line"/>
      <point x="434" y="6" type="line"/>
    </contour>
  </outline>
</glyph>
<glyph name="Uogonek.v" format="1">
  <advance width="1000"/>
  <unicode hex="E1D4"/>
  <outline>
    <contour>
      <point x="607" y="-150" type="line" smooth="yes"/>
      <point x="633" y="-150"/>
      <point x="640" y="-142"/>
      <point x="640" y="-116" type="curve" smooth="yes"/>
      <point x="640" y="-44" type="line" smooth="yes"/>
      <point x="640" y="-18"/>
      <point x="632" y="-10"/>
      <point x="604" y="-10" type="curve" smooth="yes"/>
      <point x="563" y="-10" type="line"/>
      <point x="568" y="28" type="line"/>
      <point x="752" y="42"/>
      <point x="800" y="120"/>
      <point x="800" y="229" type="curve" smooth="yes"/>
      <point x="800" y="684" type="line" smooth="yes"/>
      <point x="800" y="709"/>
      <point x="789" y="720"/>
      <point x="764" y="720" type="curve" smooth="yes"/>
      <point x="612" y="720" type="line" smooth="yes"/>
      <point x="586" y="720"/>
      <point x="576" y="709"/>
      <point x="576" y="684" type="curve" smooth="yes"/>
      <point x="576" y="268" type="line" smooth="yes"/>
      <point x="576" y="241"/>
      <point x="564" y="221"/>
      <point x="502" y="221" type="curve" smooth="yes"/>
      <point x="441" y="221"/>
      <point x="429" y="241"/>
      <point x="429" y="268" type="curve" smooth="yes"/>
      <point x="429" y="684" type="line" smooth="yes"/>
      <point x="429" y="709"/>
      <point x="418" y="720"/>
      <point x="393" y="720" type="curve" smooth="yes"/>
      <point x="236" y="720" type="line" smooth="yes"/>
      <point x="211" y="720"/>
      <point x="200" y="709"/>
      <point x="200" y="684" type="curve" smooth="yes"/>
      <point x="200" y="229" type="line" smooth="yes"/>
      <point x="200" y="125"/>
      <point x="243" y="51"/>
      <point x="403" y="30" type="curve"/>
      <point x="395" y="-15" type="line" smooth="yes"/>
      <point x="381" y="-108"/>
      <point x="410" y="-150"/>
      <point x="496" y="-150" type="curve" smooth="yes"/>
    </contour>
    <contour>
      <point x="526" y="-80" type="line" smooth="yes"/>
      <point x="477" y="-80"/>
      <point x="467" y="-55"/>
      <point x="475" y="-5" type="curve" smooth="yes"/>
      <point x="487" y="78" type="line" smooth="yes"/>
      <point x="490" y="99"/>
      <point x="494" y="109"/>
      <point x="503" y="118" type="curve"/>
      <point x="497" y="118" type="line" smooth="yes"/>
      <point x="350" y="118"/>
      <point x="310" y="172"/>
      <point x="310" y="253" type="curve" smooth="yes"/>
      <point x="310" y="630" type="line"/>
      <point x="320" y="630" type="line"/>
      <point x="320" y="253" type="line" smooth="yes"/>
      <point x="320" y="178"/>
      <point x="358" y="128"/>
      <point x="497" y="128" type="curve" smooth="yes"/>
      <point x="642" y="128"/>
      <point x="683" y="178"/>
      <point x="683" y="253" type="curve" smooth="yes"/>
      <point x="683" y="630" type="line"/>
      <point x="693" y="630" type="line"/>
      <point x="693" y="253" type="line" smooth="yes"/>
      <point x="693" y="176"/>
      <point x="654" y="123"/>
      <point x="517" y="118" type="curve"/>
      <point x="503" y="109"/>
      <point x="501" y="101"/>
      <point x="497" y="78" type="curve" smooth="yes"/>
      <point x="485" y="-7" type="line" smooth="yes"/>
      <point x="480" y="-47"/>
      <point x="485" y="-70"/>
      <point x="526" y="-70" type="curve" smooth="yes"/>
      <point x="550" y="-70" type="line"/>
      <point x="550" y="-80" type="line"/>
    </contour>
  </outline>
</glyph>
<glyph name="Eng.v" format="1">
  <advance width="1000"/>
  <unicode hex="E1E9"/>
  <outline>
    <contour>
      <point x="200.0" y="512" type="curve" smooth="yes"/>
      <point x="200.0" y="36" type="line" smooth="yes"/>
      <point x="200.0" y="11"/>
      <point x="211.0" y="0"/>
      <point x="236.0" y="0" type="curve" smooth="yes"/>
      <point x="388.0" y="0" type="line" smooth="yes"/>
      <point x="414.0" y="0"/>
      <point x="424.0" y="11"/>
      <point x="424.0" y="36" type="curve" smooth="yes"/>
      <point x="424.0" y="473" type="line" smooth="yes"/>
      <point x="424.0" y="500"/>
      <point x="436.0" y="520"/>
      <point x="498.0" y="520" type="curve" smooth="yes"/>
      <point x="559.0" y="520"/>
      <point x="571.0" y="500"/>
      <point x="571.0" y="473" type="curve" smooth="yes"/>
      <point x="571.0" y="150" type="line" smooth="yes"/>
      <point x="571.0" y="122"/>
      <point x="565.0" y="102"/>
      <point x="530.0" y="102" type="curve" smooth="yes"/>
      <point x="509.0" y="102" type="line" smooth="yes"/>
      <point x="484.0" y="102"/>
      <point x="473.0" y="91"/>
      <point x="473.0" y="66" type="curve" smooth="yes"/>
      <point x="473.0" y="-54" type="line" smooth="yes"/>
      <point x="473.0" y="-79"/>
      <point x="484.0" y="-90"/>
      <point x="509.0" y="-90" type="curve" smooth="yes"/>
      <point x="554.0" y="-90" type="line" smooth="yes"/>
      <point x="743.0" y="-90"/>
      <point x="800.0" y="-7"/>
      <point x="800.0" y="115" type="curve"/>
      <point x="800.0" y="512" type="line" smooth="yes"/>
      <point x="800.0" y="634"/>
      <point x="739.0" y="716"/>
      <point x="500.0" y="716" type="curve" smooth="yes"/>
      <point x="261.0" y="716"/>
      <point x="200.0" y="634"/>
    </contour>
    <contour>
      <point x="317.0" y="90" type="line"/>
      <point x="307.0" y="90" type="line"/>
      <point x="307.0" y="507" type="line" smooth="yes"/>
      <point x="307.0" y="588"/>
      <point x="349.0" y="642"/>
      <point x="498.0" y="642" type="curve"/>
      <point x="649.0" y="642"/>
      <point x="690.0" y="588"/>
      <point x="690.0" y="507" type="curve" smooth="yes"/>
      <point x="690.0" y="100" type="line" smooth="yes"/>
      <point x="690.0" y="30"/>
      <point x="655.0" y="1"/>
      <point x="563.0" y="1" type="curve"/>
      <point x="563.0" y="11" type="line"/>
      <point x="645.0" y="11"/>
      <point x="680.0" y="36"/>
      <point x="680.0" y="100" type="curve" smooth="yes"/>
      <point x="680.0" y="507" type="line" smooth="yes"/>
      <point x="680.0" y="582"/>
      <point x="641.0" y="632"/>
      <point x="498.0" y="632" type="curve"/>
      <point x="357.0" y="632"/>
      <point x="317.0" y="582"/>
      <point x="317.0" y="507" type="curve" smooth="yes"/>
    </contour>
  </outline>
</glyph>
<glyph name="Aring.salt_v" format="1">
  <advance width="1000"/>
  <unicode hex="E1F3"/>
  <outline>
    <contour>
      <point x="557.0" y="725" type="line" smooth="yes"/>
      <point x="557.0" y="696"/>
      <point x="548.0" y="682"/>
      <point x="498.0" y="682" type="curve" smooth="yes"/>
      <point x="449.0" y="682"/>
      <point x="441.0" y="696"/>
      <point x="441.0" y="725" type="curve" smooth="yes"/>
      <point x="441.0" y="760" type="line" smooth="yes"/>
      <point x="441.0" y="786"/>
      <point x="449.0" y="800"/>
      <point x="498.0" y="800" type="curve" smooth="yes"/>
      <point x="548.0" y="800"/>
      <point x="557.0" y="786"/>
      <point x="557.0" y="760" type="curve" smooth="yes"/>
    </contour>
    <contour>
      <point x="419.0" y="458" type="line" smooth="yes"/>
      <point x="419.0" y="485"/>
      <point x="427.0" y="505"/>
      <point x="498.0" y="505" type="curve" smooth="yes"/>
      <point x="568.0" y="505"/>
      <point x="576.0" y="485"/>
      <point x="576.0" y="458" type="curve" smooth="yes"/>
      <point x="576.0" y="349" type="line"/>
      <point x="419.0" y="349" type="line"/>
    </contour>
    <contour>
      <point x="419.0" y="36" type="curve" smooth="yes"/>
      <point x="419.0" y="166" type="line"/>
      <point x="576.0" y="166" type="line"/>
      <point x="576.0" y="36" type="line" smooth="yes"/>
      <point x="576.0" y="11"/>
      <point x="587.0" y="0"/>
      <point x="612.0" y="0" type="curve" smooth="yes"/>
      <point x="764.0" y="0" type="line" smooth="yes"/>
      <point x="789.0" y="0"/>
      <point x="800.0" y="11"/>
      <point x="800.0" y="36" type="curve" smooth="yes"/>
      <point x="800.0" y="492" type="line" smooth="yes"/>
      <point x="800.0" y="569"/>
      <point x="780.0" y="631"/>
      <point x="701.0" y="665" type="curve"/>
      <point x="710.0" y="685"/>
      <point x="714.0" y="707"/>
      <point x="714.0" y="732" type="curve" smooth="yes"/>
      <point x="714.0" y="790" type="line" smooth="yes"/>
      <point x="714.0" y="875"/>
      <point x="671.0" y="933"/>
      <point x="497.0" y="933" type="curve" smooth="yes"/>
      <point x="323.0" y="933"/>
      <point x="280.0" y="875"/>
      <point x="280.0" y="790" type="curve" smooth="yes"/>
      <point x="280.0" y="732" type="line" smooth="yes"/>
      <point x="280.0" y="706"/>
      <point x="284.0" y="683"/>
      <point x="294.0" y="663" type="curve"/>
      <point x="219.0" y="628"/>
      <point x="200.0" y="568"/>
      <point x="200.0" y="492" type="curve" smooth="yes"/>
      <point x="200.0" y="36" type="line" smooth="yes"/>
      <point x="200.0" y="11"/>
      <point x="211.0" y="0"/>
      <point x="236.0" y="0" type="curve" smooth="yes"/>
      <point x="383.0" y="0" type="line" smooth="yes"/>
      <point x="408.0" y="0"/>
      <point x="419.0" y="11"/>
    </contour>
    <contour>
      <point x="356.0" y="730" type="curve" smooth="yes"/>
      <point x="356.0" y="770" type="line" smooth="yes"/>
      <point x="356.0" y="830"/>
      <point x="378.0" y="871"/>
      <point x="497.0" y="871" type="curve" smooth="yes"/>
      <point x="616.0" y="871"/>
      <point x="640.0" y="829"/>
      <point x="640.0" y="770" type="curve" smooth="yes"/>
      <point x="640.0" y="730" type="line" smooth="yes"/>
      <point x="640.0" y="670"/>
      <point x="616.0" y="630"/>
      <point x="497.0" y="630" type="curve" smooth="yes"/>
      <point x="378.0" y="630"/>
      <point x="356.0" y="670"/>
    </contour>
    <contour>
      <point x="497.0" y="861" type="curve" smooth="yes"/>
      <point x="390.0" y="861"/>
      <point x="366.0" y="826"/>
      <point x="366.0" y="770" type="curve" smooth="yes"/>
      <point x="366.0" y="730" type="line" smooth="yes"/>
      <point x="366.0" y="674"/>
      <point x="390.0" y="640"/>
      <point x="497.0" y="640" type="curve" smooth="yes"/>
      <point x="604.0" y="640"/>
      <point x="630.0" y="674"/>
      <point x="630.0" y="730" type="curve" smooth="yes"/>
      <point x="630.0" y="770" type="line" smooth="yes"/>
      <point x="630.0" y="825"/>
      <point x="604.0" y="861"/>
    </contour>
    <contour>
      <point x="315.0" y="467" type="curve" smooth="yes"/>
      <point x="315.0" y="261" type="line"/>
      <point x="683.0" y="261" type="line"/>
      <point x="683.0" y="467" type="line" smooth="yes"/>
      <point x="683.0" y="542"/>
      <point x="646.0" y="592"/>
      <point x="499.0" y="592" type="curve" smooth="yes"/>
      <point x="350.0" y="592"/>
      <point x="315.0" y="542"/>
    </contour>
    <contour>
      <point x="683.0" y="90" type="line"/>
      <point x="683.0" y="251" type="line"/>
      <point x="315.0" y="251" type="line"/>
      <point x="315.0" y="90" type="line"/>
      <point x="305.0" y="90" type="line"/>
      <point x="305.0" y="467" type="line" smooth="yes"/>
      <point x="305.0" y="548"/>
      <point x="342.0" y="602"/>
      <point x="499.0" y="602" type="curve" smooth="yes"/>
      <point x="654.0" y="602"/>
      <point x="693.0" y="548"/>
      <point x="693.0" y="467" type="curve" smooth="yes"/>
      <point x="693.0" y="90" type="line"/>
    </contour>
  </outline>
</glyph>
<glyph name="Lslash.salt_v" format="1">
  <advance width="1000"/>
  <unicode hex="E211"/>
  <outline>
    <contour>
      <point x="701" y="90" type="line"/>
      <point x="701" y="100" type="line"/>
      <point x="320" y="100" type="line"/>
      <point x="320" y="393" type="line"/>
      <point x="432" y="411" type="line"/>
      <point x="432" y="421" type="line"/>
      <point x="320" y="403" type="line"/>
      <point x="320" y="630" type="line"/>
      <point x="310" y="630" type="line"/>
      <point x="310" y="401" type="line"/>
      <point x="232" y="388" type="line"/>
      <point x="232" y="378" type="line"/>
      <point x="310" y="391" type="line"/>
      <point x="310" y="90" type="line"/>
    </contour>
    <contour>
      <point x="755" y="0" type="curve"/>
      <point x="237" y="0" type="line" smooth="yes"/>
      <point x="212" y="0"/>
      <point x="201" y="11"/>
      <point x="201" y="36" type="curve" smooth="yes"/>
      <point x="201" y="289" type="line"/>
      <point x="178" y="285" type="line" smooth="yes"/>
      <point x="153" y="281"/>
      <point x="142" y="295"/>
      <point x="142" y="321" type="curve" smooth="yes"/>
      <point x="142" y="428" type="line" smooth="yes"/>
      <point x="142" y="453"/>
      <point x="153" y="460"/>
      <point x="178" y="464" type="curve" smooth="yes"/>
      <point x="191" y="466" type="line"/>
      <point x="191" y="466" type="line"/>
      <point x="201" y="468" type="line"/>
      <point x="201" y="684" type="line" smooth="yes"/>
      <point x="201" y="709"/>
      <point x="212" y="720"/>
      <point x="237" y="720" type="curve" smooth="yes"/>
      <point x="392" y="720" type="line" smooth="yes"/>
      <point x="417" y="720"/>
      <point x="428" y="709"/>
      <point x="428" y="684" type="curve" smooth="yes"/>
      <point x="428" y="504" type="line"/>
      <point x="438" y="506" type="line"/>
      <point x="438" y="507" type="line"/>
      <point x="486" y="514" type="line" smooth="yes"/>
      <point x="511" y="518"/>
      <point x="522" y="504"/>
      <point x="522" y="478" type="curve" smooth="yes"/>
      <point x="522" y="371" type="line" smooth="yes"/>
      <point x="522" y="345"/>
      <point x="511" y="339"/>
      <point x="486" y="335" type="curve" smooth="yes"/>
      <point x="438" y="328" type="line"/>
      <point x="438" y="328" type="line"/>
      <point x="428" y="326" type="line"/>
      <point x="428" y="193" type="line"/>
      <point x="755" y="193" type="line" smooth="yes"/>
      <point x="780" y="193"/>
      <point x="791" y="182"/>
      <point x="791" y="157" type="curve" smooth="yes"/>
      <point x="791" y="36" type="line" smooth="yes"/>
      <point x="791" y="11"/>
      <point x="780" y="0"/>
    </contour>
  </outline>
</glyph>
<glyph name="braceright.v" format="1">
  <advance width="1000"/>
  <unicode hex="E230"/>
  <outline>
    <contour>
      <point x="700.0" y="457" type="curve"/>
      <point x="585.0" y="457" type="line"/>
      <point x="545.0" y="457"/>
      <point x="529.0" y="447"/>
      <point x="523.0" y="412" type="curve" smooth="yes"/>
      <point x="517.0" y="379" type="line" smooth="yes"/>
      <point x="515.0" y="369"/>
      <point x="512.0" y="366"/>
      <point x="503.0" y="366" type="curve" smooth="yes"/>
      <point x="494.0" y="366"/>
      <point x="490.0" y="369"/>
      <point x="489.0" y="379" type="curve"/>
      <point x="483.0" y="412" type="line" smooth="yes"/>
      <point x="477.0" y="447"/>
      <point x="461.0" y="457"/>
      <point x="421.0" y="457" type="curve" smooth="yes"/>
      <point x="304.0" y="457" type="line" smooth="yes"/>
      <point x="269.0" y="457"/>
      <point x="254.0" y="466"/>
      <point x="254.0" y="498" type="curve" smooth="yes"/>
      <point x="254.0" y="519" type="line" smooth="yes"/>
      <point x="254.0" y="544"/>
      <point x="243.0" y="555"/>
      <point x="218.0" y="555" type="curve" smooth="yes"/>
      <point x="96.0" y="555" type="line" smooth="yes"/>
      <point x="71.0" y="555"/>
      <point x="60.0" y="544"/>
      <point x="60.0" y="519" type="curve" smooth="yes"/>
      <point x="60.0" y="475" type="line" smooth="yes"/>
      <point x="60.0" y="286"/>
      <point x="144.0" y="229"/>
      <point x="266.0" y="229" type="curve" smooth="yes"/>
      <point x="399.0" y="229" type="line"/>
      <point x="412.0" y="186"/>
      <point x="437.0" y="165"/>
      <point x="485.0" y="165" type="curve" smooth="yes"/>
      <point x="520.0" y="165" type="line" smooth="yes"/>
      <point x="568.0" y="165"/>
      <point x="594.0" y="186"/>
      <point x="607.0" y="229" type="curve"/>
      <point x="737.0" y="229" type="line" smooth="yes"/>
      <point x="858.0" y="229"/>
      <point x="941.0" y="286"/>
      <point x="941.0" y="475" type="curve" smooth="yes"/>
      <point x="941.0" y="519" type="line" smooth="yes"/>
      <point x="941.0" y="544"/>
      <point x="930.0" y="555"/>
      <point x="905.0" y="555" type="curve" smooth="yes"/>
      <point x="786.0" y="555" type="line" smooth="yes"/>
      <point x="761.0" y="555"/>
      <point x="750.0" y="544"/>
      <point x="750.0" y="519" type="curve" smooth="yes"/>
      <point x="750.0" y="498" type="line" smooth="yes"/>
      <point x="750.0" y="466"/>
      <point x="735.0" y="457"/>
    </contour>
    <contour>
      <point x="265.0" y="338" type="line" smooth="yes"/>
      <point x="189.0" y="338"/>
      <point x="152.0" y="378"/>
      <point x="152.0" y="465" type="curve"/>
      <point x="162.0" y="465" type="line"/>
      <point x="162.0" y="386"/>
      <point x="195.0" y="348"/>
      <point x="265.0" y="348" type="curve" smooth="yes"/>
      <point x="424.0" y="348" type="line"/>
      <point x="429.0" y="302"/>
      <point x="448.0" y="284"/>
      <point x="485.0" y="284" type="curve" smooth="yes"/>
      <point x="513.0" y="284" type="line" smooth="yes"/>
      <point x="550.0" y="284"/>
      <point x="569.0" y="301"/>
      <point x="574.0" y="348" type="curve"/>
      <point x="736.0" y="348" type="line" smooth="yes"/>
      <point x="815.0" y="348"/>
      <point x="839.0" y="385"/>
      <point x="839.0" y="465" type="curve"/>
      <point x="849.0" y="465" type="line"/>
      <point x="849.0" y="377"/>
      <point x="821.0" y="338"/>
      <point x="736.0" y="338" type="curve" smooth="yes"/>
      <point x="582.0" y="338" type="line"/>
      <point x="576.0" y="298"/>
      <point x="556.0" y="274"/>
      <point x="513.0" y="274" type="curve" smooth="yes"/>
      <point x="485.0" y="274" type="line" smooth="yes"/>
      <point x="443.0" y="274"/>
      <point x="422.0" y="298"/>
      <point x="416.0" y="338" type="curve"/>
    </contour>
  </outline>
</glyph>
